<svg width="90" height="257" viewBox="0 0 90 257" fill="none" xmlns="http://www.w3.org/2000/svg">
<g opacity="0.3" filter="url(#filter0_d_404_646)">
<path d="M79.9335 243.762L79.9324 243.758C79.6966 242.963 78.8907 242.49 78.0766 242.651C77.1755 242.829 76.1059 242.987 74.9183 243.045C73.0304 243.139 70.8135 242.971 68.8035 242.127C66.7853 241.304 65.0856 239.748 64.0191 237.67C63.8597 237.418 63.7853 237.173 63.6601 236.927C63.6032 236.799 63.5463 236.696 63.4863 236.55L63.3063 236.068C63.0704 235.428 62.8346 234.791 62.6018 234.159C62.1332 232.806 61.5249 231.503 60.9032 230.251C60.5577 229.635 60.2474 229.018 59.8832 228.434C59.4963 227.86 59.1425 227.285 58.7453 226.749C58.3191 226.227 57.9384 225.698 57.4977 225.226C57.0374 224.767 56.6453 224.287 56.1611 223.897C55.6946 223.496 55.257 223.104 54.7708 222.786C54.5339 222.623 54.3032 222.463 54.0798 222.309C53.8387 222.172 53.6039 222.038 53.3763 221.908C52.4639 221.393 51.5681 221.062 50.8046 220.835C50.3598 220.716 49.975 220.635 49.6233 220.576V162.029C49.6233 160.3 48.6633 158.812 47.2584 158.018V134.906H62.668C64.9035 134.906 66.8152 133.311 67.2146 131.112C68.7818 122.471 71.7859 101.47 65.6897 93.6138C65.4477 93.3014 65.2149 92.99 64.9936 92.6797C60.297 86.1139 59.6898 77.446 63.1015 70.1301C67.3987 60.915 75.777 41.2868 68.0825 38.7658C60.7718 36.3699 55.3129 32.6603 52.976 30.8996C52.1795 30.2996 51.6529 29.4161 51.5101 28.4292L50.8998 24.2313C50.7798 23.4068 50.0733 22.7955 49.2395 22.7955H49.0957C49.0957 22.7955 50.3453 21.5024 48.535 20.2527C47.4302 19.4903 47.186 18.5976 47.1612 18.0151C48.4388 17.2651 49.3108 15.8914 49.3108 14.3107C49.3108 11.9396 47.3712 10 45.0002 10C42.6291 10 40.6895 11.9396 40.6895 14.3107C40.6895 15.8914 41.5616 17.2651 42.8391 18.0151C42.8143 18.5976 42.5702 19.4903 41.4653 20.2527C39.655 21.5024 40.9047 22.7955 40.9047 22.7955H40.7609C39.9281 22.7955 39.2205 23.4068 39.1005 24.2313L38.4902 28.4292C38.3464 29.4161 37.8198 30.2996 37.0243 30.8996C34.6874 32.6592 29.2285 36.3699 21.9178 38.7658C14.2234 41.2878 22.6016 60.915 26.8989 70.1301C30.3106 77.446 29.7023 86.1149 25.0068 92.6797C24.7844 92.99 24.5526 93.3014 24.3106 93.6138C18.2144 101.471 21.2185 122.471 22.7858 131.112C23.1851 133.311 25.0968 134.906 27.3323 134.906H42.7419V158.018C41.3371 158.812 40.3771 160.3 40.3771 162.029V220.576C40.0253 220.635 39.6405 220.716 39.1957 220.835C38.4333 221.063 37.5364 221.393 36.624 221.908C36.3964 222.037 36.1626 222.172 35.9206 222.309C35.6961 222.464 35.4654 222.623 35.2295 222.786C34.7444 223.104 34.3057 223.496 33.8392 223.897C33.355 224.287 32.963 224.767 32.5026 225.226C32.0619 225.698 31.6812 226.227 31.255 226.749C30.8568 227.285 30.503 227.859 30.1171 228.434C29.753 229.018 29.4426 229.634 29.0971 230.251C28.4754 231.503 27.8661 232.806 27.3985 234.159C27.1647 234.791 26.9299 235.428 26.694 236.068L26.514 236.55C26.4551 236.696 26.3982 236.799 26.3402 236.927C26.2151 237.173 26.1406 237.418 25.9813 237.67C24.9137 239.748 23.2151 241.304 21.1968 242.127C19.1858 242.97 16.9699 243.139 15.082 243.045C13.8944 242.986 12.8248 242.829 11.9237 242.651C11.1096 242.49 10.3048 242.963 10.0679 243.758L10.0669 243.762C9.81237 244.618 10.3068 245.524 11.1696 245.754C12.1813 246.023 13.3968 246.283 14.7954 246.444C16.9937 246.687 19.7154 246.705 22.5572 245.736C23.9672 245.253 25.3802 244.503 26.6247 243.489C27.8733 242.479 28.9326 241.219 29.7582 239.867C29.9826 239.547 30.1637 239.149 30.3644 238.791L30.6468 238.245L30.8568 237.776C31.1361 237.147 31.4133 236.52 31.6885 235.898C32.1788 234.72 32.7778 233.641 33.3643 232.621C33.685 232.134 33.9737 231.631 34.2964 231.183C34.6347 230.752 34.944 230.307 35.2761 229.915C35.6267 229.548 35.9392 229.154 36.2816 228.838C36.6343 228.541 36.9385 228.191 37.284 227.963C37.6181 227.715 37.9285 227.46 38.2502 227.289C38.4064 227.194 38.5574 227.102 38.7054 227.012C38.8564 226.941 39.0033 226.87 39.146 226.803C39.6126 226.575 40.0181 226.455 40.3719 226.363C40.3305 226.424 40.2891 226.484 40.2467 226.547C40.1691 226.688 40.0895 226.834 40.0078 226.983C39.836 227.276 39.7026 227.615 39.5578 227.965C39.4016 228.309 39.3085 228.703 39.1792 229.093C39.0612 229.49 38.9836 229.917 38.8833 230.346C38.7995 230.782 38.7447 231.238 38.6743 231.698C38.6164 232.162 38.5916 232.643 38.5502 233.127C38.5036 234.099 38.4747 235.108 38.5243 236.13C38.5399 236.61 38.5564 237.093 38.573 237.578L38.5843 237.944C38.5854 238.056 38.5792 238.137 38.5771 238.236C38.5667 238.426 38.5802 238.612 38.5543 238.812C38.4602 240.432 37.9512 241.773 37.1361 242.641C36.3281 243.522 35.2823 243.956 34.3409 244.157C33.7492 244.284 33.1957 244.333 32.7188 244.326C32.034 244.316 31.8313 244.975 31.8799 245.571V245.574C31.9316 246.214 32.2047 246.582 32.9878 246.626C33.5371 246.657 34.1826 246.685 34.8985 246.6C36.0209 246.459 37.3523 246.087 38.5398 244.999C39.1285 244.458 39.6643 243.728 40.0626 242.834C40.464 241.944 40.7226 240.903 40.8478 239.83C40.8912 239.572 40.8985 239.265 40.9222 238.983L40.9481 238.558L40.9543 238.197C40.9616 237.713 40.9678 237.231 40.975 236.752C40.9719 235.85 41.0433 235.002 41.1188 234.197C41.1747 233.807 41.2129 233.411 41.2781 233.049C41.3547 232.696 41.4136 232.337 41.4953 232.014C41.5905 231.705 41.6629 231.382 41.7643 231.11C41.875 230.85 41.9526 230.559 42.0736 230.349C42.1864 230.127 42.2847 229.902 42.4067 229.737C42.4636 229.648 42.5185 229.561 42.5722 229.476C42.6312 229.404 42.6881 229.334 42.744 229.266C42.924 229.041 43.0957 228.899 43.2488 228.784H48.0757C48.9333 228.784 49.6274 228.089 49.6274 227.232V226.363C49.9833 226.455 50.3908 226.575 50.8605 226.804C51.0032 226.871 51.1491 226.942 51.3012 227.013C51.4491 227.103 51.6001 227.195 51.7563 227.29C52.077 227.461 52.3874 227.716 52.7225 227.964C53.067 228.192 53.3722 228.542 53.725 228.839C54.0674 229.155 54.3798 229.55 54.7305 229.916C55.0625 230.308 55.3708 230.753 55.7101 231.184C56.0329 231.633 56.3215 232.135 56.6422 232.622C57.2277 233.642 57.8277 234.721 58.3181 235.899C58.5932 236.521 58.8715 237.148 59.1498 237.777L59.3598 238.246L59.6422 238.792C59.8429 239.151 60.0239 239.548 60.2484 239.868C61.0739 241.219 62.1342 242.48 63.3818 243.49C64.6263 244.505 66.0394 245.255 67.4494 245.737C70.2921 246.706 73.0139 246.687 75.2111 246.445C76.6097 246.284 77.8252 246.024 78.8369 245.755C79.6935 245.524 80.1869 244.618 79.9335 243.762Z" fill="#262626"/>
<path d="M41.9294 228.787C41.0718 228.787 40.3777 228.093 40.3777 227.235V226.355C40.3332 226.42 40.2908 226.483 40.2452 226.549C40.178 226.671 40.1097 226.797 40.0394 226.924C39.9515 227.586 40.057 228.251 40.5918 228.72C41.2528 229.3 42.189 229.218 43.0135 228.98C43.0963 228.904 43.1718 228.841 43.2452 228.786L41.9294 228.787Z" fill="white"/>
<path d="M22.1602 40.6485C26.0363 39.0389 29.9301 37.4561 33.5932 35.3903C35.4894 34.3206 37.6153 33.1765 38.7987 31.2803C39.7846 29.7006 39.947 27.8024 40.5305 26.0645C40.5967 27.9451 40.6029 29.9996 39.6915 31.6962C38.5587 33.8065 36.257 35.0592 34.2119 36.1423C30.4308 38.1441 26.3115 39.6265 22.1602 40.6485Z" fill="white"/>
<path d="M68.0559 45.8953C67.7507 50.897 66.1928 55.7394 64.459 60.409C62.4718 65.7624 59.4822 70.911 58.787 76.6472C58.0742 82.5303 59.4325 88.521 62.6808 93.4792C63.6552 94.9668 64.6784 96.2868 65.2928 97.9844C66.229 100.57 66.5104 103.375 66.6418 106.105C66.9283 112.056 66.2342 117.986 65.2256 123.841C65.5835 119.131 65.8959 114.428 65.7656 109.701C65.6384 105.076 65.3456 99.5733 62.4842 95.7137C58.8884 90.8641 56.9198 85.2396 57.0925 79.162C57.1825 75.9821 57.8591 72.8455 59.0808 69.9086C60.2694 67.0524 61.727 64.31 62.959 61.4704C65.0952 56.5545 67.399 51.2632 68.0559 45.8953Z" fill="white"/>
<path d="M40.909 22.7965H45.0034H45.2186L40.5293 22.0754C40.6338 22.5079 40.909 22.7965 40.909 22.7965Z" fill="white"/>
<path d="M42.7441 135.646L45.8414 134.908H42.7441V135.646Z" fill="white"/>
<path d="M50.1895 222.127C50.1895 222.127 50.8132 222.096 51.8384 222.443C52.3474 222.619 52.9474 222.889 53.5919 223.279C54.2301 223.674 54.9305 224.17 55.5925 224.82C55.9308 225.138 56.2805 225.472 56.5981 225.858C56.9312 226.23 57.2746 226.618 57.5787 227.052C58.2346 227.888 58.8304 228.838 59.3911 229.848C59.658 230.36 59.9291 230.88 60.2032 231.408C60.4422 231.951 60.6853 232.5 60.9294 233.053C61.4104 234.158 61.8056 235.337 62.2277 236.469C62.6197 237.583 63.1215 238.679 63.7587 239.639C64.0763 240.12 64.4353 240.564 64.8366 240.938C65.2515 241.312 65.7035 241.673 66.1597 241.966C68.0063 243.192 70.0463 243.836 71.8266 244.075C72.7173 244.21 73.5459 244.251 74.2814 244.286C75.018 244.294 75.6624 244.284 76.1921 244.244C77.2524 244.179 77.8597 244.11 77.8597 244.11C77.8597 244.11 77.7107 244.139 77.4304 244.194C77.149 244.241 76.7404 244.349 76.2087 244.406C75.679 244.486 75.0325 244.548 74.2856 244.598C73.5387 244.627 72.6904 244.646 71.7687 244.541C69.9397 244.364 67.7456 243.864 65.7635 242.57C65.2566 242.251 64.7911 241.893 64.3287 241.488C63.8653 241.067 63.467 240.584 63.1163 240.072C62.4139 239.043 61.878 237.914 61.4456 236.741C61.0318 235.588 60.6729 234.447 60.2136 233.348C59.9829 232.802 59.7532 232.26 59.5277 231.724C59.268 231.206 59.0104 230.693 58.758 230.189C58.2149 229.204 57.6863 228.247 57.0884 227.407C56.8122 226.97 56.4977 226.58 56.1915 226.204C55.8998 225.814 55.577 225.476 55.2646 225.153C54.646 224.5 54.0108 223.972 53.4222 223.537C52.8274 223.111 52.2636 222.803 51.7794 222.594C51.2932 222.393 50.897 222.255 50.6188 222.201C50.3426 222.135 50.1895 222.127 50.1895 222.127Z" fill="white"/>
<path d="M39.8138 222.127C39.8138 222.127 39.6607 222.134 39.3835 222.201C39.1042 222.254 38.709 222.392 38.2228 222.594C37.7387 222.804 37.1759 223.111 36.5801 223.537C35.9914 223.972 35.3563 224.5 34.7376 225.153C34.4252 225.477 34.1014 225.814 33.8108 226.204C33.5046 226.58 33.1901 226.97 32.9139 227.407C32.3159 228.247 31.7884 229.204 31.2442 230.189C30.9918 230.693 30.7342 231.206 30.4746 231.724C30.248 232.26 30.0194 232.802 29.7887 233.348C29.3304 234.447 28.9704 235.588 28.5566 236.741C28.1242 237.915 27.5884 239.044 26.886 240.072C26.5353 240.585 26.137 241.068 25.6735 241.488C25.2111 241.893 24.7456 242.251 24.2387 242.57C22.2567 243.864 20.0625 244.364 18.2336 244.541C17.3129 244.646 16.4636 244.626 15.7167 244.598C14.9698 244.548 14.3232 244.486 13.7936 244.406C13.2619 244.349 12.8532 244.24 12.5719 244.194C12.2915 244.139 12.1426 244.11 12.1426 244.11C12.1426 244.11 12.7498 244.179 13.8102 244.244C14.3398 244.284 14.9843 244.294 15.7208 244.286C16.4563 244.251 17.285 244.21 18.1757 244.075C19.956 243.836 21.996 243.192 23.8425 241.966C24.2987 241.673 24.7498 241.312 25.1656 240.938C25.567 240.564 25.926 240.119 26.2435 239.639C26.8808 238.678 27.3825 237.583 27.7746 236.469C28.1966 235.337 28.5918 234.158 29.0729 233.053C29.317 232.5 29.5591 231.951 29.7991 231.407C30.0732 230.881 30.3442 230.36 30.6111 229.848C31.1718 228.838 31.7677 227.888 32.4235 227.052C32.7277 226.618 33.0711 226.23 33.4042 225.858C33.7218 225.473 34.0725 225.139 34.4097 224.82C35.0718 224.17 35.7711 223.675 36.4104 223.279C37.0549 222.889 37.6549 222.619 38.1639 222.443C39.1901 222.096 39.8138 222.127 39.8138 222.127Z" fill="white"/>
<path d="M41.6307 229.692C41.6307 229.692 41.4549 229.93 41.2914 230.414C41.1207 230.894 40.9459 231.602 40.8 232.463C40.4918 234.181 40.2983 236.506 40.1918 238.833C40.1566 239.427 40.1452 239.996 40.0314 240.581C39.9424 241.162 39.778 241.713 39.5897 242.239C39.3683 242.75 39.1407 243.245 38.8211 243.65C38.5201 244.064 38.1745 244.411 37.8238 244.685C37.1245 245.245 36.418 245.51 35.9287 245.652C35.4342 245.79 35.1445 245.83 35.1445 245.83C35.1445 245.83 35.4311 245.767 35.9101 245.595C36.147 245.503 36.4314 245.382 36.7387 245.211C37.0387 245.029 37.3832 244.829 37.7028 244.538C38.368 243.989 38.939 243.135 39.329 242.139C39.5018 241.632 39.6549 241.093 39.7324 240.536C39.8255 239.99 39.8618 239.389 39.898 238.819C40.0107 236.483 40.2683 234.15 40.6438 232.432C40.8321 231.573 41.0535 230.872 41.25 230.399C41.4414 229.921 41.6307 229.692 41.6307 229.692Z" fill="white"/>
<path d="M47.2593 161.459C47.2593 161.459 47.2955 162.463 47.3597 164.221C47.401 165.979 47.5024 168.49 47.55 171.504C47.5924 174.517 47.6876 178.033 47.7083 181.8C47.73 185.568 47.7538 189.585 47.7765 193.603C47.7538 197.621 47.73 201.64 47.7083 205.407C47.6917 209.174 47.5934 212.689 47.551 215.704C47.5055 218.717 47.402 221.229 47.3607 222.987C47.2965 224.744 47.2603 225.75 47.2603 225.75C47.2603 225.75 47.2241 224.745 47.16 222.987C47.1186 221.229 47.0152 218.717 46.9696 215.704C46.9272 212.691 46.8289 209.174 46.8124 205.407C46.7907 201.639 46.7679 197.621 46.7441 193.603C46.7679 189.585 46.7907 185.566 46.8124 181.8C46.832 178.033 46.9283 174.517 46.9707 171.504C47.0172 168.49 47.1186 165.979 47.161 164.221C47.2231 162.463 47.2593 161.459 47.2593 161.459Z" fill="white"/>
<path d="M43.7088 136.589C43.7088 136.589 43.7916 137.864 43.8537 139.774C43.8754 140.73 43.923 141.845 43.9323 143.039C43.9437 144.234 43.9551 145.508 43.9665 146.782C43.9551 148.056 43.9437 149.331 43.9323 150.525C43.924 151.719 43.8744 152.835 43.8537 153.789C43.7916 155.701 43.7078 156.975 43.7078 156.975C43.7078 156.975 43.624 155.7 43.562 153.789C43.5413 152.834 43.4916 151.718 43.4833 150.525C43.473 149.33 43.4606 148.055 43.4492 146.782C43.4606 145.507 43.473 144.233 43.4833 143.039C43.4937 141.844 43.5413 140.729 43.562 139.774C43.6261 137.863 43.7088 136.589 43.7088 136.589Z" fill="white"/>
</g>
<defs>
<filter id="filter0_d_404_646" x="0" y="0" width="90" height="256.656" filterUnits="userSpaceOnUse" color-interpolation-filters="sRGB">
<feFlood flood-opacity="0" result="BackgroundImageFix"/>
<feColorMatrix in="SourceAlpha" type="matrix" values="0 0 0 0 0 0 0 0 0 0 0 0 0 0 0 0 0 0 127 0" result="hardAlpha"/>
<feOffset/>
<feGaussianBlur stdDeviation="5"/>
<feComposite in2="hardAlpha" operator="out"/>
<feColorMatrix type="matrix" values="0 0 0 0 0 0 0 0 0 0 0 0 0 0 0 0 0 0 0.25 0"/>
<feBlend mode="normal" in2="BackgroundImageFix" result="effect1_dropShadow_404_646"/>
<feBlend mode="normal" in="SourceGraphic" in2="effect1_dropShadow_404_646" result="shape"/>
</filter>
</defs>
</svg>
