<svg width="16" height="16" viewBox="0 0 16 16" fill="none" xmlns="http://www.w3.org/2000/svg">
<path fill-rule="evenodd" clip-rule="evenodd" d="M7.80449 1.49444C7.45553 1.49444 7.11584 1.58909 6.83647 1.76433C6.43001 2.01928 6.19047 2.41963 6.19047 2.84509V2.88505H9.81035V2.84509C9.81035 2.41963 9.57081 2.01928 9.16435 1.76433C8.88498 1.58909 8.54529 1.49444 8.19633 1.49444H7.80449ZM11.284 2.88505V2.84509C11.284 2.0329 10.8268 1.26784 10.0493 0.780196C9.51485 0.444962 8.86466 0.263672 8.19633 0.263672H7.80449C7.13616 0.263672 6.48597 0.444962 5.95148 0.780196C5.17401 1.26784 4.71679 2.0329 4.71679 2.84509V2.88505H0.94778C0.540832 2.88505 0.210938 3.16057 0.210938 3.50044C0.210938 3.8403 0.540832 4.11582 0.94778 4.11582H15.053C15.46 4.11582 15.7899 3.8403 15.7899 3.50044C15.7899 3.16057 15.46 2.88505 15.053 2.88505H11.284ZM2.12321 4.85108C2.53016 4.85108 2.86005 5.1266 2.86005 5.46647V9.74376C2.86005 11.858 3.21544 13.0351 3.92652 13.7069C4.61157 14.3541 5.7942 14.6813 8.00041 14.6813C10.2066 14.6813 11.3893 14.3541 12.0743 13.7069C12.7854 13.0351 13.1408 11.858 13.1408 9.74376V5.46647C13.1408 5.1266 13.4707 4.85108 13.8776 4.85108C14.2846 4.85108 14.6145 5.1266 14.6145 5.46647V9.74376C14.6145 11.881 14.2811 13.4803 13.1785 14.522C12.0498 15.5884 10.2939 15.912 8.00041 15.912C5.70694 15.912 3.95098 15.5884 2.82235 14.522C1.71974 13.4803 1.38637 11.881 1.38637 9.74376V5.46647C1.38637 5.1266 1.71626 4.85108 2.12321 4.85108ZM5.84544 6.57136C6.25239 6.57136 6.58228 6.84688 6.58228 7.18675V11.2827C6.58228 11.6225 6.25239 11.898 5.84544 11.898C5.4385 11.898 5.1086 11.6225 5.1086 11.2827V7.18675C5.1086 6.84688 5.4385 6.57136 5.84544 6.57136ZM10.1554 6.57136C10.5623 6.57136 10.8922 6.84688 10.8922 7.18675V11.2827C10.8922 11.6225 10.5623 11.898 10.1554 11.898C9.74843 11.898 9.41854 11.6225 9.41854 11.2827V7.18675C9.41854 6.84688 9.74843 6.57136 10.1554 6.57136Z" fill="#0085D0"/>
</svg>
