<svg width="16" height="16" viewBox="0 0 16 16" fill="none" xmlns="http://www.w3.org/2000/svg">
<path d="M14.9126 8.5473C14.6353 8.5473 14.3793 8.77888 14.3793 9.07362V12.6315C14.3793 13.7684 13.4406 14.6947 12.2886 14.6947H3.49928C2.34728 14.6947 1.40861 13.7684 1.40861 12.6315V3.95783C1.40861 2.82099 2.34728 1.89467 3.49928 1.89467H7.10461C7.38195 1.89467 7.63795 1.66309 7.63795 1.36836C7.63795 1.09467 7.40328 0.842041 7.10461 0.842041H3.49928C1.77128 0.842041 0.363281 2.23151 0.363281 3.93678V12.6105C0.363281 14.3157 1.77128 15.7052 3.49928 15.7052H12.2886C14.0166 15.7052 15.4246 14.3157 15.4246 12.6105V9.07362C15.4246 8.77888 15.1899 8.5473 14.9126 8.5473Z" fill="white"/>
<path d="M6.65757 7.03152L5.93224 9.621C5.8469 9.89468 6.01757 10.1894 6.2949 10.2736C6.38024 10.2947 6.4869 10.2947 6.57224 10.2736L9.19624 9.55784C9.28157 9.53679 9.34557 9.47363 9.4309 9.43152L14.8069 4.16836C15.5322 3.45258 15.5322 2.27363 14.8069 1.55784C14.0816 0.842049 12.8442 0.842049 12.1402 1.55784L6.8069 6.821C6.7429 6.84205 6.70024 6.92626 6.65757 7.03152ZM12.8656 2.25258C13.2069 1.97889 13.7189 1.99994 14.0176 2.33679C14.2736 2.65258 14.2736 3.09468 14.0176 3.38942L9.06824 8.27363L7.91624 7.13679L12.8656 2.25258ZM7.42557 8.14731L8.0869 8.79994L7.16957 9.03152L7.42557 8.14731Z" fill="white"/>
</svg>
