<svg width="436" height="387" viewBox="0 0 436 387" fill="none" xmlns="http://www.w3.org/2000/svg">
<path d="M325.134 333.417H321.132V70.477C321.132 69.5406 320.378 68.7827 319.446 68.7827H110.178C109.246 68.7827 108.492 69.5406 108.492 70.477V333.417H104.72C103.788 333.417 103.033 334.176 103.033 335.111C103.033 336.046 103.788 336.805 104.72 336.805H117.158C118.091 336.805 118.845 336.046 118.845 335.111C118.845 334.176 118.091 333.417 117.158 333.417H111.866V72.1713H317.76V333.417H312.697C311.765 333.417 311.011 334.176 311.011 335.111C311.011 336.046 311.765 336.805 312.697 336.805H325.136C326.068 336.805 326.822 336.046 326.822 335.111C326.82 334.175 326.066 333.417 325.134 333.417Z" fill="#F0F0F0"/>
<path d="M137.547 104.679L142.575 137.064L116.918 292.76H201.968L177.08 140.818L182.735 106.523L137.547 104.679Z" fill="#EBEBEB"/>
<path d="M160.675 81.1235L137 97.5039C135.852 98.298 136.412 100.105 137.805 100.105H182.08C183.452 100.105 184.026 98.3454 182.92 97.5299L160.675 81.1235Z" stroke="#E0E0E0" stroke-miterlimit="10" stroke-linecap="round" stroke-linejoin="round"/>
<path d="M160.676 81.1238V75.1193C160.676 75.1193 155.868 67.5322 160.676 67.5322C165.484 67.5322 163.787 70.4532 163.787 70.4532" stroke="#E0E0E0" stroke-miterlimit="10" stroke-linecap="round" stroke-linejoin="round"/>
<path d="M147.381 107.367L146.533 89.1841L142.291 92.3569L143.846 107.936L147.381 107.367Z" fill="#EBEBEB"/>
<path d="M173.262 107.936L174.958 89.1841L178.777 92.3569L177.786 107.936H173.262Z" fill="#EBEBEB"/>
<path d="M217.371 81.1238L193.695 97.5041C192.547 98.2982 193.107 100.105 194.5 100.105H238.774C240.146 100.105 240.72 98.3456 239.614 97.5301L217.371 81.1238Z" stroke="#E0E0E0" stroke-miterlimit="10" stroke-linecap="round" stroke-linejoin="round"/>
<path d="M217.371 81.1238V75.1193C217.371 75.1193 212.563 67.5322 217.371 67.5322C222.179 67.5322 220.482 70.4532 220.482 70.4532" stroke="#E0E0E0" stroke-miterlimit="10" stroke-linecap="round" stroke-linejoin="round"/>
<path d="M205.903 87.4611C205.903 87.4611 213.864 93.2307 218.001 93.2307C222.139 93.2307 227.759 86.876 227.759 86.876L244.341 98.2345L235.038 119.882L245.491 246.021H186.832L199.774 119.882L188 99.7153L205.903 87.4611Z" fill="#F5F5F5"/>
<path d="M274.058 81.1235L250.383 97.5039C249.235 98.298 249.795 100.105 251.188 100.105H295.463C296.834 100.105 297.409 98.3454 296.303 97.5299L274.058 81.1235Z" stroke="#E0E0E0" stroke-miterlimit="10" stroke-linecap="round" stroke-linejoin="round"/>
<path d="M274.059 81.1238V75.1193C274.059 75.1193 269.251 67.5322 274.059 67.5322C278.866 67.5322 277.17 70.4532 277.17 70.4532" stroke="#E0E0E0" stroke-miterlimit="10" stroke-linecap="round" stroke-linejoin="round"/>
<path d="M255.752 91.7702C255.752 91.7702 258.99 102.664 252.574 109.472L245.49 222.735L298.376 222.376L295.53 108.538C295.53 108.538 289.142 100.177 291.891 92.9245L285.076 86.5517C285.076 86.5517 277.365 92.1768 273.326 91.4934C269.286 90.81 263.806 85.4629 263.806 85.4629L255.752 91.7702Z" fill="#EBEBEB"/>
<path d="M39.0017 332.818H52.1308V202.875H57.8178V332.818H70.9469C73.1416 332.818 74.9271 334.602 74.9271 336.806H35.0215C35.0215 334.602 36.807 332.818 39.0017 332.818Z" fill="#E6E6E6"/>
<path d="M57.8167 202.875V218.023L52.1309 221.012V202.875H57.8167Z" fill="#E0E0E0"/>
<path d="M72.556 166.093C76.6622 175.628 80.8853 188.7 81.6273 203.31C81.7229 205.167 80.603 206.783 78.9941 207.467H30.9538C29.346 206.783 28.225 205.167 28.3217 203.31C29.0626 188.7 33.2767 175.628 37.393 166.093C42.0455 155.285 41.5778 142.948 36.1247 132.523C31.5992 123.9 27.4042 114.934 28.3307 113.043C30.2331 109.202 32.1344 107.35 41.6453 106.233C47.8585 105.498 49.0581 101.853 49.1368 99.4131C49.1762 98.2079 48.659 97.0422 47.7708 96.229C39.0503 88.2523 38.5724 69.9777 53.3104 67.6159L53.3206 67.3606C53.8085 67.3606 54.2763 67.3798 54.735 67.4092C54.8913 67.4193 55.0476 67.4193 55.2129 67.4092C55.6716 67.3798 56.1393 67.3606 56.6273 67.3606L56.6374 67.6159C71.3755 69.9777 70.8976 88.2523 62.1771 96.229C61.29 97.0422 60.7627 98.2079 60.8121 99.4131C60.8897 101.853 62.0804 105.498 68.3026 106.233C77.8124 107.35 79.7148 109.203 81.6172 113.043C82.5437 114.934 78.3397 123.9 73.8243 132.523C68.3712 142.948 67.9034 155.285 72.556 166.093Z" fill="#F0F0F0"/>
<path d="M45.4102 105.193C45.4203 105.203 45.4203 105.203 45.4203 105.203C45.4203 105.203 55.3989 106.506 60.8217 99.5192C60.8116 99.4797 60.8116 99.4503 60.8116 99.4119C60.7632 98.2067 61.2894 97.041 62.1765 96.2278C62.1765 96.2278 54.8221 100.569 47.7702 96.2278C48.6584 97.041 49.1745 98.2067 49.1363 99.4119C49.0767 101.244 48.3852 103.753 45.4102 105.193Z" fill="#EBEBEB"/>
<path d="M39.1864 160.958C43.9762 161.958 49.7992 162.879 54.9004 162.879C59.6991 162.879 65.62 162.065 70.8089 161.135C68.4972 152.854 68.9852 144.016 72.2132 136.02C69.7846 136.872 67.483 137.568 66.3801 137.568C63.4837 137.568 58.2251 131.228 54.9679 131.228C51.7196 131.228 46.5116 137.568 43.6141 137.568C42.483 137.568 40.0342 136.589 37.4785 135.393C40.9123 143.497 41.4981 152.512 39.1864 160.958Z" fill="#EBEBEB"/>
<path d="M163.936 39.5537C174.809 39.5537 183.623 30.6993 183.623 19.7768C183.623 8.85439 174.809 0 163.936 0C153.064 0 144.25 8.85439 144.25 19.7768C144.25 30.6993 153.064 39.5537 163.936 39.5537Z" fill="#E0E0E0"/>
<path d="M163.937 36.5932C173.182 36.5932 180.676 29.0642 180.676 19.7768C180.676 10.4894 173.182 2.96045 163.937 2.96045C154.692 2.96045 147.197 10.4894 147.197 19.7768C147.197 29.0642 154.692 36.5932 163.937 36.5932Z" fill="#F0F0F0"/>
<path d="M164.727 8.24121V19.9962L172.481 15.5876" fill="#F0F0F0"/>
<path d="M164.727 8.24121V19.9962L172.481 15.5876" stroke="#E0E0E0" stroke-width="1.4868" stroke-miterlimit="10" stroke-linecap="round" stroke-linejoin="round"/>
<path d="M396.051 295.449C396.066 295.001 397.562 250.634 404.746 243.616C411.732 236.793 419.752 243.362 420.089 243.644L420.809 242.777C420.718 242.7 411.668 235.278 403.962 242.805C396.456 250.138 394.986 293.566 394.928 295.411L396.051 295.449Z" fill="#E0E0E0"/>
<path d="M395.434 304.169C395.486 303.638 400.344 250.905 381.174 228.802L380.326 229.543C399.178 251.279 394.366 303.533 394.315 304.058L395.434 304.169Z" fill="#E0E0E0"/>
<path d="M396.141 298.59L397.264 298.516C397.224 297.918 393.512 238.565 407.573 225.572L406.812 224.741C392.357 238.098 395.981 296.127 396.141 298.59Z" fill="#E0E0E0"/>
<path d="M394.312 298.557L395.436 298.548C395.423 296.914 394.972 258.458 384.099 252.198C381.682 250.806 379.315 250.574 377.064 251.509C370.489 254.242 367.231 265.997 367.096 266.496L368.181 266.794C368.212 266.677 371.43 255.073 377.496 252.554C379.409 251.761 381.441 251.97 383.542 253.18C393.858 259.118 394.308 298.164 394.312 298.557Z" fill="#E0E0E0"/>
<path d="M398.548 298.586L399.67 298.521C399.653 298.219 398.03 268.133 406.111 257.532C408.07 254.965 410.195 253.74 412.441 253.897C417.737 254.269 422.178 262.055 422.222 262.132L423.202 261.577C423.009 261.235 418.421 253.186 412.521 252.771C409.882 252.582 407.422 253.956 405.219 256.845C396.884 267.778 398.476 297.333 398.548 298.586Z" fill="#E0E0E0"/>
<path d="M396.774 302.678C396.995 299.759 402.058 231.064 393.148 218.958L392.244 219.629C400.907 231.4 395.706 301.881 395.652 302.592L396.774 302.678Z" fill="#E0E0E0"/>
<path d="M374.639 258.472C374.639 258.472 379.984 260.451 378.394 265.125C376.806 269.797 359.904 277.488 359.904 277.488C359.904 277.488 352.826 270.971 359.326 260.372C365.827 249.771 374.495 255.127 374.639 258.472Z" fill="#EBEBEB"/>
<path d="M397.873 249.575C397.873 249.575 392.181 249.336 391.858 254.264C391.534 259.192 404.187 272.824 404.187 272.824C404.187 272.824 413.217 269.545 411.277 257.248C409.339 244.951 399.287 246.545 397.873 249.575Z" fill="#EBEBEB"/>
<path d="M402.692 225.988C402.692 225.988 398.897 225.579 399.203 223.256C399.509 220.934 413.954 214.959 422.476 224.622C422.476 224.622 417.02 234.039 409.13 234.162C401.242 234.285 402.692 225.988 402.692 225.988Z" fill="#EBEBEB"/>
<path d="M395.62 220.35C395.62 220.35 399.056 222.018 400.019 219.886C400.982 217.753 391.868 205.007 379.548 208.679C379.548 208.679 379.222 219.571 385.852 223.866C392.482 228.162 395.62 220.35 395.62 220.35Z" fill="#EBEBEB"/>
<path d="M413.587 256.593C413.587 256.593 410.968 254.469 413.794 253.433C416.62 252.396 430.487 252.691 430.632 266.49C430.632 266.49 414.481 269.186 412.482 263.931C410.483 258.673 413.587 256.593 413.587 256.593Z" fill="#EBEBEB"/>
<path d="M380.651 225.642C380.651 225.642 383.269 223.517 380.444 222.482C377.617 221.445 363.751 221.74 363.605 235.539C363.605 235.539 379.757 238.235 381.756 232.978C383.755 227.722 380.651 225.642 380.651 225.642Z" fill="#EBEBEB"/>
<path d="M389.19 236.758C389.19 236.758 389.42 234.176 387.345 235.188C385.269 236.2 378.041 244.035 385.535 251.47C385.535 251.47 395.622 243.965 393.803 240.057C391.986 236.148 389.19 236.758 389.19 236.758Z" fill="#EBEBEB"/>
<path d="M415.926 240.437C415.926 240.437 414.361 238.377 416.653 238.12C418.946 237.865 429.22 240.62 426.828 250.925C426.828 250.925 414.31 249.979 413.774 245.7C413.238 241.42 415.926 240.437 415.926 240.437Z" fill="#EBEBEB"/>
<path d="M373.641 336.806H416.589L421.223 289.567H369.008L373.641 336.806Z" fill="#F0F0F0"/>
<path d="M366.712 294.779H423.514V284.356H366.712V294.779Z" fill="#E6E6E6"/>
<path d="M218 387C338.398 387 436 381.274 436 374.211C436 367.147 338.398 361.421 218 361.421C97.6019 361.421 0 367.147 0 374.211C0 381.274 97.6019 387 218 387Z" fill="#F5F5F5"/>
<path d="M408.091 369.538L383.694 172.824H377.764L402.16 369.538H385.618L386.337 375.332H425.351L424.631 369.538H408.091Z" fill="#263238"/>
<path opacity="0.4" d="M408.091 369.538L383.694 172.824H377.764L402.16 369.538H385.618L386.337 375.332H425.351L424.631 369.538H408.091Z" fill="#FAFAFA"/>
<path d="M404.206 76.6812H345.62L309.23 374.967H367.817L404.206 76.6812Z" fill="#263238"/>
<path opacity="0.6" d="M404.206 76.6812H345.62L309.23 374.967H367.817L404.206 76.6812Z" fill="#FAFAFA"/>
<path d="M370.044 280.288C366.86 302.592 367.35 324.251 368.653 340.447L385.426 202.957C384.088 208.588 382.705 214.464 381.344 220.327C381.593 231.156 380.575 254.24 370.044 280.288Z" fill="#263238"/>
<path d="M370.045 280.288C380.576 254.24 381.594 231.156 381.346 220.326C378.737 231.565 376.213 242.751 374.256 252.053C374.489 253.47 374.732 254.899 374.99 256.344C372.776 264.261 371.175 272.315 370.045 280.288Z" fill="#263238"/>
<path d="M367.07 86.6639C367.115 84.1134 368.026 82.6292 368.026 82.6292C367.318 87.5054 371.111 92.2844 376.773 93.2501C377.64 93.3981 378.754 93.5133 380.019 93.6048C379.886 92.5182 379.71 91.4316 379.502 90.3732C379.032 87.9628 378.409 85.688 377.842 83.8977L378.087 84.0501C377.147 83.1996 376.424 81.8126 376.27 80.0562H366.705C365.968 84.7075 367.07 86.6639 367.07 86.6639Z" fill="#263238"/>
<path d="M365.34 80.5991C365.349 80.6003 365.358 80.6002 365.367 80.6002C365.51 80.6002 365.646 80.4907 365.677 80.345C365.698 80.2445 365.723 80.1541 365.745 80.0547H365.179C365.161 80.136 365.141 80.2106 365.124 80.293C365.09 80.4478 365.187 80.5844 365.34 80.5991Z" fill="#263238"/>
<path d="M370.548 103.532C369.722 103.848 368.904 104.187 368.1 104.543C369.52 104.74 370.715 105.372 372.072 106.301C371.239 104.279 370.555 103.54 370.548 103.532Z" fill="#FFB573"/>
<path d="M370.66 103.489L372.085 102.967C371.609 103.134 371.135 103.308 370.66 103.489Z" fill="#FFB573"/>
<path d="M392.089 101.88C392.911 102.758 394.045 103.575 395.613 104.315C395.613 104.315 396.853 108.436 389.336 110.228C380.028 112.435 378.195 105.148 378.195 105.148C379.142 104.019 379.698 102.515 380 100.82C377.707 101.24 374.965 101.963 372.193 102.929C373.178 104.548 373.983 106.341 374.646 108.174C377.753 110.449 382.196 113.467 390.482 116.335C390.801 116.446 391.069 116.573 391.306 116.71C392.843 116.911 394.357 117.018 395.914 117.003L397.288 105.741C396.756 104.08 396.228 103.305 396.228 103.305C394.857 102.776 393.463 102.294 392.089 101.88Z" fill="#FFB573"/>
<path d="M363.535 166.934C362.478 168.487 360.939 171.046 359.254 174.8C358.934 179.163 358.593 183.538 358.212 187.91L358.21 187.929C358.188 188.174 358.133 188.413 358.06 188.644L358.127 197.693L354.501 204.981L351.276 204.068C349.117 218.554 348.256 237.723 350.555 262.642C338.059 293.949 347.854 350.612 350.526 364.413H359.587C359.653 364.413 359.715 364.43 359.78 364.436C358.409 342.341 366.621 290.05 372.952 258.392C373.349 256.406 373.787 254.283 374.257 252.055C376.214 242.753 378.739 231.566 381.347 220.327C382.707 214.464 384.09 208.588 385.428 202.958L389.761 167.434C381.621 167.825 371.418 167.574 363.535 166.934Z" fill="#263238"/>
<path d="M361.197 365.28C360.894 364.781 360.363 364.491 359.779 364.435C359.714 364.429 359.652 364.412 359.585 364.412H350.524H350.503C349.59 364.412 348.764 365.032 348.477 365.913C347.982 367.44 347.502 368.682 347.153 369.742C346.941 370.388 346.773 371.01 346.662 371.591H364.853L365.175 368.957C363.46 368.044 362.108 366.782 361.197 365.28Z" fill="#0085D0"/>
<path d="M389.338 110.228C396.853 108.438 395.614 104.315 395.614 104.315C394.047 103.575 392.912 102.758 392.09 101.881C391.074 100.795 390.549 99.6137 390.317 98.3622C386.341 97.9883 382.558 95.6298 380.415 91.236C379.234 88.8165 378.705 86.7077 378.641 84.4633C378.581 84.4283 378.52 84.399 378.461 84.356C378.334 84.2645 378.211 84.1595 378.091 84.0499L377.846 83.8975C378.414 85.6878 379.036 87.9638 379.506 90.373C379.714 91.4314 379.89 92.518 380.024 93.6046C380.287 95.7439 380.378 97.8832 380.165 99.8102C380.126 100.158 380.062 100.487 380.002 100.82C379.701 102.515 379.144 104.019 378.198 105.148C378.198 105.148 380.029 112.435 389.338 110.228Z" fill="#FFB573"/>
<path d="M372.067 106.303C372.848 106.837 373.683 107.471 374.645 108.174C373.983 106.341 373.178 104.549 372.193 102.929V102.928L372.084 102.967L370.66 103.489L370.545 103.531L370.546 103.532C370.552 103.54 371.235 104.28 372.067 106.303Z" fill="#263238"/>
<path d="M396.227 103.306C396.227 103.306 396.756 104.081 397.287 105.743L397.549 103.599L396.227 103.306Z" fill="#263238"/>
<path d="M391.306 116.71C397.924 120.545 373.33 134.406 368.581 136.238C368.579 136.239 368.576 136.24 368.573 136.24C367.562 138.424 366.229 140.934 364.504 143.485C362.766 156.809 358.937 165.897 362.709 166.865C362.979 166.888 363.256 166.91 363.533 166.933C371.416 167.573 381.619 167.824 389.76 167.432L395.912 117.002C394.356 117.019 392.844 116.913 391.306 116.71Z" fill="#0085D0"/>
<path d="M364.506 143.485C366.229 140.934 367.563 138.424 368.575 136.24C367.381 136.699 366.232 136.951 365.128 137.051C364.998 139.286 364.781 141.432 364.506 143.485Z" fill="#0085D0"/>
<path d="M382.783 80.7348C382.352 83.3915 380.417 85.5138 378.639 84.4634C378.703 86.7077 379.232 88.8166 380.413 91.236C382.556 95.6299 386.339 97.9872 390.315 98.3622C393.101 98.6242 395.972 97.9002 398.453 96.1878L399.618 86.6388C399.455 86.5666 399.358 86.5101 399.358 86.5101L399.818 85.0022L400.422 80.0537H382.867C382.844 80.2875 382.818 80.5168 382.783 80.7348ZM390.903 84.3436C391.03 84.2973 391.161 84.3662 391.194 84.4984C391.202 84.5278 392.007 87.5007 395.39 88.3907C395.519 88.4257 395.584 88.5602 395.542 88.6946C395.501 88.8301 395.366 88.9126 395.241 88.8798C394.778 88.7578 394.361 88.5997 393.984 88.4178C391.409 87.1731 390.763 84.7796 390.733 84.6633C390.7 84.5334 390.776 84.3888 390.903 84.3436Z" fill="#FFB573"/>
<path d="M399.62 86.6401L399.82 85.0034L399.359 86.5113C399.359 86.5113 399.457 86.5667 399.62 86.6401Z" fill="#ED893E"/>
<path d="M393.987 88.4177C394.364 88.5996 394.781 88.7566 395.244 88.8797C395.369 88.9125 395.504 88.83 395.545 88.6945C395.586 88.56 395.522 88.4256 395.394 88.3906C392.01 87.5005 391.206 84.5276 391.197 84.4983C391.164 84.3661 391.033 84.2972 390.906 84.3435C390.779 84.3898 390.703 84.5333 390.736 84.6643C390.766 84.7795 391.412 87.173 393.987 88.4177Z" fill="#263238"/>
<path d="M378.09 84.0488C378.211 84.1584 378.332 84.2646 378.459 84.3549C378.519 84.3979 378.58 84.4272 378.639 84.4622C380.419 85.5138 382.353 83.3903 382.784 80.7337C382.819 80.5157 382.846 80.2864 382.867 80.0537H376.271C376.426 81.8113 377.148 83.1983 378.09 84.0488Z" fill="#FFB573"/>
<path d="M353.049 186.142L358.047 186.844L358.061 188.643C358.134 188.411 358.189 188.174 358.21 187.928L358.212 187.909C358.593 183.535 358.933 179.162 359.255 174.798C359.394 172.911 359.538 171.019 359.665 169.139C359.901 166.025 360.097 162.917 360.369 159.833C360.606 156.767 360.887 153.661 361.273 150.772L361.604 148.715C361.765 148.029 361.87 147.408 362.069 146.671C362.418 145.252 362.837 143.775 363.244 142.288C363.724 140.568 364.248 138.829 364.782 137.083C359.98 137.376 356.113 134.648 353.623 132.162C352.872 135.005 352.169 137.858 351.533 140.778C351.174 142.407 350.855 144.047 350.572 145.758C350.418 146.583 350.316 147.535 350.19 148.414C350.097 149.302 350.025 150.193 349.956 151.064C349.624 157.756 349.872 163.937 350.204 170.214C350.515 175.944 351.029 181.61 351.708 187.269C352.109 186.872 352.543 186.488 353.049 186.142Z" fill="#FFB573"/>
<path d="M358.127 197.691L358.061 188.643L358.047 186.844L353.05 186.142C352.544 186.488 352.111 186.871 351.709 187.268C347.699 191.243 348.621 197.389 348.621 197.389L358.127 197.691Z" fill="#FFB573"/>
<path d="M358.127 197.692L348.622 197.39L347.678 203.048L351.277 204.067L354.501 204.979L358.127 197.692Z" fill="#FFB573"/>
<path d="M364.785 137.083C364.898 137.076 365.014 137.061 365.129 137.05C366.233 136.951 367.382 136.699 368.576 136.239C368.578 136.238 368.581 136.237 368.584 136.237C373.331 134.405 397.926 120.545 391.308 116.71C391.071 116.572 390.803 116.446 390.484 116.335C382.199 113.467 377.756 110.449 374.647 108.174C373.686 107.47 372.85 106.837 372.069 106.302C370.713 105.373 369.518 104.74 368.097 104.544C367.434 104.451 366.722 104.452 365.92 104.564C355.049 106.088 350.518 128.343 350.518 128.343C350.518 128.343 351.633 130.175 353.624 132.163C356.116 134.648 359.981 137.377 364.785 137.083Z" fill="#0085D0"/>
<path opacity="0.2" d="M370.045 280.288C380.576 254.24 381.594 231.156 381.346 220.326C378.737 231.565 376.213 242.751 374.256 252.053C374.489 253.47 374.732 254.899 374.99 256.344C372.776 264.261 371.175 272.315 370.045 280.288Z" fill="black"/>
<path opacity="0.2" d="M364.506 143.485C366.229 140.934 367.563 138.424 368.575 136.24C367.381 136.699 366.232 136.951 365.128 137.051C364.998 139.286 364.781 141.432 364.506 143.485Z" fill="black"/>
<path opacity="0.5" d="M400.421 80.0552L364.856 371.591H313.012L348.577 80.0552H400.421Z" fill="white"/>
<path opacity="0.5" d="M367.87 80.0552L340.365 147.359L346.667 95.6991L353.063 80.0552H367.87Z" fill="white"/>
<path opacity="0.5" d="M378.194 80.0552L335.977 183.352L338.684 161.155L371.83 80.0552H378.194Z" fill="white"/>
<path opacity="0.5" d="M386.093 197.499L383.385 219.696L321.309 371.591H314.945L386.093 197.499Z" fill="white"/>
<path opacity="0.5" d="M387.861 80.0552L331.861 217.061L332.882 208.693L385.455 80.0552H387.861Z" fill="white"/>
<path d="M303.505 111.271C304.571 117.507 305.514 123.763 306.344 130.035C306.778 133.168 307.159 136.311 307.553 139.451L308.114 144.165L308.386 146.524C308.477 147.302 308.581 147.915 308.676 148.621C309.157 151.483 309.798 154.544 310.481 157.563C311.137 160.601 311.872 163.653 312.572 166.716C314.02 172.83 315.418 179.01 316.758 185.186L316.762 185.204C317.133 186.914 316.054 188.603 314.35 188.975C312.867 189.299 311.4 188.516 310.802 187.178C308.188 181.334 305.776 175.447 303.571 169.448C301.367 163.416 299.269 157.472 297.606 150.896L297.056 148.323L296.597 145.992L295.697 141.327C295.117 138.214 294.525 135.103 293.985 131.983C292.867 125.751 291.864 119.5 290.983 113.23C290.494 109.749 292.907 106.528 296.372 106.037C299.771 105.555 302.92 107.878 303.501 111.252L303.505 111.271Z" fill="#FFB573"/>
<path d="M308.755 124.149L306.686 127.481L303.279 132.993L298.714 119.642L293.385 104.066C305.708 105.613 305.494 114.424 308.755 124.149Z" fill="#0085D0"/>
<path opacity="0.2" d="M306.688 127.481L303.282 132.993L298.717 119.642C298.942 119.077 299.178 118.513 299.448 117.948C299.448 117.948 303.889 119.755 306.688 127.481Z" fill="black"/>
<path d="M305.418 257.93C304.788 290.867 300.403 359.7 303.405 367.46C303.124 369.12 297.277 368.94 295.816 367.788C295.816 367.788 282.087 325.204 283.02 280.012C283.178 272.015 283.796 263.939 285.044 255.998C283.448 250.667 282.042 245.528 280.806 240.603C268.685 192.44 272.44 164.236 272.44 164.236L302.539 164.27C309.713 190.204 309.297 223.118 305.418 257.93Z" fill="#263238"/>
<path opacity="0.2" d="M283.02 280.012C283.177 272.015 283.795 263.939 285.043 255.998C283.447 250.667 282.041 245.527 280.805 240.603C283.492 225.399 285.831 213.325 285.831 213.325C285.831 213.325 293.206 243.822 283.02 280.012Z" fill="black"/>
<path d="M286.171 58.1259C286.171 58.1259 283.187 48.9079 268.735 52.4964C255.175 55.8646 249.77 66.7227 249.316 75.4528C248.573 89.6984 262.616 92.5245 262.616 92.5245C262.616 92.5245 278.784 92.9029 284.565 91.9349C290.345 90.9657 294.721 86.1732 294.609 81.2823C294.609 81.2823 295.339 82.771 295.073 85.3294C295.073 85.3294 297.689 81.5557 295.178 71.9152C291.511 57.8458 286.171 58.1259 286.171 58.1259Z" fill="#263238"/>
<path d="M255.854 60.5664C255.854 60.5664 241.073 76.7875 256.392 91.3697C256.392 91.3697 244.565 77.6731 255.854 60.5664Z" fill="#263238"/>
<path d="M267.079 53.5879C251.024 60.0556 244.167 72.9638 249.758 85.3761" stroke="#263238" stroke-width="0.5" stroke-miterlimit="10" stroke-linecap="round" stroke-linejoin="round"/>
<path d="M297.517 78.9667C295.452 57.0528 285.539 58.4252 285.539 58.4252" stroke="#263238" stroke-width="0.5" stroke-miterlimit="10" stroke-linecap="round" stroke-linejoin="round"/>
<path d="M250.574 111.436C252.703 104.933 268.033 99.8799 274.289 99.61C282.118 99.2723 298.321 106.236 301.232 110.135C304.144 114.034 279.904 136.702 272.088 136.296C264.271 135.889 258.889 131.501 255.077 125.702C251.267 119.904 250.574 111.436 250.574 111.436Z" fill="#FFB573"/>
<path d="M316.273 184.186L319.583 194.641L310.14 196.051C310.14 196.051 306.804 189.069 311.147 184.404L316.273 184.186Z" fill="#FFB573"/>
<path d="M318.186 202.323L310.897 201.681L310.141 196.051L319.584 194.642L318.186 202.323Z" fill="#FFB573"/>
<path d="M293.686 163.12C293.686 163.12 285.678 226.919 283.257 258.051C280.713 290.747 278.845 345.398 283.399 366.31C281.761 367.592 278.492 368.136 274.764 367.483C274.764 367.483 251.449 298.242 261.378 262.311C245.439 187.7 263.887 164.41 263.887 164.41L293.686 163.12Z" fill="#263238"/>
<path d="M292.258 374.968C284.495 374.968 285.047 374.847 280.673 374.7C276.928 374.566 276.069 375.035 273.062 374.968C270.55 374.914 270.468 372.502 271.041 369.728C271.259 368.664 271.588 367.419 271.896 365.887C272.074 365.003 272.826 364.382 273.739 364.382H282.822C283.483 364.382 284.136 364.698 284.539 365.253C286.45 367.882 289.573 369.813 293.563 370.346C297.78 370.907 295.354 374.968 292.258 374.968Z" fill="#0085D0"/>
<path d="M269.31 89.5402C270.311 92.6916 271.087 96.0914 271.121 99.0056C271.143 101.129 270.772 103.004 269.805 104.36C269.805 104.36 272.526 111.668 281.566 109.454C288.863 107.658 287.12 103.524 287.12 103.524C280.228 100.44 280.52 96.0462 280.633 91.2909C280.644 91.2119 280.644 91.1441 280.644 91.065L274.752 87.6313L266.859 83.0454C267.646 84.8414 268.546 87.123 269.31 89.5402Z" fill="#FFB573"/>
<path d="M312.511 374.968C304.748 374.968 305.3 374.847 300.927 374.7C297.182 374.566 296.323 375.035 293.316 374.968C290.804 374.914 290.722 372.502 291.295 369.728C291.513 368.664 291.842 367.419 292.15 365.887C292.328 365.003 293.08 364.382 293.993 364.382H303.076C303.736 364.382 304.389 364.698 304.792 365.253C306.704 367.882 309.827 369.813 313.817 370.346C318.032 370.907 315.605 374.968 312.511 374.968Z" fill="#0085D0"/>
<path d="M261.955 102.738C261.955 102.738 266.484 107.031 268.936 123.611L271.518 123.052C271.518 123.052 269.524 110.371 263.53 102.133L261.955 102.738Z" fill="#263238"/>
<path d="M287.609 102.512C287.609 102.512 292.802 108.811 290.917 125.3L292.844 125.596C292.844 125.596 293.585 108.603 289.218 102.86L287.609 102.512Z" fill="#263238"/>
<path d="M301.708 164.733C297.537 167.432 275.792 167.455 261.85 166.258C257.96 165.286 260.681 156.171 260.793 142.809C260.827 140.041 260.737 137.105 260.444 134.01C260.051 129.559 259.241 124.804 257.791 119.845C286.653 114.966 290.791 108.2 293.388 104.066C299.021 105.975 303.136 107.816 304.351 114.774C305.014 118.614 305.014 123.573 304.856 132.88C304.868 140.753 307.184 163.084 301.708 164.733Z" fill="#0085D0"/>
<path opacity="0.2" d="M260.792 142.809C260.826 140.041 260.736 137.105 260.443 134.01C263.524 130.847 265.739 128.667 265.739 128.667C265.739 128.667 264.772 135.602 260.792 142.809Z" fill="black"/>
<path d="M274.529 146.072L284.565 141.747L286.879 151.052C286.879 151.052 280.287 155.065 275.243 151.175L274.529 146.072Z" fill="#FFB573"/>
<path d="M292.312 142.398L292.384 149.749L286.88 151.053L284.566 141.747L292.312 142.398Z" fill="#FFB573"/>
<path d="M262.197 115.754C260.922 120.803 259.675 126.159 258.513 131.397C257.342 136.664 256.245 141.95 255.272 147.25L254.911 149.238L254.821 149.735L254.782 149.951C254.782 149.94 254.781 149.929 254.776 149.918C254.758 149.879 254.757 149.718 254.694 149.493C254.613 149.007 254.093 148.168 253.659 147.932C253.276 147.672 253.173 147.769 253.37 147.849C253.744 148.045 254.776 148.201 255.843 148.234C256.933 148.286 258.146 148.236 259.378 148.137C264.348 147.716 269.738 146.689 274.931 145.638L275.056 145.613C276.766 145.268 278.433 146.38 278.776 148.098C279.061 149.524 278.344 150.919 277.117 151.55C271.979 154.189 266.816 156.347 260.968 157.804C259.494 158.148 257.982 158.45 256.329 158.63C254.663 158.78 252.918 158.886 250.625 158.407C249.494 158.151 248.102 157.696 246.638 156.583C245.903 156.004 245.197 155.246 244.645 154.343C244.105 153.442 243.741 152.452 243.561 151.535C243.387 150.632 243.349 149.777 243.394 149.051L243.435 148.505L243.464 148.208L243.517 147.681L243.728 145.576C244.306 139.962 245.148 134.394 246.16 128.859C247.207 123.299 248.4 117.903 249.999 112.313C250.965 108.934 254.475 106.982 257.838 107.953C261.133 108.904 263.066 112.309 262.233 115.624L262.197 115.754Z" fill="#FFB573"/>
<path d="M271.891 116.845C271.891 116.845 254.558 118.77 248.685 115.639L244.957 127.621C244.957 127.621 253.731 139.703 263.984 135.539C268.671 133.637 271.891 116.845 271.891 116.845Z" fill="#0085D0"/>
<path opacity="0.2" d="M269.311 89.5402C270.311 92.6916 271.087 96.0915 271.121 99.0057C276.855 98.2715 279.463 94.3407 280.633 91.291C280.644 91.2119 280.644 91.1442 280.644 91.0651L274.752 87.6313C272.908 88.0493 271.031 88.727 269.311 89.5402Z" fill="black"/>
<path d="M282.847 69.3905C284.228 79.4003 285.02 83.5965 281.18 89.9151C275.402 99.4189 263.148 99.5476 258.887 90.3036C255.052 81.9824 253.437 67.0117 262.059 60.6491C270.553 54.3802 281.466 59.3806 282.847 69.3905Z" fill="#FFB573"/>
<path d="M272.514 65.3033C279.925 70.2665 271.875 81.5561 282.349 77.5304C292.824 73.5048 283.478 59.8884 276.027 58.5872C268.577 57.286 272.514 65.3033 272.514 65.3033Z" fill="#263238"/>
<path d="M268.522 75.9613C268.673 76.796 268.376 77.5811 267.855 77.7144C267.334 77.8476 266.789 77.2795 266.637 76.4436C266.485 75.6078 266.783 74.8239 267.304 74.6895C267.825 74.5573 268.369 75.1255 268.522 75.9613Z" fill="#263238"/>
<path d="M258.756 78.6176C258.908 79.4523 258.61 80.2373 258.089 80.3706C257.569 80.5039 257.023 79.9357 256.872 79.0999C256.72 78.2652 257.018 77.4801 257.538 77.3457C258.059 77.2136 258.604 77.7828 258.756 78.6176Z" fill="#263238"/>
<path d="M257.777 77.3347L255.76 77.2466C255.76 77.2466 257.026 78.5625 257.777 77.3347Z" fill="#263238"/>
<path d="M261.736 79.2876C261.736 79.2876 261.04 83.2296 259.869 85.3452C261.107 86.1043 262.809 85.1758 262.809 85.1758L261.736 79.2876Z" fill="#ED893E"/>
<path d="M267.948 87.0882C267.549 87.27 267.113 87.4282 266.635 87.5513C266.505 87.584 266.381 87.5016 266.356 87.366C266.331 87.2316 266.413 87.0961 266.546 87.0611C270.037 86.1688 271.205 83.1868 271.217 83.1574C271.266 83.0253 271.405 82.9564 271.527 83.0027C271.648 83.049 271.707 83.1936 271.657 83.3246C271.612 83.4398 270.675 85.8412 267.948 87.0882Z" fill="#263238"/>
<path d="M286.784 78.1651C286.468 80.4197 285.29 82.1399 283.969 83.0153C281.982 84.3312 280.197 82.1377 280.085 79.3839C279.985 76.9046 280.9 73.2336 283.212 73.0608C285.493 72.8914 287.145 75.5876 286.784 78.1651Z" fill="#FFB573"/>
<path d="M269.762 70.778C269.64 70.821 269.506 70.8142 269.389 70.7475C267.562 69.7016 265.984 70.5894 265.966 70.5996C265.732 70.7317 265.445 70.6482 265.328 70.4053C265.212 70.1625 265.309 69.8552 265.544 69.7185C265.626 69.6711 267.607 68.5563 269.875 69.8541C270.101 69.984 270.175 70.289 270.043 70.5363C269.976 70.6538 269.875 70.7385 269.762 70.778Z" fill="#263238"/>
<path d="M255.077 74.7669C254.965 74.8144 254.838 74.82 254.722 74.7703C254.483 74.6687 254.377 74.3772 254.487 74.1186C255.59 71.5274 257.768 71.0271 257.861 71.0067C258.122 70.9503 258.365 71.1242 258.404 71.3964C258.444 71.6675 258.264 71.9341 258.003 71.9917C257.917 72.0098 256.232 72.4232 255.356 74.4846C255.299 74.6178 255.195 74.7161 255.077 74.7669Z" fill="#263238"/>
<path d="M267.541 74.6779L265.523 74.5898C265.523 74.5898 266.789 75.9046 267.541 74.6779Z" fill="#263238"/>
<path d="M275.582 68.9546C275.582 68.9546 270.288 65.6982 269.594 59.6315C269.594 59.6315 259.708 61.9448 256.097 71.4486C256.097 71.4486 250.486 60.3059 263.388 55.9832C276.29 51.6605 285.243 58.7449 284.043 64.0683C282.843 69.3907 275.582 68.9546 275.582 68.9546Z" fill="#263238"/>
<path d="M156.264 174.816C161.449 177.854 166.824 181.128 172.002 183.92C173.3 184.612 174.579 185.294 175.821 185.88C177.043 186.463 178.294 186.981 179.162 187.292C179.562 187.451 179.954 187.507 179.612 187.54C179.53 187.523 178.55 187.764 178.959 187.676C179.023 187.687 179.288 187.595 179.506 187.531C180.491 187.211 181.825 186.612 183.118 186.011C188.404 183.471 193.897 180.301 199.352 177.239C204.813 174.137 210.311 170.964 215.853 167.923L220.431 174.278C215.675 178.671 210.759 182.768 205.683 186.754C200.577 190.737 195.446 194.551 189.597 198.116C188.096 199.015 186.606 199.878 184.642 200.728C184.117 200.942 183.647 201.151 182.944 201.367L182.455 201.522C182.348 201.551 182.346 201.561 182.155 201.608L181.655 201.718C180.997 201.85 180.444 201.899 179.961 201.922C178.032 201.984 176.851 201.743 175.713 201.531C173.5 201.078 171.776 200.467 170.067 199.841C168.381 199.207 166.779 198.553 165.23 197.846C162.132 196.437 159.184 194.93 156.303 193.332C153.415 191.711 150.654 190.091 147.836 188.2L156.264 174.816Z" fill="#FFC3BD"/>
<path d="M215.986 167.947L222.758 165.482L224.204 176.702C224.204 176.702 218.851 178.022 215.215 174.999L215.986 167.947Z" fill="#FFC3BD"/>
<path d="M232.416 162.659L231.771 172.689L224.205 176.7L222.758 165.482L232.416 162.659Z" fill="#FFC3BD"/>
<path d="M199.824 147.125C199.669 147.899 199.952 148.609 200.456 148.711C200.959 148.812 201.493 148.268 201.649 147.493C201.804 146.719 201.52 146.009 201.017 145.907C200.512 145.806 199.978 146.351 199.824 147.125Z" fill="#263238"/>
<path d="M199.882 148.596C199.882 148.596 200.741 153.417 202.239 155.96C200.619 156.963 198.418 155.911 198.418 155.911L199.882 148.596Z" fill="#ED847E"/>
<path d="M197.863 142.257C197.76 142.213 197.672 142.132 197.622 142.021C197.516 141.788 197.619 141.513 197.852 141.408C200.178 140.347 201.986 141.477 202.065 141.526C202.28 141.664 202.343 141.951 202.206 142.167C202.068 142.381 201.781 142.443 201.57 142.31C201.511 142.273 200.089 141.408 198.233 142.253C198.112 142.308 197.978 142.306 197.863 142.257Z" fill="#263238"/>
<path d="M175.394 148.594C173.913 155.739 170.124 168.376 163.681 170.834C163.681 170.834 162.668 178.29 174.876 183.459C188.3 189.143 184.1 179.481 184.1 179.481C177.511 174.621 179.992 169.24 183.419 164.652L175.394 148.594Z" fill="#FFC3BD"/>
<path d="M160.52 170.937C160.309 168.689 160.108 166.131 162.619 166.422C165.382 166.74 181.743 172.087 185.816 175.411C183.321 177.356 184.421 181.51 184.421 181.51L160.52 170.937Z" fill="#0085D0"/>
<path d="M147.545 167.702C147.545 167.702 134.427 174.679 123.705 240.55C138.662 245.364 166.067 254.186 173.346 256.527C175.901 249.701 181.905 214.321 199.679 184.001C199.679 184.001 191.666 179.707 183.67 176.742C177.416 174.422 168.291 171.282 162.568 169.952C155.022 168.196 147.545 167.702 147.545 167.702Z" fill="#0085D0"/>
<path opacity="0.6" d="M123.703 240.557L173.355 256.539C174.839 252.552 177.492 238.851 182.99 222.111C184.834 216.464 187.016 210.466 189.568 204.367C192.435 197.567 195.774 190.665 199.676 183.99C199.676 183.99 191.67 179.709 183.665 176.738C177.414 174.423 168.295 171.283 162.572 169.95C155.016 168.188 147.539 167.702 147.539 167.702C147.539 167.702 145.066 169.012 141.378 175.914C139.107 180.195 136.375 186.577 133.474 196.121C130.281 206.648 126.874 221.004 123.703 240.557Z" fill="#FAFAFA"/>
<path d="M174.449 140.294C173.128 149.92 171.868 155.486 175.672 161.331C181.393 170.125 193.947 168.129 198.105 159.094C201.847 150.961 203.379 136.587 194.871 130.931C186.49 125.362 175.771 130.669 174.449 140.294Z" fill="#FFC3BD"/>
<path d="M172.483 156.07C175.262 159.724 191.557 158.343 193.289 146.522C193.289 146.522 200.95 142.533 203.219 135.513C205.488 128.493 201.94 123.947 196.405 123.316C191.525 122.759 190.648 125.202 190.648 125.202C190.648 125.202 169.107 118.94 169.971 129.175C157.779 134.786 169.018 151.51 172.483 156.07Z" fill="#263238"/>
<path d="M170.255 130.116C170.255 130.116 169.594 124.829 165.029 125.699C166.7 126.437 169.329 127.889 170.255 130.116Z" fill="#263238"/>
<path d="M200.691 139.703C200.691 139.703 209.421 131.454 203.816 125.236C204.789 129.518 203.842 135.365 200.691 139.703Z" fill="#263238"/>
<path d="M188.943 146.859C188.577 149.377 189.242 151.957 190.309 153.777C191.914 156.514 194.381 155.534 195.328 152.806C196.182 150.351 196.376 145.969 194.096 144.168C191.849 142.395 189.363 143.98 188.943 146.859Z" fill="#FFC3BD"/>
<path d="M195.476 366.191C196.597 366.191 197.68 366.036 198.042 365.53C198.169 365.352 198.269 365.052 198.025 364.622C197.889 364.381 197.667 364.217 197.369 364.136C195.917 363.738 192.864 365.486 192.735 365.56C192.66 365.603 192.62 365.688 192.633 365.774C192.647 365.86 192.713 365.927 192.798 365.944C193.354 366.056 194.431 366.191 195.476 366.191ZM196.861 364.489C197.007 364.489 197.141 364.504 197.261 364.537C197.452 364.589 197.584 364.684 197.666 364.827C197.812 365.085 197.759 365.213 197.707 365.287C197.301 365.854 195.094 365.867 193.47 365.636C194.278 365.219 195.84 364.489 196.861 364.489Z" fill="#0085D0"/>
<path d="M192.839 365.949C192.868 365.949 192.896 365.944 192.923 365.931C193.978 365.456 196.064 363.559 195.905 362.568C195.866 362.335 195.702 362.045 195.135 361.987C194.711 361.944 194.326 362.064 193.988 362.344C192.877 363.26 192.642 365.623 192.632 365.723C192.625 365.797 192.658 365.869 192.717 365.912C192.754 365.936 192.796 365.949 192.839 365.949ZM194.969 362.394C195.01 362.394 195.051 362.396 195.094 362.4C195.466 362.439 195.49 362.586 195.498 362.634C195.593 363.23 194.175 364.72 193.099 365.37C193.212 364.68 193.522 363.266 194.252 362.665C194.471 362.482 194.707 362.394 194.969 362.394Z" fill="#0085D0"/>
<path d="M182.277 365.333L190.394 368.567L198.658 350.007L190.541 346.772L182.277 365.333Z" fill="#FFC3BD"/>
<path d="M191.912 364.726H182.376C182.019 364.726 181.711 364.974 181.633 365.324L179.908 373.121C179.729 373.929 180.34 374.696 181.164 374.681C184.604 374.622 189.574 374.42 193.897 374.42C198.953 374.42 203.318 374.697 209.246 374.697C212.83 374.697 213.825 371.057 212.324 370.727C205.494 369.226 199.917 369.065 194.014 365.409C193.375 365.011 192.665 364.726 191.912 364.726Z" fill="#263238"/>
<path d="M123.703 240.546L133.552 290.324C136.341 291.984 140.625 293.058 145.729 293.713C155.725 294.989 168.857 294.684 180.168 294.131C192.873 293.521 203.262 292.583 204.274 293.216C206.647 294.707 184.722 355.294 184.722 355.294L198.169 355.588C198.169 355.588 228.156 303.912 230.967 286.743C232.001 280.407 232.889 272.511 220.881 266.457C210.312 261.126 172.882 260.166 172.882 260.166L174.85 251.299L123.703 240.546Z" fill="#263238"/>
<path opacity="0.2" d="M145.73 293.713C155.726 294.989 168.858 294.684 180.169 294.131C179.798 275.426 168.69 258.584 168.69 258.584L155.13 256.54L145.73 293.713Z" fill="black"/>
<path d="M40.8184 349.862L40.2832 358.617L60.4114 360.735L60.9466 351.98L40.8184 349.862Z" fill="#FFC3BD"/>
<path d="M38.5076 361.293C38.0207 362.308 37.6891 363.353 37.9848 363.901C38.0882 364.093 38.3153 364.315 38.8067 364.281C39.0821 364.263 39.325 364.133 39.5274 363.899C40.5157 362.757 40.2762 359.236 40.265 359.087C40.2582 359.001 40.1997 358.928 40.1177 358.903C40.0345 358.878 39.9456 358.909 39.8939 358.977C39.5499 359.433 38.9607 360.349 38.5076 361.293ZM39.4307 363.286C39.3677 363.417 39.2958 363.533 39.2137 363.627C39.0833 363.777 38.9416 363.855 38.7774 363.866C38.4828 363.887 38.3918 363.783 38.3479 363.702C38.0162 363.088 38.9641 361.086 39.8771 359.718C39.8984 360.632 39.8737 362.363 39.4307 363.286Z" fill="#0085D0"/>
<path d="M39.8708 359.011C39.8584 359.037 39.8517 359.066 39.8506 359.096C39.818 360.256 40.6106 362.969 41.5697 363.256C41.7946 363.323 42.1263 363.3 42.4254 362.812C42.6491 362.447 42.7076 362.048 42.6041 361.62C42.2657 360.217 40.2497 358.976 40.1643 358.923C40.1013 358.885 40.0226 358.884 39.9585 358.919C39.9192 358.941 39.8888 358.974 39.8708 359.011ZM42.1319 362.486C42.1139 362.523 42.0937 362.559 42.0723 362.595C41.8767 362.915 41.735 362.873 41.6878 362.859C41.1132 362.687 40.3925 360.755 40.279 359.499C40.849 359.9 41.9812 360.797 42.2027 361.718C42.2691 361.996 42.2455 362.248 42.1319 362.486Z" fill="#0085D0"/>
<path d="M41.371 358.707L45.5165 350.08C45.6716 349.757 45.5828 349.37 45.3029 349.147L39.0638 344.197C38.4173 343.684 37.465 343.903 37.1187 344.654C35.6761 347.791 33.6961 352.377 31.8162 356.287C29.6181 360.861 27.4717 364.69 24.8947 370.053C23.3363 373.296 26.1675 375.778 27.1153 374.564C31.4306 369.037 33.9997 364.062 39.8441 360.312C40.4794 359.904 41.0438 359.388 41.371 358.707Z" fill="#263238"/>
<path d="M123.574 239.921C123.574 239.921 115.319 276.503 133.556 290.323C133.556 290.323 129.811 340.176 122.536 345.398C113.684 351.752 52.824 349.863 52.824 349.863L52.0527 365.742C52.0527 365.742 116.431 377.22 136.669 371.591C160.367 364.999 174.851 251.3 174.851 251.3L123.574 239.921Z" fill="#263238"/>
<path opacity="0.2" d="M144.677 263.874L134.713 261.933C134.713 261.933 134.238 270.423 134.713 274.892L139.59 278.296L143.691 276.502C143.691 276.502 143.936 267.455 144.677 263.874Z" fill="black"/>
<path d="M171.667 251.661L170.824 255.783L174.512 256.529L175.367 252.44L171.667 251.661Z" fill="black"/>
<path d="M154.633 248.046L153.711 252.327L168.98 255.41L169.879 251.276L154.633 248.046Z" fill="black"/>
<path d="M135.608 244.014L134.709 248.487L151.777 251.932L152.665 247.628L135.608 244.014Z" fill="black"/>
<path d="M122.207 245.956L132.72 248.079H132.731L133.653 243.595L123.208 241.381L122.207 245.956Z" fill="black"/>
<path opacity="0.2" d="M182.991 222.112C184.835 216.465 187.017 210.467 189.569 204.367C188.208 201.95 186.106 200.617 183.081 201.465C183.081 201.465 178.494 211.958 182.991 222.112Z" fill="black"/>
<path d="M203.309 191.533L203.23 193.622L203.173 195.856C203.156 197.355 203.133 198.86 203.152 200.364C203.171 203.373 203.298 206.375 203.5 209.346C203.935 215.276 204.796 221.113 206.409 226.398C208.004 231.525 210.764 236.785 214.016 241.879C217.221 246.981 221.009 252.057 224.767 256.847L219.553 262.686C216.683 260.689 214.175 258.608 211.659 256.35C209.167 254.103 206.792 251.708 204.516 249.168C202.277 246.6 200.093 243.918 198.153 240.969C196.192 238.053 194.378 234.853 192.975 231.404C191.555 228.013 190.515 224.579 189.715 221.144C188.892 217.713 188.335 214.277 187.932 210.85C187.532 207.424 187.316 204.004 187.25 200.589C187.224 198.881 187.216 197.174 187.276 195.46C187.306 194.603 187.332 193.745 187.389 192.879C187.448 191.986 187.503 191.204 187.602 190.159L203.309 191.533Z" fill="#FFC3BD"/>
<path d="M183.524 192.477C177.526 204.203 187.907 221.908 187.907 221.908L206.278 216.25C206.278 216.25 205.346 200.003 202.669 190.021C199.363 177.69 188.09 183.549 183.524 192.477Z" fill="#0085D0"/>
<path opacity="0.6" d="M183.524 192.477C177.526 204.203 187.907 221.908 187.907 221.908L206.278 216.25C206.278 216.25 205.346 200.003 202.669 190.021C199.363 177.69 188.09 183.549 183.524 192.477Z" fill="#FAFAFA"/>
<path d="M206.842 213.824L184.725 218.276L186.612 222.921L207.534 217.215L206.842 213.824Z" fill="#0085D0"/>
<path d="M125.695 377.908L127.832 381.297H179.518C180.328 381.297 181.137 381.263 181.936 381.195C182.127 381.195 182.329 381.173 182.52 381.15C184.207 381.003 185.86 380.721 187.49 380.303C187.67 380.258 187.85 380.212 188.03 380.145H188.041C189.334 379.806 190.616 379.377 191.864 378.857C192.111 378.755 192.358 378.654 192.617 378.575C192.786 378.496 192.965 378.428 193.145 378.371C194.495 377.874 195.889 377.49 197.294 377.219C197.474 377.174 197.665 377.14 197.856 377.118C199.082 376.892 200.319 376.756 201.567 376.7C201.758 376.688 201.938 376.677 202.129 376.688C202.399 376.666 202.657 376.666 202.927 376.666H214.722C214.879 376.666 215.025 376.666 215.183 376.654C215.374 376.654 215.565 376.643 215.756 376.643C217.117 376.564 218.443 376.35 219.725 376.011C219.905 375.954 220.085 375.909 220.265 375.841C221.614 375.446 222.896 374.904 224.099 374.237C224.256 374.147 224.425 374.045 224.582 373.944C225.56 373.379 226.471 372.712 227.326 371.978C227.472 371.854 227.618 371.73 227.753 371.594C228.45 370.95 229.102 370.261 229.698 369.538C229.822 369.392 229.945 369.245 230.058 369.087C230.586 368.398 231.081 367.675 231.508 366.907C231.61 366.749 231.699 366.579 231.789 366.41C232.172 365.698 232.52 364.964 232.801 364.196C232.88 364.026 232.948 363.846 233.004 363.665C233.319 362.773 233.577 361.835 233.757 360.886C233.791 360.694 233.825 360.514 233.858 360.322C233.993 359.497 234.072 358.661 234.094 357.814C234.106 357.622 234.106 357.441 234.106 357.249V162.666H230.733V357.204C230.733 366.071 223.548 373.277 214.722 373.277H202.927C198.677 373.277 194.517 374.102 190.582 375.717C187.063 377.174 183.33 377.908 179.518 377.908H125.695Z" fill="#0085D0"/>
<path d="M234.106 163.953H232.318V164.518H234.106V163.953Z" fill="#263238"/>
<path d="M234.106 167.025H232.318V167.59H234.106V167.025Z" fill="#263238"/>
<path d="M234.106 170.087H232.318V170.652H234.106V170.087Z" fill="#263238"/>
<path d="M234.106 173.159H232.318V173.723H234.106V173.159Z" fill="#263238"/>
<path d="M234.106 176.231H232.318V176.796H234.106V176.231Z" fill="#263238"/>
<path d="M234.106 179.292H232.318V179.857H234.106V179.292Z" fill="#263238"/>
<path d="M234.106 182.365H232.318V182.93H234.106V182.365Z" fill="#263238"/>
<path d="M234.106 185.437H232.318V186.001H234.106V185.437Z" fill="#263238"/>
<path d="M234.106 188.498H232.318V189.063H234.106V188.498Z" fill="#263238"/>
<path d="M234.106 191.57H232.318V192.135H234.106V191.57Z" fill="#263238"/>
<path d="M234.106 194.631H232.318V195.196H234.106V194.631Z" fill="#263238"/>
<path d="M234.106 197.703H232.318V198.268H234.106V197.703Z" fill="#263238"/>
<path d="M234.106 200.775H232.318V201.34H234.106V200.775Z" fill="#263238"/>
<path d="M234.106 203.837H232.318V204.402H234.106V203.837Z" fill="#263238"/>
<path d="M234.106 206.909H232.318V207.474H234.106V206.909Z" fill="#263238"/>
<path d="M234.106 209.981H232.318V210.546H234.106V209.981Z" fill="#263238"/>
<path d="M234.106 213.042H232.318V213.607H234.106V213.042Z" fill="#263238"/>
<path d="M234.106 216.115H232.318V216.68H234.106V216.115Z" fill="#263238"/>
<path d="M234.106 219.187H232.318V219.752H234.106V219.187Z" fill="#263238"/>
<path d="M234.106 222.249H232.318V222.813H234.106V222.249Z" fill="#263238"/>
<path d="M234.106 225.32H232.318V225.885H234.106V225.32Z" fill="#263238"/>
<path d="M234.106 228.381H232.318V228.946H234.106V228.381Z" fill="#263238"/>
<path d="M234.106 231.454H232.318V232.019H234.106V231.454Z" fill="#263238"/>
<path d="M234.106 234.526H232.318V235.091H234.106V234.526Z" fill="#263238"/>
<path d="M234.106 237.587H232.318V238.152H234.106V237.587Z" fill="#263238"/>
<path d="M234.106 240.659H232.318V241.224H234.106V240.659Z" fill="#263238"/>
<path d="M234.106 243.732H232.318V244.297H234.106V243.732Z" fill="#263238"/>
<path d="M234.106 246.792H232.318V247.357H234.106V246.792Z" fill="#263238"/>
<path d="M234.106 249.865H232.318V250.43H234.106V249.865Z" fill="#263238"/>
<path d="M234.106 252.938H232.318V253.502H234.106V252.938Z" fill="#263238"/>
<path d="M234.106 255.998H232.318V256.562H234.106V255.998Z" fill="#263238"/>
<path d="M234.106 259.071H232.318V259.636H234.106V259.071Z" fill="#263238"/>
<path d="M234.106 262.131H232.318V262.696H234.106V262.131Z" fill="#263238"/>
<path d="M234.106 265.204H232.318V265.768H234.106V265.204Z" fill="#263238"/>
<path d="M234.106 268.275H232.318V268.84H234.106V268.275Z" fill="#263238"/>
<path d="M234.106 271.337H232.318V271.902H234.106V271.337Z" fill="#263238"/>
<path d="M234.106 274.409H232.318V274.974H234.106V274.409Z" fill="#263238"/>
<path d="M234.106 277.481H232.318V278.046H234.106V277.481Z" fill="#263238"/>
<path d="M234.106 280.543H232.318V281.108H234.106V280.543Z" fill="#263238"/>
<path d="M234.106 283.615H232.318V284.18H234.106V283.615Z" fill="#263238"/>
<path d="M234.106 286.688H232.318V287.252H234.106V286.688Z" fill="#263238"/>
<path d="M234.106 289.749H232.318V290.313H234.106V289.749Z" fill="#263238"/>
<path d="M234.106 292.82H232.318V293.385H234.106V292.82Z" fill="#263238"/>
<path d="M234.106 295.881H232.318V296.446H234.106V295.881Z" fill="#263238"/>
<path d="M234.106 298.954H232.318V299.519H234.106V298.954Z" fill="#263238"/>
<path d="M234.106 302.026H232.318V302.591H234.106V302.026Z" fill="#263238"/>
<path d="M234.106 305.087H232.318V305.652H234.106V305.087Z" fill="#263238"/>
<path d="M234.106 308.159H232.318V308.724H234.106V308.159Z" fill="#263238"/>
<path d="M234.106 311.231H232.318V311.796H234.106V311.231Z" fill="#263238"/>
<path d="M234.106 314.293H232.318V314.858H234.106V314.293Z" fill="#263238"/>
<path d="M234.106 317.365H232.318V317.93H234.106V317.365Z" fill="#263238"/>
<path d="M234.106 320.427H232.318V320.992H234.106V320.427Z" fill="#263238"/>
<path d="M234.106 323.499H232.318V324.064H234.106V323.499Z" fill="#263238"/>
<path d="M234.106 326.57H232.318V327.135H234.106V326.57Z" fill="#263238"/>
<path d="M234.106 329.632H232.318V330.197H234.106V329.632Z" fill="#263238"/>
<path d="M234.106 332.704H232.318V333.269H234.106V332.704Z" fill="#263238"/>
<path d="M234.106 335.776H232.318V336.341H234.106V335.776Z" fill="#263238"/>
<path d="M234.106 338.838H232.318V339.403H234.106V338.838Z" fill="#263238"/>
<path d="M234.106 341.91H232.318V342.475H234.106V341.91Z" fill="#263238"/>
<path d="M234.106 344.971H232.318V345.535H234.106V344.971Z" fill="#263238"/>
<path d="M234.106 348.043H232.318V348.608H234.106V348.043Z" fill="#263238"/>
<path d="M234.106 351.115H232.318V351.68H234.106V351.115Z" fill="#263238"/>
<path d="M234.106 354.177H232.318V354.742H234.106V354.177Z" fill="#263238"/>
<path d="M232.318 357.249V357.814H234.095C234.106 357.622 234.106 357.441 234.106 357.249H232.318Z" fill="#263238"/>
<path d="M232.318 360.321V360.886H233.758C233.791 360.694 233.825 360.513 233.859 360.321H232.318Z" fill="#263238"/>
<path d="M231.514 363.89L232.795 364.195C232.874 364.026 232.942 363.845 232.998 363.664L231.649 363.337L231.514 363.89Z" fill="#263238"/>
<path d="M229.752 366.15L231.506 366.907C231.607 366.749 231.697 366.58 231.787 366.41L229.977 365.631L229.752 366.15Z" fill="#263238"/>
<path d="M228.18 368.883L229.698 369.538C229.821 369.391 229.945 369.244 230.057 369.086L228.393 368.363L228.18 368.883Z" fill="#263238"/>
<path d="M225.963 370.994L227.323 371.977C227.47 371.853 227.616 371.729 227.751 371.593L226.289 370.531L225.963 370.994Z" fill="#263238"/>
<path d="M222.914 372.847L224.095 374.236C224.252 374.146 224.421 374.044 224.578 373.942L223.341 372.485L222.914 372.847Z" fill="#263238"/>
<path d="M218.992 374.417L219.723 376.01C219.903 375.953 220.083 375.908 220.263 375.84L219.498 374.18L218.992 374.417Z" fill="#263238"/>
<path d="M214.912 374.791L215.182 376.655C215.373 376.655 215.564 376.643 215.755 376.643L215.474 374.712L214.912 374.791Z" fill="#263238"/>
<path d="M209.953 376.665H210.515L210.572 374.734L210.009 374.723L209.953 376.665Z" fill="#263238"/>
<path d="M205.758 376.665H206.32L206.376 374.734L205.814 374.723L205.758 376.665Z" fill="#263238"/>
<path d="M201.564 376.699C201.756 376.688 201.935 376.677 202.127 376.688L202.194 374.734L201.632 374.723L201.564 376.699Z" fill="#263238"/>
<path d="M197.293 377.218C197.473 377.173 197.664 377.139 197.855 377.117L197.911 375.355L197.349 375.332L197.293 377.218Z" fill="#263238"/>
<path d="M192.211 376.869L192.616 378.575C192.784 378.495 192.964 378.428 193.144 378.371L192.762 376.733L192.211 376.869Z" fill="#263238"/>
<path d="M186.711 378.303L187.487 380.303C187.667 380.258 187.847 380.212 188.026 380.145L187.239 378.089L186.711 378.303Z" fill="#263238"/>
<path d="M181.045 378.903L181.933 381.195C182.124 381.195 182.327 381.173 182.518 381.15L181.573 378.699L181.045 378.903Z" fill="#263238"/>
<path d="M176.379 378.903L177.301 381.297H177.919L176.907 378.699L176.379 378.903Z" fill="#263238"/>
<path d="M171.727 378.903L172.649 381.297H173.256L172.244 378.699L171.727 378.903Z" fill="#263238"/>
<path d="M167.059 378.903L167.981 381.297H168.588L167.587 378.699L167.059 378.903Z" fill="#263238"/>
<path d="M162.389 378.903L163.311 381.297H163.929L162.917 378.699L162.389 378.903Z" fill="#263238"/>
<path d="M157.729 378.903L158.65 381.297H159.269L158.257 378.699L157.729 378.903Z" fill="#263238"/>
<path d="M153.07 378.903L153.992 381.297H154.599L153.588 378.699L153.07 378.903Z" fill="#263238"/>
<path d="M148.406 378.903L149.328 381.297H149.935L148.935 378.699L148.406 378.903Z" fill="#263238"/>
<path d="M143.74 378.903L144.662 381.297H145.281L144.269 378.699L143.74 378.903Z" fill="#263238"/>
<path d="M139.074 378.903L139.996 381.297H140.615L139.603 378.699L139.074 378.903Z" fill="#263238"/>
<path d="M134.42 378.903L135.342 381.297H135.949L134.937 378.699L134.42 378.903Z" fill="#263238"/>
<path d="M129.752 378.903L130.674 381.297H131.281L130.28 378.699L129.752 378.903Z" fill="#263238"/>
<path d="M224.217 256.414L232.89 265.017L224.288 271.336C224.288 271.336 217.383 266.177 219.264 259.303L224.217 256.414Z" fill="#FFC3BD"/>
<path d="M233.998 269.919L227.945 276.503L224.287 271.336L232.89 265.017L233.998 269.919Z" fill="#FFC3BD"/>
</svg>
