<svg width="26" height="22" viewBox="0 0 26 22" fill="none" xmlns="http://www.w3.org/2000/svg">
<mask id="path-1-outside-1_350_18377" maskUnits="userSpaceOnUse" x="0" y="-0.484619" width="26" height="23" fill="black">
<rect fill="white" y="-0.484619" width="26" height="23"/>
<path d="M24.7841 10.0557C24.7117 9.24184 24.0686 8.59817 23.2548 8.52522C22.4062 8.44913 21.5456 8.39245 20.6969 8.35678C20.3547 8.34225 20.0114 8.33146 19.6676 8.32354C19.6287 6.35652 19.5146 4.36479 19.326 2.39749C19.2492 1.59124 18.6095 0.950006 17.8047 0.872699C16.285 0.727182 14.742 0.624795 13.2185 0.568491C11.3091 0.497701 9.37294 0.497654 7.46363 0.568491C5.9401 0.624795 4.39707 0.727182 2.87724 0.872699C2.07263 0.950006 1.43285 1.59124 1.35611 2.39726C0.881298 7.34795 0.881298 12.3683 1.35611 17.319C1.43336 18.1249 2.07436 18.7659 2.8802 18.8431C5.36206 19.081 7.86947 19.2006 10.3596 19.2006C10.9054 19.2006 11.4506 19.1945 11.9944 19.183C12.009 19.3681 12.0244 19.5531 12.0409 19.7379C12.1133 20.5523 12.7572 21.196 13.5717 21.2684C15.1805 21.4123 16.8035 21.4845 18.4217 21.4845C19.2694 21.4845 20.1161 21.4647 20.9582 21.425C21.1522 21.4159 21.302 21.2512 21.2929 21.0572C21.2838 20.8632 21.1185 20.7125 20.9251 20.7225C18.5074 20.8366 16.0544 20.7845 13.6341 20.5679C13.159 20.5257 12.7836 20.1504 12.7413 19.6754C12.4576 16.5045 12.4576 13.289 12.7413 10.1179C12.7836 9.64337 13.1586 9.26814 13.633 9.22557C14.3486 9.16139 15.0728 9.11217 15.7918 9.07687V13.6708C15.7918 14.0742 16.0351 14.4284 16.4114 14.5734C16.7877 14.7183 17.2058 14.6188 17.4766 14.3195L18.2166 13.4998C18.2849 13.4243 18.3688 13.413 18.4127 13.413C18.4566 13.413 18.5405 13.4243 18.6086 13.4995L19.3491 14.3198C19.5371 14.5276 19.7963 14.6391 20.0634 14.6391C20.1806 14.6391 20.2992 14.6176 20.414 14.5734C20.7904 14.4285 21.0336 14.0742 21.0336 13.6709V9.07696C21.7521 9.11221 22.4762 9.16148 23.192 9.22566C23.6664 9.26818 24.0414 9.64347 24.0836 10.1182C24.3678 13.289 24.3678 16.5045 24.0836 19.6756C24.0414 20.1505 23.6662 20.5257 23.1912 20.568C22.8995 20.594 22.6049 20.618 22.3153 20.6392C22.1217 20.6534 21.9762 20.8219 21.9904 21.0156C22.0046 21.2093 22.1731 21.3549 22.3668 21.3406C22.66 21.319 22.9584 21.2948 23.2536 21.2684C24.068 21.196 24.7117 20.5523 24.7841 19.7382C25.072 16.5256 25.072 13.2679 24.7841 10.0557ZM12.0409 10.0555C12.0408 10.0564 12.0408 10.0572 12.0407 10.0581L11.1785 9.10382C10.9649 8.8675 10.6597 8.73196 10.341 8.73201C10.0224 8.73201 9.71713 8.86754 9.50345 9.10392L8.56926 10.1384C8.38741 10.3396 8.16463 10.2749 8.10069 10.2503C8.03674 10.2257 7.82822 10.1244 7.82822 9.8534V4.10911C7.82822 3.91493 7.67079 3.7575 7.47661 3.7575C7.28243 3.7575 7.12501 3.91493 7.12501 4.10911V9.8534C7.12501 10.3241 7.40882 10.7375 7.848 10.9066C7.98185 10.9581 8.12019 10.9831 8.25685 10.9831C8.5686 10.9831 8.87141 10.8528 9.09104 10.6099L10.0253 9.57535C10.1069 9.48501 10.2191 9.43522 10.341 9.43522C10.463 9.43522 10.5751 9.48496 10.6568 9.5753L11.5916 10.61C11.702 10.7322 11.8314 10.8252 11.9737 10.8884C11.7874 13.4107 11.7769 15.9559 11.9435 18.4805C8.9586 18.5424 5.934 18.4293 2.94724 18.1431C2.47604 18.0979 2.10127 17.7231 2.05608 17.2519C1.58554 12.3458 1.58554 7.3705 2.05608 2.46416C2.10099 1.99273 2.47458 1.61782 2.94438 1.57272C4.32942 1.4401 5.73382 1.34413 7.12496 1.28605V2.70264C7.12496 2.89682 7.28239 3.05424 7.47657 3.05424C7.67074 3.05424 7.82817 2.89682 7.82817 2.70264V1.26022C9.49745 1.20579 11.1845 1.20579 12.8538 1.26022V8.75817C12.4031 9.02834 12.0901 9.50254 12.0409 10.0555ZM13.5702 8.52522C13.5658 8.5256 13.5615 8.52625 13.5571 8.52667V1.28605C14.9482 1.34408 16.3526 1.44005 17.7375 1.57267C18.2075 1.61777 18.5811 1.99268 18.626 2.46435C18.8121 4.40558 18.925 6.37054 18.964 8.31144C18.0175 8.30183 17.069 8.31688 16.1287 8.35678C15.2792 8.3925 14.4185 8.44918 13.5702 8.52522ZM20.1613 13.9172C20.1216 13.9326 19.9834 13.9728 19.8708 13.8483L19.1304 13.0281C18.9474 12.8259 18.6859 12.7098 18.4128 12.7098C18.1397 12.7098 17.8781 12.8258 17.6949 13.0283L16.9549 13.8481C16.8422 13.9728 16.7039 13.9325 16.6642 13.9172C16.6245 13.902 16.4951 13.8391 16.4951 13.6709V9.04691C17.7694 9.00101 19.0561 9.00106 20.3304 9.04691V13.6709C20.3304 13.8391 20.201 13.902 20.1613 13.9172Z"/>
</mask>
<path d="M24.7841 10.0557C24.7117 9.24184 24.0686 8.59817 23.2548 8.52522C22.4062 8.44913 21.5456 8.39245 20.6969 8.35678C20.3547 8.34225 20.0114 8.33146 19.6676 8.32354C19.6287 6.35652 19.5146 4.36479 19.326 2.39749C19.2492 1.59124 18.6095 0.950006 17.8047 0.872699C16.285 0.727182 14.742 0.624795 13.2185 0.568491C11.3091 0.497701 9.37294 0.497654 7.46363 0.568491C5.9401 0.624795 4.39707 0.727182 2.87724 0.872699C2.07263 0.950006 1.43285 1.59124 1.35611 2.39726C0.881298 7.34795 0.881298 12.3683 1.35611 17.319C1.43336 18.1249 2.07436 18.7659 2.8802 18.8431C5.36206 19.081 7.86947 19.2006 10.3596 19.2006C10.9054 19.2006 11.4506 19.1945 11.9944 19.183C12.009 19.3681 12.0244 19.5531 12.0409 19.7379C12.1133 20.5523 12.7572 21.196 13.5717 21.2684C15.1805 21.4123 16.8035 21.4845 18.4217 21.4845C19.2694 21.4845 20.1161 21.4647 20.9582 21.425C21.1522 21.4159 21.302 21.2512 21.2929 21.0572C21.2838 20.8632 21.1185 20.7125 20.9251 20.7225C18.5074 20.8366 16.0544 20.7845 13.6341 20.5679C13.159 20.5257 12.7836 20.1504 12.7413 19.6754C12.4576 16.5045 12.4576 13.289 12.7413 10.1179C12.7836 9.64337 13.1586 9.26814 13.633 9.22557C14.3486 9.16139 15.0728 9.11217 15.7918 9.07687V13.6708C15.7918 14.0742 16.0351 14.4284 16.4114 14.5734C16.7877 14.7183 17.2058 14.6188 17.4766 14.3195L18.2166 13.4998C18.2849 13.4243 18.3688 13.413 18.4127 13.413C18.4566 13.413 18.5405 13.4243 18.6086 13.4995L19.3491 14.3198C19.5371 14.5276 19.7963 14.6391 20.0634 14.6391C20.1806 14.6391 20.2992 14.6176 20.414 14.5734C20.7904 14.4285 21.0336 14.0742 21.0336 13.6709V9.07696C21.7521 9.11221 22.4762 9.16148 23.192 9.22566C23.6664 9.26818 24.0414 9.64347 24.0836 10.1182C24.3678 13.289 24.3678 16.5045 24.0836 19.6756C24.0414 20.1505 23.6662 20.5257 23.1912 20.568C22.8995 20.594 22.6049 20.618 22.3153 20.6392C22.1217 20.6534 21.9762 20.8219 21.9904 21.0156C22.0046 21.2093 22.1731 21.3549 22.3668 21.3406C22.66 21.319 22.9584 21.2948 23.2536 21.2684C24.068 21.196 24.7117 20.5523 24.7841 19.7382C25.072 16.5256 25.072 13.2679 24.7841 10.0557ZM12.0409 10.0555C12.0408 10.0564 12.0408 10.0572 12.0407 10.0581L11.1785 9.10382C10.9649 8.8675 10.6597 8.73196 10.341 8.73201C10.0224 8.73201 9.71713 8.86754 9.50345 9.10392L8.56926 10.1384C8.38741 10.3396 8.16463 10.2749 8.10069 10.2503C8.03674 10.2257 7.82822 10.1244 7.82822 9.8534V4.10911C7.82822 3.91493 7.67079 3.7575 7.47661 3.7575C7.28243 3.7575 7.12501 3.91493 7.12501 4.10911V9.8534C7.12501 10.3241 7.40882 10.7375 7.848 10.9066C7.98185 10.9581 8.12019 10.9831 8.25685 10.9831C8.5686 10.9831 8.87141 10.8528 9.09104 10.6099L10.0253 9.57535C10.1069 9.48501 10.2191 9.43522 10.341 9.43522C10.463 9.43522 10.5751 9.48496 10.6568 9.5753L11.5916 10.61C11.702 10.7322 11.8314 10.8252 11.9737 10.8884C11.7874 13.4107 11.7769 15.9559 11.9435 18.4805C8.9586 18.5424 5.934 18.4293 2.94724 18.1431C2.47604 18.0979 2.10127 17.7231 2.05608 17.2519C1.58554 12.3458 1.58554 7.3705 2.05608 2.46416C2.10099 1.99273 2.47458 1.61782 2.94438 1.57272C4.32942 1.4401 5.73382 1.34413 7.12496 1.28605V2.70264C7.12496 2.89682 7.28239 3.05424 7.47657 3.05424C7.67074 3.05424 7.82817 2.89682 7.82817 2.70264V1.26022C9.49745 1.20579 11.1845 1.20579 12.8538 1.26022V8.75817C12.4031 9.02834 12.0901 9.50254 12.0409 10.0555ZM13.5702 8.52522C13.5658 8.5256 13.5615 8.52625 13.5571 8.52667V1.28605C14.9482 1.34408 16.3526 1.44005 17.7375 1.57267C18.2075 1.61777 18.5811 1.99268 18.626 2.46435C18.8121 4.40558 18.925 6.37054 18.964 8.31144C18.0175 8.30183 17.069 8.31688 16.1287 8.35678C15.2792 8.3925 14.4185 8.44918 13.5702 8.52522ZM20.1613 13.9172C20.1216 13.9326 19.9834 13.9728 19.8708 13.8483L19.1304 13.0281C18.9474 12.8259 18.6859 12.7098 18.4128 12.7098C18.1397 12.7098 17.8781 12.8258 17.6949 13.0283L16.9549 13.8481C16.8422 13.9728 16.7039 13.9325 16.6642 13.9172C16.6245 13.902 16.4951 13.8391 16.4951 13.6709V9.04691C17.7694 9.00101 19.0561 9.00106 20.3304 9.04691V13.6709C20.3304 13.8391 20.201 13.902 20.1613 13.9172Z" fill="#00113E"/>
<path d="M24.7841 10.0557L24.3856 10.0911L24.3857 10.0914L24.7841 10.0557ZM23.2548 8.52522L23.219 8.92362L23.2191 8.92362L23.2548 8.52522ZM20.6969 8.35678L20.6799 8.75642L20.6801 8.75642L20.6969 8.35678ZM19.6676 8.32354L19.2676 8.33144L19.2752 8.7146L19.6583 8.72343L19.6676 8.32354ZM19.326 2.39749L18.9278 2.43542L18.9279 2.43566L19.326 2.39749ZM17.8047 0.872699L17.8429 0.474532L17.8428 0.474521L17.8047 0.872699ZM13.2185 0.568491L13.2036 0.968216L13.2037 0.968218L13.2185 0.568491ZM7.46363 0.568491L7.4784 0.968218L7.47846 0.968216L7.46363 0.568491ZM2.87724 0.872699L2.83912 0.47452L2.83899 0.474533L2.87724 0.872699ZM1.35611 2.39726L1.75428 2.43545L1.7543 2.43517L1.35611 2.39726ZM1.35611 17.319L1.75428 17.2808L1.75428 17.2808L1.35611 17.319ZM2.8802 18.8431L2.91836 18.4449L2.91835 18.4449L2.8802 18.8431ZM11.9944 19.183L12.3932 19.1515L12.3634 18.7751L11.9859 18.7831L11.9944 19.183ZM12.0409 19.7379L12.4393 19.7025L12.4393 19.7022L12.0409 19.7379ZM13.5717 21.2684L13.6073 20.87L13.6071 20.8699L13.5717 21.2684ZM20.9582 21.425L20.9394 21.0254H20.9394L20.9582 21.425ZM21.2929 21.0572L21.6925 21.0385L21.6925 21.0384L21.2929 21.0572ZM20.9251 20.7225L20.944 21.1221L20.9459 21.122L20.9251 20.7225ZM13.6341 20.5679L13.6698 20.1695L13.6695 20.1694L13.6341 20.5679ZM12.7413 19.6754L13.1397 19.6399L13.1397 19.6397L12.7413 19.6754ZM12.7413 10.1179L13.1397 10.1536L13.1397 10.1534L12.7413 10.1179ZM13.633 9.22557L13.5973 8.82717L13.5972 8.82717L13.633 9.22557ZM15.7918 9.07687H16.1918V8.65674L15.7722 8.67735L15.7918 9.07687ZM16.4114 14.5734L16.2676 14.9467L16.2676 14.9467L16.4114 14.5734ZM17.4766 14.3195L17.7732 14.5879L17.7735 14.5875L17.4766 14.3195ZM18.2166 13.4998L17.92 13.2314L17.9197 13.2317L18.2166 13.4998ZM18.6086 13.4995L18.9055 13.2315L18.9052 13.2312L18.6086 13.4995ZM19.3491 14.3198L19.0521 14.5878L19.0524 14.5881L19.3491 14.3198ZM20.414 14.5734L20.5578 14.9467L20.5578 14.9467L20.414 14.5734ZM21.0336 9.07696L21.0532 8.67744L20.6336 8.65685V9.07696H21.0336ZM23.192 9.22566L23.1562 9.62407L23.1562 9.62407L23.192 9.22566ZM24.0836 10.1182L23.6852 10.1537L23.6852 10.1539L24.0836 10.1182ZM24.0836 19.6756L23.6852 19.6399L23.6852 19.6402L24.0836 19.6756ZM23.1912 20.568L23.1557 20.1695L23.1555 20.1696L23.1912 20.568ZM22.3153 20.6392L22.3446 21.0382L22.3153 20.6392ZM21.9904 21.0156L21.5915 21.0449V21.0449L21.9904 21.0156ZM22.3668 21.3406L22.3375 20.9416L22.3374 20.9417L22.3668 21.3406ZM23.2536 21.2684L23.2182 20.87L23.218 20.87L23.2536 21.2684ZM24.7841 19.7382L24.3857 19.7025L24.3856 19.7028L24.7841 19.7382ZM12.0409 10.0555L12.4388 10.0974L12.4393 10.091L12.0409 10.0555ZM12.0407 10.0581L11.7439 10.3263L12.3447 10.9913L12.4385 10.1L12.0407 10.0581ZM11.1785 9.10382L11.4753 8.83567L11.4753 8.83562L11.1785 9.10382ZM10.341 8.73201V9.13201H10.3411L10.341 8.73201ZM9.50345 9.10392L9.20673 8.83567L9.20658 8.83583L9.50345 9.10392ZM8.56926 10.1384L8.86602 10.4066L8.86613 10.4065L8.56926 10.1384ZM7.848 10.9066L7.70427 11.2799L7.7043 11.2799L7.848 10.9066ZM9.09104 10.6099L9.38776 10.8781L9.38791 10.878L9.09104 10.6099ZM10.0253 9.57535L9.72855 9.30711L9.72842 9.30726L10.0253 9.57535ZM10.6568 9.5753L10.36 9.84346L10.36 9.84346L10.6568 9.5753ZM11.5916 10.61L11.8884 10.3418L11.8884 10.3418L11.5916 10.61ZM11.9737 10.8884L12.3726 10.9178L12.3933 10.6371L12.1361 10.5228L11.9737 10.8884ZM11.9435 18.4805L11.9517 18.8804L12.3701 18.8718L12.3426 18.4542L11.9435 18.4805ZM2.94724 18.1431L2.9854 17.7449H2.98539L2.94724 18.1431ZM2.05608 17.2519L2.45425 17.2137L2.45425 17.2137L2.05608 17.2519ZM2.05608 2.46416L2.45425 2.50234L2.45428 2.50209L2.05608 2.46416ZM2.94438 1.57272L2.90625 1.17454L2.90615 1.17455L2.94438 1.57272ZM7.12496 1.28605H7.52496V0.868996L7.10827 0.886395L7.12496 1.28605ZM7.82817 1.26022L7.81514 0.860428L7.42817 0.873045V1.26022H7.82817ZM12.8538 1.26022H13.2538V0.873045L12.8668 0.860428L12.8538 1.26022ZM12.8538 8.75817L13.0595 9.10124L13.2538 8.98474V8.75817H12.8538ZM13.5702 8.52522L13.6041 8.92378L13.6059 8.92362L13.5702 8.52522ZM13.5571 8.52667H13.1571V8.9668L13.5952 8.92485L13.5571 8.52667ZM13.5571 1.28605L13.5738 0.886394L13.1571 0.86901V1.28605H13.5571ZM17.7375 1.57267L17.7757 1.1745L17.7757 1.1745L17.7375 1.57267ZM18.626 2.46435L18.2278 2.50226L18.2278 2.50251L18.626 2.46435ZM18.964 8.31144L18.9599 8.71142L19.3722 8.71561L19.3639 8.30341L18.964 8.31144ZM16.1287 8.35678L16.1455 8.75642L16.1456 8.75642L16.1287 8.35678ZM20.1613 13.9172L20.0175 13.544L20.0172 13.5441L20.1613 13.9172ZM19.8708 13.8483L19.5739 14.1164L19.5742 14.1166L19.8708 13.8483ZM19.1304 13.0281L19.4273 12.7601L19.427 12.7598L19.1304 13.0281ZM17.6949 13.0283L17.3983 12.76L17.398 12.7603L17.6949 13.0283ZM16.9549 13.8481L17.2516 14.1163L17.2518 14.1161L16.9549 13.8481ZM16.6642 13.9172L16.5204 14.2905L16.5209 14.2907L16.6642 13.9172ZM16.4951 9.04691L16.4807 8.64717L16.0951 8.66106V9.04691H16.4951ZM20.3304 9.04691H20.7304V8.66104L20.3448 8.64717L20.3304 9.04691ZM25.1825 10.0203C25.093 9.01361 24.2971 8.21705 23.2905 8.12682L23.2191 8.92362C23.84 8.97929 24.3304 9.47007 24.3856 10.0911L25.1825 10.0203ZM23.2905 8.12682C22.4357 8.05017 21.5687 7.99307 20.7137 7.95713L20.6801 8.75642C21.5225 8.79183 22.3768 8.8481 23.219 8.92362L23.2905 8.12682ZM20.7138 7.95714C20.3688 7.94248 20.0228 7.93162 19.6768 7.92365L19.6583 8.72343C20 8.73131 20.3407 8.74201 20.6799 8.75642L20.7138 7.95714ZM20.0675 8.31564C20.0284 6.3386 19.9137 4.33678 19.7242 2.35933L18.9279 2.43566C19.1154 4.3928 19.229 6.37444 19.2676 8.33144L20.0675 8.31564ZM19.7242 2.35957C19.6293 1.363 18.839 0.570214 17.8429 0.474532L17.7664 1.27087C18.3799 1.3298 18.8692 1.81948 18.9278 2.43542L19.7242 2.35957ZM17.8428 0.474521C16.3154 0.328261 14.7646 0.225356 13.2332 0.168764L13.2037 0.968218C14.7194 1.02423 16.2546 1.1261 17.7665 1.27088L17.8428 0.474521ZM13.2333 0.168765C11.3141 0.0976097 9.368 0.0975622 7.4488 0.168766L7.47846 0.968216C9.37788 0.897746 11.3042 0.897792 13.2036 0.968216L13.2333 0.168765ZM7.44885 0.168764C5.91751 0.225356 4.36669 0.328261 2.83912 0.47452L2.91537 1.27088C4.42745 1.1261 5.96269 1.02423 7.4784 0.968218L7.44885 0.168764ZM2.83899 0.474533C1.84309 0.570217 1.05277 1.36299 0.957907 2.35935L1.7543 2.43517C1.81293 1.81949 2.30217 1.32979 2.9155 1.27087L2.83899 0.474533ZM0.957933 2.35907C0.480689 7.33517 0.480689 12.3811 0.957933 17.3572L1.75428 17.2808C1.28191 12.3555 1.28191 7.36074 1.75428 2.43545L0.957933 2.35907ZM0.957931 17.3572C1.05348 18.3538 1.84545 19.1458 2.84204 19.2413L2.91835 18.4449C2.30328 18.386 1.81325 17.896 1.75428 17.2808L0.957931 17.3572ZM2.84203 19.2413C5.3366 19.4804 7.85675 19.6006 10.3596 19.6006V18.8006C7.8822 18.8006 5.38752 18.6816 2.91836 18.4449L2.84203 19.2413ZM10.3596 19.6006C10.9084 19.6006 11.4564 19.5945 12.0029 19.5829L11.9859 18.7831C11.4448 18.7945 10.9024 18.8006 10.3596 18.8006V19.6006ZM11.5957 19.2145C11.6104 19.4006 11.6258 19.587 11.6425 19.7736L12.4393 19.7022C12.4229 19.5192 12.4077 19.3356 12.3932 19.1515L11.5957 19.2145ZM11.6425 19.7733C11.7321 20.7807 12.5289 21.5773 13.5363 21.6668L13.6071 20.8699C12.9855 20.8147 12.4946 20.3239 12.4393 19.7025L11.6425 19.7733ZM13.536 21.6668C15.1567 21.8118 16.7917 21.8845 18.4217 21.8845V21.0845C16.8154 21.0845 15.2042 21.0129 13.6073 20.87L13.536 21.6668ZM18.4217 21.8845C19.2757 21.8845 20.1286 21.8646 20.9771 21.8246L20.9394 21.0254C20.1036 21.0649 19.2632 21.0845 18.4217 21.0845V21.8845ZM20.9771 21.8246C21.3918 21.805 21.7119 21.4529 21.6925 21.0385L20.8934 21.076C20.8921 21.0494 20.9126 21.0267 20.9394 21.0254L20.9771 21.8246ZM21.6925 21.0384C21.673 20.625 21.3212 20.3015 20.9044 20.3231L20.9459 21.122C20.9158 21.1236 20.8945 21.1014 20.8934 21.076L21.6925 21.0384ZM20.9063 20.323C18.5068 20.4361 16.072 20.3845 13.6698 20.1695L13.5984 20.9663C16.0368 21.1845 18.508 21.237 20.944 21.1221L20.9063 20.323ZM13.6695 20.1694C13.3873 20.1444 13.1648 19.9219 13.1397 19.6399L12.3429 19.7108C12.4023 20.3789 12.9308 20.907 13.5987 20.9663L13.6695 20.1694ZM13.1397 19.6397C12.8581 16.4926 12.8581 13.3009 13.1397 10.1536L12.3429 10.0823C12.0571 13.277 12.0571 16.5164 12.3429 19.711L13.1397 19.6397ZM13.1397 10.1534C13.1648 9.87162 13.3871 9.64924 13.6687 9.62397L13.5972 8.82717C12.93 8.88704 12.4023 9.41513 12.3429 10.0825L13.1397 10.1534ZM13.6687 9.62397C14.3786 9.56031 15.0974 9.51144 15.8115 9.47638L15.7722 8.67735C15.0482 8.71289 14.3186 8.76248 13.5973 8.82717L13.6687 9.62397ZM15.3918 9.07687V13.6708H16.1918V9.07687H15.3918ZM15.3918 13.6708C15.3918 14.2396 15.7369 14.7422 16.2676 14.9467L16.5551 14.2001C16.3332 14.1146 16.1918 13.9087 16.1918 13.6708H15.3918ZM16.2676 14.9467C16.7984 15.1511 17.3914 15.0097 17.7732 14.5879L17.18 14.0511C17.0201 14.2278 16.7771 14.2856 16.5551 14.2001L16.2676 14.9467ZM17.7735 14.5875L18.5135 13.7678L17.9197 13.2317L17.1797 14.0514L17.7735 14.5875ZM18.5132 13.7682C18.4973 13.7858 18.4762 13.7985 18.456 13.8056C18.4383 13.8118 18.4235 13.813 18.4127 13.813V13.013C18.3071 13.013 18.0928 13.0404 17.92 13.2314L18.5132 13.7682ZM18.4127 13.813C18.402 13.813 18.3872 13.8118 18.3695 13.8056C18.3494 13.7986 18.3281 13.7858 18.3119 13.7679L18.9052 13.2312C18.7324 13.0402 18.518 13.013 18.4127 13.013V13.813ZM18.3117 13.7676L19.0521 14.5878L19.646 14.0517L18.9055 13.2315L18.3117 13.7676ZM19.0524 14.5881C19.3167 14.8803 19.6839 15.0391 20.0634 15.0391V14.2391C19.9087 14.2391 19.7575 14.175 19.6457 14.0514L19.0524 14.5881ZM20.0634 15.0391C20.2296 15.0391 20.397 15.0086 20.5578 14.9467L20.2703 14.2002C20.2014 14.2267 20.1315 14.2391 20.0634 14.2391V15.0391ZM20.5578 14.9467C21.0886 14.7423 21.4336 14.2396 21.4336 13.6709H20.6336C20.6336 13.9088 20.4922 14.1147 20.2703 14.2002L20.5578 14.9467ZM21.4336 13.6709V9.07696H20.6336V13.6709H21.4336ZM21.014 9.47648C21.7274 9.51149 22.4462 9.5604 23.1562 9.62407L23.2277 8.82726C22.5062 8.76257 21.7767 8.71294 21.0532 8.67744L21.014 9.47648ZM23.1562 9.62407C23.4378 9.6493 23.6601 9.87162 23.6852 10.1537L24.482 10.0828C24.4227 9.41531 23.8951 8.88707 23.2277 8.82726L23.1562 9.62407ZM23.6852 10.1539C23.9673 13.301 23.9673 16.4926 23.6852 19.6399L24.482 19.7114C24.7683 16.5165 24.7683 13.2771 24.482 10.0825L23.6852 10.1539ZM23.6852 19.6402C23.6602 19.9221 23.4378 20.1445 23.1557 20.1695L23.2266 20.9664C23.8945 20.907 24.4227 20.3789 24.4821 19.7111L23.6852 19.6402ZM23.1555 20.1696C22.866 20.1954 22.5735 20.2192 22.2861 20.2403L22.3446 21.0382C22.6362 21.0168 22.933 20.9926 23.2268 20.9664L23.1555 20.1696ZM22.2861 20.2403C21.8721 20.2707 21.5611 20.6309 21.5915 21.0449L22.3893 20.9864C22.3913 21.013 22.3713 21.0362 22.3446 21.0382L22.2861 20.2403ZM21.5915 21.0449C21.6218 21.4587 21.9819 21.7701 22.3963 21.7395L22.3374 20.9417C22.3643 20.9397 22.3874 20.9599 22.3893 20.9864L21.5915 21.0449ZM22.3961 21.7395C22.6914 21.7178 22.9919 21.6934 23.2892 21.6668L23.218 20.87C22.9249 20.8962 22.6286 20.9203 22.3375 20.9416L22.3961 21.7395ZM23.289 21.6668C24.2963 21.5773 25.093 20.7807 25.1825 19.7736L24.3856 19.7028C24.3304 20.3239 23.8397 20.8147 23.2182 20.87L23.289 21.6668ZM25.1825 19.7739C25.4725 16.5376 25.4725 13.256 25.1825 10.02L24.3857 10.0914C24.6714 13.2799 24.6714 16.5137 24.3857 19.7025L25.1825 19.7739ZM11.6431 10.0136C11.6428 10.0169 11.6425 10.0196 11.6424 10.0214C11.6422 10.023 11.6421 10.0244 11.6421 10.0244C11.642 10.0256 11.6423 10.0213 11.6429 10.0163L12.4385 10.1C12.4388 10.0967 12.4391 10.0941 12.4392 10.0923C12.4394 10.0906 12.4395 10.0892 12.4395 10.0892C12.4396 10.0881 12.4392 10.0923 12.4387 10.0974L11.6431 10.0136ZM12.3375 9.78997L11.4753 8.83567L10.8817 9.37197L11.7439 10.3263L12.3375 9.78997ZM11.4753 8.83562C11.1858 8.51535 10.7727 8.33195 10.341 8.33201L10.3411 9.13201C10.5466 9.13198 10.744 9.21964 10.8817 9.37203L11.4753 8.83562ZM10.341 8.33201C9.9093 8.33201 9.49625 8.51541 9.20673 8.83567L9.80018 9.37216C9.93802 9.21968 10.1355 9.13201 10.341 9.13201V8.33201ZM9.20658 8.83583L8.27239 9.87035L8.86613 10.4065L9.80032 9.372L9.20658 8.83583ZM8.2725 9.87023C8.26708 9.87623 8.26342 9.87914 8.26195 9.88023C8.26049 9.8813 8.26022 9.8813 8.26106 9.88091C8.26319 9.87993 8.26467 9.87992 8.26351 9.88C8.26156 9.88013 8.25749 9.88002 8.25189 9.87893C8.24636 9.87785 8.24311 9.87655 8.24437 9.87703L7.957 10.6236C8.06347 10.6646 8.51021 10.8003 8.86602 10.4066L8.2725 9.87023ZM8.24437 9.87703C8.24566 9.87753 8.24239 9.87632 8.23757 9.87342C8.23269 9.87048 8.22961 9.86784 8.22827 9.86645C8.22747 9.86562 8.22857 9.86664 8.22951 9.86883C8.22988 9.8697 8.22969 9.86954 8.22933 9.86779C8.22897 9.86602 8.22822 9.86145 8.22822 9.8534H7.42822C7.42822 10.3838 7.85052 10.5827 7.957 10.6236L8.24437 9.87703ZM8.22822 9.8534V4.10911H7.42822V9.8534H8.22822ZM8.22822 4.10911C8.22822 3.69401 7.89171 3.3575 7.47661 3.3575V4.1575C7.44988 4.1575 7.42822 4.13584 7.42822 4.10911H8.22822ZM7.47661 3.3575C7.06152 3.3575 6.72501 3.69401 6.72501 4.10911H7.52501C7.52501 4.13584 7.50335 4.1575 7.47661 4.1575V3.3575ZM6.72501 4.10911V9.8534H7.52501V4.10911H6.72501ZM6.72501 9.8534C6.72501 10.4895 7.11068 11.0513 7.70427 11.2799L7.99173 10.5333C7.70697 10.4236 7.52501 10.1586 7.52501 9.8534H6.72501ZM7.7043 11.2799C7.88408 11.3491 8.07115 11.3831 8.25685 11.3831V10.5831C8.16924 10.5831 8.07961 10.5671 7.9917 10.5333L7.7043 11.2799ZM8.25685 11.3831C8.68115 11.3831 9.09193 11.2053 9.38776 10.8781L8.79433 10.3416C8.65089 10.5003 8.45606 10.5831 8.25685 10.5831V11.3831ZM9.38791 10.878L10.3221 9.84344L9.72842 9.30726L8.79418 10.3418L9.38791 10.878ZM10.322 9.84359C10.326 9.83922 10.3288 9.83768 10.3303 9.83701C10.3318 9.83634 10.335 9.83522 10.341 9.83522V9.03522C10.1061 9.03522 9.88612 9.13281 9.72855 9.30711L10.322 9.84359ZM10.341 9.83522C10.3472 9.83522 10.3503 9.83636 10.3518 9.83702C10.3533 9.83767 10.3561 9.83917 10.36 9.84346L10.9536 9.30715C10.7959 9.13265 10.5758 9.03522 10.341 9.03522V9.83522ZM10.36 9.84346L11.2948 10.8781L11.8884 10.3418L10.9536 9.30714L10.36 9.84346ZM11.2947 10.8781C11.4424 11.0415 11.6174 11.1678 11.8113 11.2539L12.1361 10.5228C12.0454 10.4825 11.9617 10.4229 11.8884 10.3418L11.2947 10.8781ZM11.5748 10.8589C11.3871 13.3998 11.3766 15.9636 11.5443 18.5068L12.3426 18.4542C12.1773 15.9482 12.1877 13.4216 12.3726 10.9178L11.5748 10.8589ZM11.9352 18.0806C8.96584 18.1421 5.95675 18.0297 2.9854 17.7449L2.90907 18.5412C5.91126 18.829 8.95137 18.9426 11.9517 18.8804L11.9352 18.0806ZM2.98539 17.7449C2.70499 17.718 2.48116 17.4942 2.45425 17.2137L1.65791 17.2901C1.72139 17.952 2.24709 18.4778 2.90909 18.5412L2.98539 17.7449ZM2.45425 17.2137C1.98615 12.333 1.98615 7.38329 2.45425 2.50234L1.65791 2.42597C1.18493 7.35771 1.18493 12.3585 1.65791 17.2901L2.45425 17.2137ZM2.45428 2.50209C2.4811 2.22051 2.70458 1.99758 2.9826 1.97089L2.90615 1.17455C2.24459 1.23806 1.72088 1.76494 1.65788 2.42622L2.45428 2.50209ZM2.9825 1.9709C4.36031 1.83897 5.75757 1.74349 7.14165 1.6857L7.10827 0.886395C5.71008 0.944774 4.29852 1.04123 2.90625 1.17454L2.9825 1.9709ZM6.72496 1.28605V2.70264H7.52496V1.28605H6.72496ZM6.72496 2.70264C6.72496 3.11773 7.06147 3.45425 7.47657 3.45425V2.65424C7.5033 2.65424 7.52496 2.67591 7.52496 2.70264H6.72496ZM7.47657 3.45425C7.89166 3.45425 8.22817 3.11773 8.22817 2.70264H7.42817C7.42817 2.67591 7.44983 2.65424 7.47657 2.65424V3.45425ZM8.22817 2.70264V1.26022H7.42817V2.70264H8.22817ZM7.84121 1.66C9.5018 1.60586 11.1801 1.60586 12.8407 1.66L12.8668 0.860428C11.1888 0.805716 9.4931 0.805716 7.81514 0.860428L7.84121 1.66ZM12.4538 1.26022V8.75817H13.2538V1.26022H12.4538ZM12.6481 8.4151C12.091 8.7491 11.7034 9.33584 11.6425 10.02L12.4393 10.091C12.4769 9.66924 12.7153 9.30759 13.0595 9.10124L12.6481 8.4151ZM13.5363 8.12666C13.5309 8.12712 13.5263 8.1276 13.5229 8.12797C13.5197 8.12833 13.5169 8.12867 13.5156 8.12883C13.5138 8.12905 13.5141 8.12901 13.5143 8.12898C13.5148 8.12893 13.5165 8.12873 13.519 8.12849L13.5952 8.92485C13.5999 8.92441 13.6038 8.92397 13.6065 8.92366C13.6088 8.92338 13.6113 8.92308 13.6117 8.92303C13.6126 8.92292 13.612 8.923 13.6109 8.92312C13.6097 8.92325 13.6073 8.92351 13.6041 8.92378L13.5363 8.12666ZM13.9571 8.52667V1.28605H13.1571V8.52667H13.9571ZM13.5404 1.6857C14.9245 1.74344 16.3217 1.83892 17.6994 1.97085L17.7757 1.1745C16.3835 1.04118 14.972 0.944727 13.5738 0.886394L13.5404 1.6857ZM17.6993 1.97085C17.9775 1.99754 18.201 2.22047 18.2278 2.50226L19.0242 2.42643C18.9612 1.76489 18.4374 1.23801 17.7757 1.1745L17.6993 1.97085ZM18.2278 2.50251C18.4129 4.43363 18.5252 6.38854 18.5641 8.31948L19.3639 8.30341C19.3247 6.35253 19.2112 4.37753 19.0242 2.42618L18.2278 2.50251ZM18.968 7.91147C18.0146 7.90178 17.0591 7.91694 16.1117 7.95714L16.1456 8.75642C17.0788 8.71682 18.0203 8.70188 18.9599 8.71142L18.968 7.91147ZM16.1119 7.95713C15.2561 7.99312 14.389 8.05021 13.5345 8.12682L13.6059 8.92362C14.4479 8.84814 15.3024 8.79188 16.1455 8.75642L16.1119 7.95713ZM20.0172 13.5441C20.0278 13.54 20.0444 13.5344 20.0701 13.5361C20.0853 13.5371 20.1047 13.5409 20.1249 13.5502C20.1459 13.5599 20.1601 13.5718 20.1675 13.58L19.5742 14.1166C19.861 14.4339 20.2236 14.322 20.3054 14.2904L20.0172 13.5441ZM20.1677 13.5803L19.4273 12.7601L18.8334 13.2961L19.5739 14.1164L20.1677 13.5803ZM19.427 12.7598C19.1681 12.4736 18.7988 12.3098 18.4128 12.3098V13.1098C18.573 13.1098 18.7267 13.1781 18.8337 13.2964L19.427 12.7598ZM18.4128 12.3098C18.0267 12.3098 17.6574 12.4736 17.3983 12.76L17.9915 13.2967C18.0989 13.1781 18.2526 13.1098 18.4128 13.1098V12.3098ZM17.398 12.7603L16.658 13.58L17.2518 14.1161L17.9918 13.2964L17.398 12.7603ZM16.6582 13.5798C16.6655 13.5717 16.6796 13.5598 16.7005 13.5501C16.7207 13.5408 16.74 13.5371 16.7552 13.536C16.7809 13.5343 16.7975 13.54 16.8075 13.5438L16.5209 14.2907C16.6021 14.3218 16.9646 14.4337 17.2516 14.1163L16.6582 13.5798ZM16.808 13.544C16.8185 13.548 16.8347 13.5551 16.8525 13.5736C16.8631 13.5846 16.8749 13.6003 16.8836 13.6207C16.8927 13.6418 16.8951 13.6601 16.8951 13.6709H16.0951C16.0951 14.0986 16.4384 14.2589 16.5204 14.2905L16.808 13.544ZM16.8951 13.6709V9.04691H16.0951V13.6709H16.8951ZM16.5095 9.44665C17.7742 9.4011 19.0513 9.40114 20.316 9.44665L20.3448 8.64717C19.0609 8.60097 17.7646 8.60093 16.4807 8.64717L16.5095 9.44665ZM19.9304 9.04691V13.6709H20.7304V9.04691H19.9304ZM19.9304 13.6709C19.9304 13.6601 19.9328 13.6418 19.9419 13.6207C19.9506 13.6003 19.9624 13.5846 19.973 13.5736C19.9908 13.5551 20.007 13.548 20.0175 13.544L20.3051 14.2905C20.3871 14.2589 20.7304 14.0986 20.7304 13.6709H19.9304Z" fill="#00113E" mask="url(#path-1-outside-1_350_18377)"/>
</svg>
