<svg width="22" height="22" viewBox="0 0 22 22" fill="none" xmlns="http://www.w3.org/2000/svg">
<path d="M19.2293 0.0285645H2.77215C1.25943 0.0285645 0.0292969 1.2587 0.0292969 2.77142V19.2286C0.0292969 20.7413 1.25943 21.9714 2.77215 21.9714H15.115C16.6277 21.9714 17.8579 20.7413 17.8579 19.2286V6.88571H20.6007C21.3568 6.88571 21.9722 6.27031 21.9722 5.51428V2.77142C21.9722 1.2587 20.742 0.0285645 19.2293 0.0285645ZM16.4864 19.2286C16.4864 19.9846 15.871 20.6 15.115 20.6H2.77215C2.01613 20.6 1.40073 19.9846 1.40073 19.2286V2.77142C1.40073 2.01539 2.01613 1.39999 2.77215 1.39999H16.8678C16.6317 1.80504 16.4864 2.26957 16.4864 2.77142V19.2286ZM17.8579 5.51428V2.77142C17.8579 2.01539 18.4733 1.39999 19.2293 1.39999C19.9853 1.39999 20.6007 2.01539 20.6007 2.77142L20.6014 5.51428H17.8579Z" fill="#00113E"/>
<path d="M8.9428 3.46582C5.80084 3.46582 3.24414 6.02252 3.24414 9.16448C3.24414 10.6317 4.39927 13.3451 6.67807 17.2276C7.15486 18.0406 8.00195 18.5261 8.9428 18.5261C9.88432 18.5254 10.7314 18.0406 11.2075 17.2276C13.4863 13.3451 14.6415 10.6317 14.6415 9.16448C14.6415 6.02252 12.0848 3.46582 8.9428 3.46582ZM10.0249 16.5339C9.79727 16.9223 9.3928 17.154 8.94347 17.1547C8.49347 17.1547 8.08901 16.9223 7.86066 16.5339C5.79816 13.0189 4.61557 10.333 4.61557 9.16448C4.61557 6.77854 6.55686 4.83725 8.9428 4.83725C11.3287 4.83725 13.27 6.77854 13.27 9.16448C13.27 10.333 12.0874 13.0189 10.0249 16.5339Z" fill="#00113E"/>
<path d="M8.94408 6.30249C7.36574 6.30249 6.08203 7.5862 6.08203 9.16454C6.08203 10.7429 7.36574 12.0266 8.94408 12.0266C10.5224 12.0266 11.8061 10.7429 11.8061 9.16454C11.8061 7.5862 10.5224 6.30249 8.94408 6.30249ZM8.94408 10.6552C8.12243 10.6552 7.45346 9.9862 7.45346 9.16454C7.45346 8.34289 8.12243 7.67392 8.94408 7.67392C9.76574 7.67392 10.4347 8.34289 10.4347 9.16454C10.4347 9.9862 9.76574 10.6552 8.94408 10.6552Z" fill="#00113E"/>
</svg>
