<svg width="185" height="108" viewBox="0 0 185 108" fill="none" xmlns="http://www.w3.org/2000/svg">
<g opacity="0.4">
<path d="M136.334 6.08875C126.501 16.4218 134.917 26.5058 134.917 26.5058L115.138 45.2758C114.173 46.1918 112.994 46.8458 111.708 47.1908C56.172 62.0928 0 94.0048 0 94.0048C0 94.0048 40.583 94.0238 93.25 71.9218L118.25 61.9218L120.622 52.5018C120.925 51.2988 121.504 50.1828 122.313 49.2408L136.875 32.2968C141.438 27.0468 142.083 29.5468 147.667 27.9218C148.07 27.8258 148.614 27.6498 149.255 27.3978C150.059 27.0808 150.981 27.3208 151.53 27.9888L155.294 32.5718C155.85 33.2488 156.793 33.5518 157.599 33.2088C158.652 32.7598 159.072 31.5448 158.583 30.5628L156.061 25.4988C155.643 24.6598 155.871 23.6518 156.594 23.0558C160.476 19.8568 163.656 15.2108 161.875 9.42175C158.542 -1.41125 145.334 -3.41125 136.334 6.08875ZM156.029 7.04476C160.021 12.5988 157.132 17.9988 152.095 21.7428C147.058 25.4858 140.376 25.8768 137.344 21.7958C134.311 17.7158 136.077 10.7088 141.113 6.96575C146.151 3.22275 153.062 2.91676 156.029 7.04476Z" fill="#262626"/>
<path d="M0 20.9217L107.693 75.9297C109.27 76.7347 111.069 76.9947 112.809 76.6677L131.417 73.1717C130 85.2967 147.25 96.1717 147.25 96.1717C147.781 96.4987 148.357 96.8267 148.958 97.1517L148.954 97.1507C148.954 97.1507 159.309 104.39 165.984 106.934C166.989 107.317 168.103 106.749 168.399 105.714L169.125 103.174L168.882 103.101C175.927 103.559 182.063 101.72 183.688 95.4217C184.602 92.1407 184.043 89.0817 182.986 86.5407C181.39 82.7017 178.349 79.6407 174.648 77.7487L155.917 68.1717C145.297 62.4877 125.416 65.5967 121.449 66.2937C121.028 66.3677 120.609 66.1677 120.402 65.7947L118.25 61.9217C87.75 40.9217 31 18.4217 31 18.4217C16.001 11.9217 0 20.9217 0 20.9217ZM162.694 76.6717C173.935 82.3377 181.834 87.2547 178.633 94.1687C176.356 99.0857 164.492 98.9627 153.251 93.2967C142.01 87.6307 135.486 78.4897 137.925 73.6517C140.363 68.8127 151.453 71.0057 162.694 76.6717Z" fill="#262626"/>
<path d="M99.5732 55.5047C102.242 55.5047 104.406 57.6687 104.406 60.3377C104.406 63.0067 102.242 65.1707 99.5732 65.1707C96.9042 65.1707 94.7402 63.0067 94.7402 60.3377C94.7392 57.6687 96.9032 55.5047 99.5732 55.5047Z" fill="white"/>
<path d="M102.396 57.5157C102.396 57.5157 101.824 57.6497 101.108 57.9917C100.623 58.2307 100.093 58.6067 99.573 59.0277C99.053 58.6057 98.523 58.2307 98.038 57.9917C97.322 57.6497 96.75 57.5157 96.75 57.5157C96.75 57.5157 96.884 58.0877 97.226 58.8037C97.465 59.2887 97.84 59.8177 98.261 60.3377C97.839 60.8567 97.462 61.3857 97.224 61.8717C96.882 62.5877 96.75 63.1617 96.75 63.1617C96.75 63.1617 97.323 63.0297 98.04 62.6877C98.525 62.4497 99.054 62.0737 99.573 61.6517C100.092 62.0737 100.621 62.4497 101.106 62.6877C101.822 63.0297 102.396 63.1617 102.396 63.1617C102.396 63.1617 102.264 62.5877 101.922 61.8717C101.683 61.3867 101.307 60.8567 100.885 60.3377C101.306 59.8187 101.682 59.2887 101.92 58.8037C102.262 58.0877 102.396 57.5157 102.396 57.5157Z" fill="#262626"/>
<path d="M86.784 66.0047C87.103 66.8177 87.425 67.6907 87.798 68.5967C87.977 69.0417 88.161 69.4977 88.35 69.9647C88.396 70.0897 88.375 70.1457 88.34 70.2267C88.32 70.2617 88.296 70.2927 88.267 70.3177C88.216 70.3507 88.253 70.3367 88.087 70.4027C84.114 72.0117 79.41 73.7347 74.367 75.5647C69.314 77.3647 63.909 79.2487 58.457 80.9907C53.008 82.7417 47.511 84.3377 42.327 85.7227C39.735 86.4127 37.217 87.0367 34.823 87.5957C32.427 88.1487 30.157 88.6547 28.053 89.0827C23.844 89.9277 20.31 90.5057 17.826 90.8477C16.586 91.0357 15.606 91.1337 14.939 91.2177C14.272 91.2977 13.916 91.3397 13.916 91.3397C13.916 91.3397 14.273 91.3127 14.944 91.2637C15.614 91.2097 16.599 91.1547 17.847 91.0227C19.098 90.9127 20.612 90.7377 22.349 90.5267C24.082 90.2917 26.034 90.0007 28.158 89.6457C30.279 89.2787 32.577 88.8697 34.991 88.3547C37.406 87.8477 39.945 87.2767 42.561 86.6407C47.796 85.3807 53.331 83.8437 58.827 82.1807C64.326 80.5277 69.782 78.7287 74.849 76.9097C79.924 75.1097 84.595 73.2587 88.582 71.6137C88.666 71.5837 88.952 71.4587 89.103 71.3167C89.276 71.1697 89.416 70.9857 89.509 70.7837C89.702 70.3897 89.693 69.8817 89.541 69.5307C89.329 69.0497 89.122 68.5807 88.921 68.1227C88.531 67.2237 88.129 66.3847 87.768 65.5897C87.033 64.0037 86.369 62.6317 85.809 61.5067C84.677 59.2627 83.979 58.0017 83.979 58.0017C83.979 58.0017 84.398 59.3807 85.219 61.7567C85.636 62.9407 86.158 64.3727 86.784 66.0047Z" fill="white"/>
<path d="M18.965 28.2627C21.974 29.8267 25.464 31.6917 29.239 33.6177C33.014 35.5457 37.04 37.6027 41.066 39.6587C45.112 41.6757 49.159 43.6917 52.952 45.5827C56.743 47.4767 60.318 49.1747 63.364 50.6647C66.411 52.1527 68.979 53.3367 70.763 54.1917C72.557 55.0277 73.582 55.5047 73.582 55.5047C73.582 55.5047 72.589 54.9637 70.851 54.0177C69.103 53.0907 66.625 51.7297 63.618 50.1627C60.609 48.5987 57.12 46.7317 53.344 44.8087C49.569 42.8807 45.543 40.8247 41.517 38.7677C37.47 36.7517 33.424 34.7347 29.63 32.8447C25.837 30.9527 22.264 29.2527 19.218 27.7627C16.17 26.2757 13.604 25.0907 11.819 24.2357C10.025 23.3997 9 22.9217 9 22.9217C9 22.9217 9.993 23.4627 11.731 24.4087C13.48 25.3347 15.958 26.6947 18.965 28.2627Z" fill="white"/>
<path d="M74.9751 59.2177C79.5771 57.4747 84.2511 55.7667 88.9981 54.1467L89.0151 54.1397L73.5801 58.5057L74.9751 59.2177Z" fill="white"/>
<path d="M118.854 63.0057L118.251 61.9217L109.889 65.2667L118.854 63.0057Z" fill="white"/>
<path d="M148.743 26.0267L148.294 26.1707C147.982 26.2707 147.665 26.3727 147.347 26.4747C146.719 26.6537 146.064 26.8017 145.406 26.9037C144.1 27.1557 142.737 27.0967 141.434 27.3567C140.123 27.6077 139.047 28.3137 138.276 28.9867C137.487 29.6597 136.945 30.3267 136.553 30.7747C136.176 31.2387 135.971 31.5107 135.971 31.5107C135.971 31.5107 136.214 31.2717 136.638 30.8547C137.063 30.4407 137.688 29.8617 138.487 29.2507C139.279 28.6277 140.321 28.0807 141.532 27.8687C142.74 27.6467 144.127 27.7317 145.503 27.4957C146.187 27.3757 146.858 27.2107 147.514 27.0087C147.831 26.8997 148.145 26.7927 148.455 26.6857L148.934 26.5207C149.073 26.4667 149.214 26.4227 149.356 26.3877C149.927 26.2597 150.515 26.2907 151.031 26.4657C151.554 26.6407 151.977 26.9447 152.311 27.3147C153.655 28.8337 154.596 29.8297 154.596 29.8297C154.596 29.8297 154.397 29.5537 154.047 29.0697C153.686 28.5927 153.199 27.9047 152.562 27.0907C151.929 26.2547 150.619 25.5767 149.242 25.8797C149.074 25.9177 148.908 25.9657 148.743 26.0267Z" fill="white"/>
<path d="M147.554 2.73273C146.08 2.94673 144.772 3.43573 143.698 3.91473C142.621 4.39873 141.804 4.95374 141.247 5.34674C140.691 5.74474 140.398 6.00273 140.398 6.00273C140.398 6.00273 140.724 5.78773 141.311 5.44473C141.892 5.09373 142.757 4.65074 143.831 4.22574C144.905 3.79974 146.208 3.43373 147.628 3.24773C148.337 3.15673 149.077 3.10573 149.825 3.13873C150.559 3.17173 151.337 3.27274 152.061 3.45374C153.53 3.79574 154.915 4.50273 155.926 5.49173C156.927 6.46773 157.661 7.64574 158.146 8.67574C158.628 9.71974 158.881 10.6577 158.982 11.3277C159.089 11.9957 159.104 12.3887 159.104 12.3887C159.104 12.3887 159.142 12.0007 159.097 11.3147C159.044 10.6347 158.902 9.64474 158.454 8.54274C158.235 7.99174 157.947 7.41473 157.595 6.83273C157.245 6.25873 156.836 5.64373 156.288 5.12073C155.225 4.04473 153.754 3.26273 152.202 2.87273C151.412 2.69073 150.637 2.60473 149.842 2.58073C149.057 2.55873 148.288 2.62573 147.554 2.73273Z" fill="white"/>
<path d="M180.349 90.4707C180.433 91.5297 180.221 92.7677 179.728 93.9917C179.484 94.6117 179.177 95.1997 178.724 95.7087C178.283 96.2237 177.733 96.6567 177.137 97.0147C175.949 97.7497 174.567 98.1567 173.258 98.3917C171.944 98.6247 170.689 98.7247 169.612 98.7347C168.535 98.7467 167.631 98.7257 167.001 98.6817C166.369 98.6427 166.008 98.6207 166.008 98.6207C166.008 98.6207 166.362 98.6987 166.988 98.7977C167.616 98.8897 168.515 99.0287 169.607 99.0707C170.696 99.1107 171.982 99.1207 173.344 98.9037C174.699 98.6857 176.152 98.2937 177.448 97.5267C178.085 97.1317 178.676 96.6467 179.152 96.0697C179.639 95.5037 179.976 94.8227 180.214 94.1787C180.717 92.8767 180.826 91.5367 180.686 90.4377C180.553 89.3297 180.16 88.4797 179.873 87.9167C179.575 87.3527 179.355 87.0627 179.355 87.0627C179.355 87.0627 179.531 87.3817 179.767 87.9657C180.008 88.5457 180.275 89.4127 180.349 90.4707Z" fill="white"/>
<path d="M130.94 66.1447C128.186 66.4407 126.373 66.7787 126.373 66.7787C126.373 66.7787 126.833 66.7457 127.637 66.6897C128.441 66.6397 129.589 66.5667 130.966 66.4807C133.72 66.3427 137.397 66.1987 141.06 66.3807C141.976 66.4197 142.892 66.4597 143.789 66.5447C144.69 66.6007 145.568 66.7307 146.421 66.8267C147.266 66.9687 148.092 67.0687 148.862 67.2247C149.631 67.3857 150.366 67.5167 151.023 67.7157C151.688 67.8907 152.296 68.0537 152.821 68.2457C153.35 68.4247 153.819 68.5657 154.181 68.7407C154.924 69.0527 155.348 69.2317 155.348 69.2317C155.348 69.2317 154.941 69.0147 154.229 68.6347C153.877 68.4317 153.419 68.2557 152.899 68.0367C152.384 67.8027 151.783 67.5917 151.117 67.3917C150.459 67.1607 149.725 66.9957 148.953 66.7977C148.18 66.6047 147.352 66.4587 146.496 66.3127C145.635 66.2027 144.748 66.0577 143.839 65.9877C142.933 65.8897 142.009 65.8337 141.085 65.7827C139.236 65.7237 137.386 65.7227 135.655 65.7967C133.927 65.8507 132.318 66.0157 130.94 66.1447Z" fill="white"/>
</g>
</svg>
