<svg width="416" height="256" viewBox="0 0 416 256" fill="none" xmlns="http://www.w3.org/2000/svg">
<g opacity="0.2">
<path d="M411.395 232.028H408.657V214.33C408.657 205.256 400.567 197.902 390.586 197.902H312.911L310.412 194.836C310.137 194.5 283.011 160.74 295.703 131.235C301.149 118.574 303.545 105.983 302.822 93.8161C302.799 93.4183 302.729 93.0346 302.696 92.6391H310.304V100.744C310.304 104.841 313.614 108.208 317.927 108.828V127.622C317.927 133.151 322.856 137.632 328.938 137.632C335.02 137.632 339.949 133.151 339.949 127.622V88.6801H341.267C343.758 88.6801 345.784 90.5216 345.784 92.7865V137.578C345.784 144.373 351.863 149.9 359.338 149.9H360.467V151.372C360.467 152.506 361.479 153.426 362.727 153.426C363.569 153.426 364.272 152.991 364.66 152.371H366.318C367.314 152.371 368.276 152.034 369.015 151.425C370.039 150.583 371.465 150.276 372.796 150.616C372.796 150.616 391.706 153.477 394.449 153.859C399.906 154.617 404.84 150.812 404.84 145.796C404.84 140.779 399.906 136.974 394.449 137.733C391.708 138.114 372.796 140.976 372.796 140.976C371.468 141.313 370.039 141.008 369.015 140.166C368.276 139.558 367.314 139.221 366.318 139.221H364.66C364.272 138.601 363.566 138.165 362.727 138.165C361.479 138.165 360.467 139.085 360.467 140.22V141.689H359.338C356.846 141.689 354.821 139.845 354.821 137.583V92.7912C354.821 85.9963 348.741 80.4696 341.267 80.4696H339.949V41.5275C339.949 35.9985 335.02 31.5177 328.938 31.5177C322.856 31.5177 317.927 35.9985 317.927 41.5275V60.3212C313.614 60.9412 310.304 64.3082 310.304 68.4053V76.5106H297.89C290.825 63.2647 276.893 53.7696 260.107 52.0709C256.488 51.7059 252.949 51.5912 249.598 51.6263V45.3041H256.467C258.701 45.3041 260.514 43.6568 260.514 41.6235C260.514 39.892 259.193 38.4506 257.422 38.0599V20.1203C259.193 19.7296 260.514 18.2859 260.514 16.5567C260.514 14.5257 258.701 12.8785 256.467 12.8785H249.598V8.98499H247.338V0H245.078V8.98499H242.819V12.8785H235.949C233.715 12.8785 231.903 14.5257 231.903 16.5567C231.903 18.2882 233.223 19.7296 234.994 20.1203V38.0599C233.223 38.453 231.903 39.8943 231.903 41.6235C231.903 43.6545 233.715 45.3041 235.949 45.3041H242.819V51.8954C234.001 52.5201 227.702 53.9685 227.301 54.0621C226.642 54.2142 160.696 69.3647 118.717 62.6938C91.203 58.7114 82.676 46.5371 80.2875 41.4877C78.3468 37.386 73.8838 34.735 68.9138 34.735H64.6515V19.7623C64.6515 18.0612 63.1356 16.6831 61.2645 16.6831C59.3933 16.6831 57.8773 18.0612 57.8773 19.7623V34.735H51.6461C48.2822 34.735 45.5461 37.2222 45.5461 40.2804V77.1751H29.4702C29.7276 76.5995 29.8768 75.9724 29.8768 75.3126C29.8768 72.5843 27.442 70.3708 24.4409 70.3708C21.4399 70.3708 19.005 72.5843 19.005 75.3126C19.005 78.0409 21.4399 80.2543 24.4409 80.2543H45.5461V144.614C45.5461 147.672 48.2822 150.159 51.6461 150.159H61.3828V166.117C61.3828 167.252 62.3943 168.172 63.6426 168.172H64.214L65.1483 189.392L66.0826 168.172H66.654C67.9023 168.172 68.9138 167.252 68.9138 166.117V162.011H71.6472C71.6858 162.317 71.9483 162.568 72.2984 162.568H73.7731C73.9147 163.44 74.5891 164.365 75.6392 164.826C77.2555 165.537 79.0804 164.952 79.0804 163.239C79.0804 162.533 78.72 161.873 78.1769 161.363C77.9582 161.157 77.9582 160.81 78.1769 160.605C78.72 160.092 79.0804 159.435 79.0804 158.728C79.0804 157.018 77.2555 156.433 75.6392 157.144C74.5891 157.605 73.9173 158.529 73.7731 159.402H72.2984C71.9483 159.402 71.6858 159.65 71.6472 159.959H68.9138V150.162H76.6069C83.4584 150.162 89.0307 145.094 89.0307 138.867V128.647C88.9509 118.925 93.6044 111.599 102.865 106.868C110.298 103.068 118.027 102.324 117.981 102.324C172.862 99.3591 203.025 106.751 218.661 113.471C229.633 118.188 236.047 129.115 234.261 140.044C230.305 164.222 207.871 194.731 207.645 195.038L205.521 197.906H25.4112C15.43 197.906 7.34048 205.26 7.34048 214.334V232.033H4.60196C2.05903 232.033 0 233.907 0 236.217V251.816C0 254.128 2.06161 256 4.60196 256H7.34048H408.66H411.398C413.941 256 416 254.126 416 251.816V236.217C415.997 233.903 413.938 232.028 411.395 232.028ZM59.9981 19.8746C59.9981 19.2382 60.5669 18.7211 61.267 18.7211C61.967 18.7211 62.5359 19.2382 62.5359 19.8746V24.1097C62.5359 24.7462 61.967 25.2633 61.267 25.2633C60.5669 25.2633 59.9981 24.7462 59.9981 24.1097V19.8746ZM24.4435 78.1882C22.6959 78.1882 21.2803 76.9013 21.2803 75.3126C21.2803 73.7238 22.6959 72.4369 24.4435 72.4369C26.1886 72.4369 27.6067 73.7238 27.6067 75.3126C27.6067 76.899 26.1911 78.1882 24.4435 78.1882Z" fill="#262626"/>
<path d="M236.338 21.4609C236.338 21.4609 236.04 21.6879 235.458 22.1278C234.858 22.556 234.053 23.2486 232.851 24.0441C230.516 25.7101 226.946 27.9563 222.025 30.226C217.094 32.4512 210.76 34.5921 203.213 35.8509C195.675 37.1308 186.975 37.4771 177.599 36.8383C168.212 36.2183 158.161 34.6015 147.688 32.402C137.208 30.2119 126.303 27.3994 115.011 24.5939C103.717 21.8189 92.0143 18.9432 79.8684 17.3942C73.8045 16.6314 67.6145 16.2641 61.4554 16.6947C55.3169 17.1556 49.1783 18.5314 43.8042 21.3065C41.148 22.6823 38.6308 24.4091 36.3041 26.2506C33.9619 28.0733 31.7742 30.0855 29.8747 32.2897C25.9805 36.6348 23.2857 41.7918 21.9113 47.1758C20.5832 52.5808 20.5215 58.1661 21.3425 63.5524C22.1327 68.9504 23.6822 74.1823 25.5894 79.1919C29.4218 89.2251 34.5385 98.4348 39.5909 107.027C44.6742 115.614 49.7858 123.586 54.3671 131.019C58.9562 138.448 63.0331 145.337 66.2324 151.636C69.429 157.93 71.7893 163.62 73.0813 168.48C74.4017 173.336 74.6333 177.309 74.448 179.974C74.3065 181.307 74.1854 182.323 74.0181 182.999C73.8817 183.675 73.8123 184.026 73.8123 184.026C73.8123 184.026 73.856 183.673 73.9384 182.99C74.0491 182.311 74.0903 181.289 74.1263 179.967C74.152 177.32 73.7608 173.424 72.4095 168.637C71.0814 163.843 68.7676 158.185 65.5632 151.924C62.3691 145.655 58.2922 138.785 53.7005 131.366C49.114 123.941 43.9895 115.972 38.8882 107.375C33.8152 98.774 28.6702 89.5434 24.7992 79.4446C22.8714 74.4022 21.2988 69.1259 20.4932 63.66C19.6593 58.2058 19.7056 52.5223 21.0568 47.005C22.4518 41.5063 25.2058 36.223 29.1746 31.789C31.1127 29.538 33.3262 27.4977 35.7198 25.6305C38.0929 23.7516 40.5895 22.0318 43.3537 20.5905C48.8668 17.7358 55.1444 16.3273 61.3782 15.8546C67.6351 15.4124 73.8894 15.7798 79.9971 16.5402C92.233 18.0892 103.967 20.9602 115.271 23.7282C126.575 26.5243 137.468 29.3228 147.92 31.4965C158.362 33.6796 168.364 35.2753 177.678 35.8813C186.985 36.5061 195.584 36.1504 203.018 34.8822C210.461 33.6351 216.685 31.5199 221.531 29.3275C226.359 27.0952 229.888 24.8677 232.153 23.2486C233.319 22.4788 234.15 21.7651 234.74 21.3439C235.321 20.904 235.62 20.6771 235.62 20.6771L236.338 21.4609Z" fill="#262626"/>
<path d="M246.209 21.1685C248.767 21.1521 251.325 21.1334 253.246 21.1218C255.166 21.089 256.445 21.0656 256.445 21.0656C256.445 21.0656 255.166 21.0445 253.246 21.0094C251.325 20.9977 248.767 20.979 246.209 20.9626C243.65 20.979 241.092 20.9977 239.172 21.0094C237.252 21.0422 235.973 21.0656 235.973 21.0656C235.973 21.0656 237.252 21.0867 239.172 21.1218C241.092 21.1334 243.65 21.1498 246.209 21.1685Z" fill="white"/>
<path d="M246.209 22.5679C243.65 22.5843 241.092 22.603 239.172 22.6147C237.252 22.6475 235.973 22.6708 235.973 22.6708C235.973 22.6708 237.252 22.6919 239.172 22.727C241.092 22.7387 243.65 22.7574 246.209 22.7738C248.767 22.7574 251.325 22.7387 253.246 22.727C255.166 22.6942 256.445 22.6708 256.445 22.6708C256.445 22.6708 255.166 22.6498 253.246 22.6147C251.328 22.603 248.77 22.5843 246.209 22.5679Z" fill="white"/>
<path d="M246.209 24.173C243.65 24.1894 241.092 24.208 239.172 24.2197C237.252 24.2525 235.973 24.2736 235.973 24.2736C235.973 24.2736 237.252 24.2947 239.172 24.3298C241.092 24.3438 243.65 24.3602 246.209 24.3766C248.767 24.3602 251.325 24.3415 253.246 24.3298C255.166 24.297 256.445 24.2736 256.445 24.2736C256.445 24.2736 255.166 24.2526 253.246 24.2175C251.328 24.2058 248.77 24.1894 246.209 24.173Z" fill="white"/>
<path d="M246.209 25.7756C243.65 25.792 241.092 25.8108 239.172 25.8225C237.252 25.8552 235.973 25.8786 235.973 25.8786C235.973 25.8786 237.252 25.8996 239.172 25.9347C241.092 25.9488 243.65 25.9652 246.209 25.9816C248.767 25.9652 251.325 25.9464 253.246 25.9347C255.166 25.902 256.445 25.8786 256.445 25.8786C256.445 25.8786 255.166 25.8576 253.246 25.8225C251.328 25.8108 248.77 25.7944 246.209 25.7756Z" fill="white"/>
<path d="M246.209 27.3809C243.65 27.3972 241.092 27.4159 239.172 27.4276C237.252 27.4604 235.973 27.4815 235.973 27.4815C235.973 27.4815 237.252 27.5025 239.172 27.5376C241.092 27.5493 243.65 27.5681 246.209 27.5844C248.767 27.5681 251.325 27.5493 253.246 27.5376C255.166 27.5048 256.445 27.4815 256.445 27.4815C256.445 27.4815 255.166 27.4604 253.246 27.4253C251.328 27.4136 248.77 27.3972 246.209 27.3809Z" fill="white"/>
<path d="M246.209 28.9835C243.65 28.9999 241.092 29.0186 239.172 29.0303C237.252 29.063 235.973 29.0865 235.973 29.0865C235.973 29.0865 237.252 29.1076 239.172 29.1403C241.092 29.1544 243.65 29.1707 246.209 29.1871C248.767 29.1707 251.325 29.152 253.246 29.1403C255.166 29.1076 256.445 29.0841 256.445 29.0841C256.445 29.0841 255.166 29.0608 253.246 29.028C251.328 29.0186 248.77 29.0022 246.209 28.9835Z" fill="white"/>
<path d="M246.209 30.5887C243.65 30.6051 241.092 30.6238 239.172 30.6355C237.252 30.6683 235.973 30.6917 235.973 30.6917C235.973 30.6917 237.252 30.7127 239.172 30.7478C241.092 30.7595 243.65 30.7783 246.209 30.7947C248.767 30.7783 251.325 30.7595 253.246 30.7478C255.166 30.7151 256.445 30.6917 256.445 30.6917C256.445 30.6917 255.166 30.6706 253.246 30.6355C251.328 30.6238 248.77 30.6075 246.209 30.5887Z" fill="white"/>
<path d="M246.209 32.194C243.65 32.2103 241.092 32.229 239.172 32.2407C237.252 32.2735 235.973 32.2969 235.973 32.2969C235.973 32.2969 237.252 32.318 239.172 32.3531C241.092 32.3648 243.65 32.3835 246.209 32.3998C248.767 32.3835 251.325 32.3648 253.246 32.3531C255.166 32.3203 256.445 32.2969 256.445 32.2969C256.445 32.2969 255.166 32.2758 253.246 32.2407C251.328 32.2267 248.77 32.2103 246.209 32.194Z" fill="white"/>
<path d="M246.209 33.7966C243.65 33.813 241.092 33.8317 239.172 33.8434C237.252 33.8762 235.973 33.8996 235.973 33.8996C235.973 33.8996 237.252 33.9206 239.172 33.9557C241.092 33.9674 243.65 33.9861 246.209 34.0025C248.767 33.9861 251.325 33.9674 253.246 33.9557C255.166 33.923 256.445 33.8996 256.445 33.8996C256.445 33.8996 255.166 33.8785 253.246 33.8434C251.328 33.8317 248.77 33.8153 246.209 33.7966Z" fill="white"/>
<path d="M246.209 35.4018C243.65 35.4182 241.092 35.4369 239.172 35.4486C237.252 35.4813 235.973 35.5024 235.973 35.5024C235.973 35.5024 237.252 35.5234 239.172 35.5585C241.092 35.5726 243.65 35.589 246.209 35.6054C248.767 35.589 251.325 35.5702 253.246 35.5585C255.166 35.5258 256.445 35.5024 256.445 35.5024C256.445 35.5024 255.166 35.4813 253.246 35.4462C251.328 35.4368 248.77 35.4182 246.209 35.4018Z" fill="white"/>
<path d="M246.209 37.007C243.65 37.0234 241.092 37.0421 239.172 37.0538C237.252 37.0865 235.973 37.1099 235.973 37.1099C235.973 37.1099 237.252 37.131 239.172 37.1638C241.092 37.1778 243.65 37.1941 246.209 37.2105C248.767 37.1941 251.325 37.1755 253.246 37.1638C255.166 37.131 256.445 37.1076 256.445 37.1076C256.445 37.1076 255.166 37.0865 253.246 37.0514C251.328 37.0397 248.77 37.0234 246.209 37.007Z" fill="white"/>
<path d="M317.931 108.831V91.7196L315.988 108.361C316.603 108.585 317.257 108.733 317.931 108.831Z" fill="white"/>
<path d="M302.714 92.6391H302.868C302.881 92.0003 302.881 91.1392 302.845 90.1027C302.773 87.8658 302.438 84.8661 301.718 81.8969C301.267 80.011 300.663 78.1672 300.024 76.5106H297.939C300.562 81.4313 302.209 86.8808 302.714 92.6391Z" fill="white"/>
<path d="M208.587 193.723C208.015 194.532 207.673 194.998 207.645 195.033L205.521 197.902H255.06L208.587 193.723Z" fill="white"/>
<path d="M287.028 75.1741C293.223 83.3753 294.755 93.0786 293.975 102.824C293.561 108.016 292.498 113.136 291.046 118.166C289.69 122.867 287.569 127.322 286.079 131.979C280.166 150.424 286.246 169.835 295.903 186.261C291.517 177.063 287.888 167.497 286.537 157.502C285.157 147.293 286.408 137.442 290.356 127.828C294.42 117.928 296.883 107.625 296.629 97.0119C296.397 87.4139 292.961 78.2159 285.649 71.1472C278.923 64.6448 270.234 61.2521 260.613 60.2343C271.235 62.1623 280.779 66.9004 287.028 75.1741Z" fill="white"/>
<path d="M84.7545 57.5389C95.5131 65.6535 109.615 68.9784 123.246 70.3776C135.263 71.6131 147.236 70.8877 159.236 69.919C153.19 69.7903 147.131 69.8675 141.088 69.6452C116.734 68.749 85.4186 64.1442 72.7168 42.4984C75.1259 48.4696 79.3907 53.491 84.7545 57.5389Z" fill="white"/>
<path d="M53.361 124.044C54.1949 97.0075 54.1666 69.8957 52.5142 42.8846C52.1358 49.0641 51.8604 55.2413 51.67 61.4255C50.8438 88.4624 50.8515 115.574 52.5142 142.585C52.8925 136.408 53.1705 130.229 53.361 124.044Z" fill="white"/>
<path d="M335.75 111.5C336.609 87.1941 336.514 62.7755 334.864 38.4996C334.481 44.1574 334.205 49.8174 334.01 55.4845C333.178 79.751 333.209 104.102 334.864 128.34C335.248 122.729 335.552 117.118 335.75 111.5Z" fill="white"/>
<path d="M338.342 231.45C308.782 231.253 279.219 231.141 249.659 231.085C218.084 231.024 186.511 231.048 154.935 231.108C125.308 231.167 95.6756 231.277 66.0484 231.562C49.993 231.717 33.935 231.874 17.877 232.028C18.1549 232.03 18.4329 232.033 18.7135 232.035C38.3594 232.225 58.0052 232.475 77.6512 232.604C107.211 232.8 136.774 232.912 166.334 232.971C197.91 233.032 229.483 233.011 261.058 232.95C290.686 232.891 320.318 232.784 349.945 232.496C366.003 232.339 382.058 232.185 398.116 232.028C397.839 232.026 397.561 232.023 397.28 232.021C377.637 231.766 357.986 231.581 338.342 231.45Z" fill="white"/>
<path d="M264.057 76.7771C270.824 78.9555 279.243 83.2959 280.303 90.4629C281.348 97.5128 274.363 102.824 268.134 105.625C261.386 108.66 254.091 109.855 246.656 110.415C255.952 110.614 265.496 109.399 273.503 104.792C280.306 100.878 285.283 93.7784 281.695 86.4617C278.221 79.3767 269.557 75.5628 261.751 73.6254C246.774 69.9074 226.49 71.819 215.695 82.9543C221.816 77.8558 229.882 75.3709 238.021 74.4326C246.663 73.4335 255.826 74.1261 264.057 76.7771Z" fill="white"/>
<path d="M351.7 92.3021C352.058 98.7624 351.571 105.354 351.548 111.826C351.525 118.391 351.607 124.959 351.708 131.525C351.751 134.344 351.159 137.901 352.606 140.489C353.882 142.775 356.528 144.188 359.336 144.151C356.737 144.05 354.32 142.707 353.154 140.568C351.823 138.126 352.454 134.869 352.495 132.232C352.596 125.689 352.668 119.147 352.67 112.605C352.673 106.079 352.835 99.4925 352.513 92.9714C352.235 87.3253 347.577 82.9194 341.266 82.9311C346.861 83.2095 351.412 87.1381 351.7 92.3021Z" fill="white"/>
<path d="M397.973 139.398C396.254 138.879 394.785 139.148 393.032 139.427C386.433 140.477 379.784 141.619 373.365 143.386C380.93 143.159 388.324 141.556 395.837 141.13C398.908 141.179 401.273 143.191 402.128 145.796C402.938 143.044 400.833 140.262 397.973 139.398Z" fill="white"/>
</g>
</svg>
