<svg width="249" height="59" viewBox="0 0 249 59" fill="none" xmlns="http://www.w3.org/2000/svg">
<path d="M1.85 37.15H5.25C5.28333 37.7167 5.41667 38.4167 5.65 39.25C5.88333 40.05 6.33333 40.8333 7 41.6C7.66667 42.3667 8.63333 43.0333 9.9 43.6C11.1667 44.1333 12.85 44.4 14.95 44.4C17.5833 44.4 19.6833 43.9 21.25 42.9C22.85 41.9 23.65 40.3167 23.65 38.15C23.65 36.4167 23.15 35.0333 22.15 34C21.15 32.9667 19.8833 32.1 18.35 31.4C16.85 30.6667 15.2167 30.0167 13.45 29.45C11.6833 28.8833 10.0333 28.2 8.5 27.4C7 26.6 5.75 25.6 4.75 24.4C3.75 23.2 3.25 21.6167 3.25 19.65C3.25 18.15 3.55 16.8167 4.15 15.65C4.78333 14.4833 5.61667 13.5167 6.65 12.75C7.71667 11.9833 8.93333 11.4 10.3 11C11.7 10.6 13.1667 10.4 14.7 10.4C16.1667 10.4 17.5667 10.5833 18.9 10.95C20.2667 11.2833 21.4833 11.8 22.55 12.5C23.6167 13.1667 24.5 14 25.2 15C25.9 15.9667 26.35 17.0667 26.55 18.3H23.15C22.8833 16.3333 21.9833 14.9 20.45 14C18.95 13.0667 17.1167 12.6 14.95 12.6C13.65 12.6 12.5 12.7667 11.5 13.1C10.5 13.4 9.65 13.8167 8.95 14.35C8.28333 14.85 7.76667 15.45 7.4 16.15C7.06667 16.85 6.9 17.6 6.9 18.4C6.9 19.8333 7.41667 20.9833 8.45 21.85C9.48333 22.7167 10.7667 23.4833 12.3 24.15C13.8667 24.8167 15.55 25.45 17.35 26.05C19.1833 26.65 20.8667 27.4 22.4 28.3C23.9667 29.1667 25.2667 30.2667 26.3 31.6C27.3333 32.9 27.85 34.5833 27.85 36.65C27.85 38.15 27.55 39.5167 26.95 40.75C26.35 41.9833 25.5 43.0333 24.4 43.9C23.3 44.7667 21.9667 45.4333 20.4 45.9C18.8667 46.3667 17.1333 46.6 15.2 46.6C13.3 46.6 11.55 46.3833 9.95 45.95C8.35 45.4833 6.95 44.85 5.75 44.05C4.58333 43.2167 3.65 42.2167 2.95 41.05C2.28333 39.8833 1.91667 38.5833 1.85 37.15ZM35.25 11H39.8V33.85C39.8 34.5167 39.8167 35.1833 39.85 35.85C39.8833 36.5167 40 37.1833 40.2 37.85C40.4 38.4833 40.7 39.1333 41.1 39.8C41.5 40.4667 42.0833 41.1333 42.85 41.8C43.8167 42.6667 44.8333 43.3167 45.9 43.75C47 44.1833 48.25 44.4 49.65 44.4C51.2833 44.4 52.85 44.1667 54.35 43.7C55.85 43.2333 57.2 42.35 58.4 41.05C59.0667 40.3167 59.5667 39.5833 59.9 38.85C60.2667 38.1167 60.5333 37.3833 60.7 36.65C60.8667 35.8833 60.9667 35.1333 61 34.4C61.0333 33.6333 61.05 32.8833 61.05 32.15V11H63.25V33.8C63.25 35.5667 62.9667 37.2333 62.4 38.8C61.8333 40.3333 60.9833 41.6833 59.85 42.85C58.75 44.0167 57.3667 44.9333 55.7 45.6C54.0667 46.2667 52.1833 46.6 50.05 46.6C46.65 46.6 43.9667 46.1333 42 45.2C40.0333 44.2333 38.55 43.05 37.55 41.65C36.55 40.2167 35.9167 38.6833 35.65 37.05C35.3833 35.3833 35.25 33.8667 35.25 32.5V11ZM76.6363 11L92.6863 41.05H92.8863L109.086 11H112.536V46H107.986V17.65H107.786L91.9863 46.6H91.0863L75.6363 17.45H75.4363V46H73.2363V11H76.6363ZM128.379 36.24V38.64H120.475V36.24H128.379ZM134.145 23.6H148.609V25.36H137.057V33.392H146.977V34.864H137.057V46H134.145V23.6ZM158.003 29.648C159.56 29.648 160.765 29.872 161.619 30.32C162.472 30.7467 163.091 31.312 163.475 32.016C163.88 32.72 164.115 33.5307 164.179 34.448C164.243 35.3653 164.275 36.304 164.275 37.264V46H161.683V44.432C161.064 45.0293 160.275 45.5093 159.315 45.872C158.355 46.2133 157.395 46.384 156.435 46.384C155.517 46.384 154.707 46.224 154.003 45.904C153.299 45.584 152.712 45.168 152.243 44.656C151.773 44.144 151.421 43.568 151.187 42.928C150.952 42.288 150.835 41.6373 150.835 40.976C150.835 40.2933 150.963 39.6107 151.219 38.928C151.475 38.2453 151.859 37.6373 152.371 37.104C152.883 36.5493 153.512 36.1013 154.259 35.76C155.005 35.4187 155.859 35.248 156.819 35.248C157.779 35.248 158.685 35.44 159.539 35.824C160.413 36.1867 161.128 36.7093 161.683 37.392V36.016C161.683 34.2667 161.416 32.9653 160.883 32.112C160.371 31.2587 159.421 30.832 158.035 30.832C157.437 30.832 156.915 30.9067 156.467 31.056C156.019 31.2053 155.613 31.4187 155.251 31.696C154.909 31.952 154.589 32.2827 154.291 32.688C153.992 33.072 153.693 33.5093 153.395 34L151.731 32.336C152.029 32.016 152.339 31.696 152.659 31.376C153 31.056 153.405 30.768 153.875 30.512C154.365 30.256 154.941 30.0533 155.603 29.904C156.264 29.7333 157.064 29.648 158.003 29.648ZM161.683 39.664C161.576 39.408 161.416 39.1093 161.203 38.768C161.011 38.4267 160.755 38.096 160.435 37.776C160.115 37.456 159.731 37.1893 159.283 36.976C158.835 36.7413 158.301 36.624 157.683 36.624C157.064 36.624 156.499 36.752 155.987 37.008C155.475 37.2427 155.037 37.5627 154.675 37.968C154.333 38.352 154.067 38.8107 153.875 39.344C153.683 39.8773 153.587 40.432 153.587 41.008C153.587 41.6907 153.704 42.288 153.939 42.8C154.195 43.2907 154.515 43.7173 154.899 44.08C155.283 44.4213 155.709 44.6773 156.179 44.848C156.648 45.0187 157.096 45.104 157.523 45.104C157.928 45.104 158.333 45.0293 158.739 44.88C159.165 44.7307 159.56 44.528 159.923 44.272C160.307 43.9947 160.648 43.6747 160.947 43.312C161.245 42.9493 161.491 42.5547 161.683 42.128V39.664ZM179.604 33.648H177.78C177.78 33.3707 177.705 33.072 177.556 32.752C177.407 32.432 177.172 32.144 176.852 31.888C176.532 31.6107 176.137 31.3867 175.668 31.216C175.199 31.024 174.644 30.928 174.004 30.928C173.364 30.928 172.831 31.024 172.404 31.216C171.977 31.3867 171.636 31.6107 171.38 31.888C171.124 32.144 170.943 32.432 170.836 32.752C170.729 33.0507 170.676 33.3387 170.676 33.616C170.676 34.2773 170.911 34.7893 171.38 35.152C171.871 35.5147 172.479 35.824 173.204 36.08C173.929 36.336 174.708 36.5813 175.54 36.816C176.393 37.0507 177.183 37.36 177.908 37.744C178.633 38.1067 179.231 38.5973 179.7 39.216C180.191 39.8347 180.436 40.656 180.436 41.68C180.436 43.088 179.935 44.2293 178.932 45.104C177.951 45.9573 176.479 46.384 174.516 46.384C173.428 46.384 172.468 46.256 171.636 46C170.825 45.7227 170.132 45.36 169.556 44.912C169.001 44.464 168.585 43.9627 168.308 43.408C168.031 42.832 167.892 42.2453 167.892 41.648H169.972C169.972 41.904 170.047 42.224 170.196 42.608C170.367 42.992 170.633 43.376 170.996 43.76C171.38 44.1227 171.86 44.4427 172.436 44.72C173.033 44.976 173.759 45.104 174.612 45.104C175.295 45.104 175.86 45.0187 176.308 44.848C176.756 44.656 177.108 44.432 177.364 44.176C177.62 43.8987 177.791 43.6 177.876 43.28C177.983 42.96 178.036 42.6507 178.036 42.352C178.036 41.648 177.801 41.0933 177.332 40.688C176.863 40.2827 176.276 39.952 175.572 39.696C174.868 39.4187 174.1 39.1733 173.268 38.96C172.457 38.7253 171.7 38.4267 170.996 38.064C170.292 37.7013 169.705 37.2213 169.236 36.624C168.767 36.0267 168.532 35.216 168.532 34.192C168.532 33.4453 168.671 32.7947 168.948 32.24C169.225 31.664 169.599 31.184 170.068 30.8C170.559 30.416 171.124 30.128 171.764 29.936C172.425 29.744 173.129 29.648 173.876 29.648C174.665 29.648 175.401 29.7547 176.084 29.968C176.788 30.16 177.396 30.4373 177.908 30.8C178.441 31.1413 178.857 31.5573 179.156 32.048C179.455 32.5387 179.604 33.072 179.604 33.648ZM184.771 23.6H187.491V32.176H187.619L187.971 31.728C188.696 30.9173 189.464 30.3733 190.275 30.096C191.107 29.7973 191.896 29.648 192.643 29.648C193.198 29.648 193.774 29.7227 194.371 29.872C194.99 30.0213 195.555 30.3093 196.067 30.736C196.579 31.1627 197.006 31.76 197.347 32.528C197.688 33.2747 197.859 34.2453 197.859 35.44V46H195.139V36.176C195.139 35.536 195.096 34.9173 195.011 34.32C194.947 33.7227 194.798 33.2 194.563 32.752C194.328 32.304 193.987 31.952 193.539 31.696C193.112 31.4187 192.536 31.28 191.811 31.28C190.787 31.28 189.987 31.4933 189.411 31.92C188.835 32.3253 188.398 32.816 188.099 33.392C187.822 33.968 187.651 34.5653 187.587 35.184C187.523 35.8027 187.491 36.3253 187.491 36.752V46H184.771V23.6ZM204.014 30H206.734V46H204.014V30ZM203.63 24.944C203.63 24.4747 203.8 24.0693 204.142 23.728C204.483 23.3867 204.888 23.216 205.358 23.216C205.827 23.216 206.232 23.3867 206.574 23.728C206.915 24.0693 207.086 24.4747 207.086 24.944C207.086 25.4133 206.915 25.8187 206.574 26.16C206.232 26.5013 205.827 26.672 205.358 26.672C204.888 26.672 204.483 26.5013 204.142 26.16C203.8 25.8187 203.63 25.4133 203.63 24.944ZM228.449 38.032C228.449 39.1413 228.257 40.208 227.873 41.232C227.489 42.2347 226.935 43.12 226.209 43.888C225.505 44.656 224.641 45.264 223.617 45.712C222.615 46.16 221.484 46.384 220.225 46.384C218.945 46.384 217.783 46.16 216.737 45.712C215.713 45.2427 214.839 44.624 214.113 43.856C213.409 43.088 212.855 42.2027 212.449 41.2C212.065 40.176 211.873 39.12 211.873 38.032C211.873 36.9227 212.065 35.8667 212.449 34.864C212.855 33.84 213.409 32.944 214.113 32.176C214.839 31.408 215.713 30.8 216.737 30.352C217.783 29.8827 218.945 29.648 220.225 29.648C221.484 29.648 222.615 29.8827 223.617 30.352C224.641 30.8 225.505 31.408 226.209 32.176C226.935 32.944 227.489 33.84 227.873 34.864C228.257 35.8667 228.449 36.9227 228.449 38.032ZM225.409 38.032C225.409 36.5387 225.249 35.3333 224.929 34.416C224.609 33.4773 224.193 32.752 223.681 32.24C223.169 31.728 222.604 31.3867 221.985 31.216C221.367 31.024 220.769 30.928 220.193 30.928C219.617 30.928 219.02 31.024 218.401 31.216C217.783 31.3867 217.207 31.728 216.673 32.24C216.161 32.752 215.735 33.4773 215.393 34.416C215.073 35.3333 214.913 36.5387 214.913 38.032C214.913 39.504 215.073 40.7093 215.393 41.648C215.735 42.5653 216.161 43.28 216.673 43.792C217.207 44.304 217.783 44.656 218.401 44.848C219.02 45.0187 219.617 45.104 220.193 45.104C220.769 45.104 221.367 45.0187 221.985 44.848C222.604 44.656 223.169 44.304 223.681 43.792C224.193 43.28 224.609 42.5653 224.929 41.648C225.249 40.7093 225.409 39.504 225.409 38.032ZM245.991 46H243.271V35.472C243.271 35.2587 243.249 34.9173 243.207 34.448C243.164 33.9787 243.025 33.5093 242.791 33.04C242.577 32.5707 242.225 32.1653 241.735 31.824C241.244 31.4613 240.551 31.28 239.655 31.28C239.1 31.28 238.556 31.376 238.023 31.568C237.511 31.76 237.052 32.0587 236.647 32.464C236.241 32.8693 235.921 33.3707 235.687 33.968C235.452 34.5653 235.335 35.28 235.335 36.112V46H232.615V30H235.335V32.048H235.463L235.975 31.536C236.721 30.7893 237.479 30.288 238.247 30.032C239.015 29.7547 239.708 29.6267 240.327 29.648C241.735 29.648 242.823 29.8933 243.591 30.384C244.359 30.8533 244.913 31.4187 245.255 32.08C245.617 32.72 245.831 33.3813 245.895 34.064C245.959 34.7253 245.991 35.248 245.991 35.632V46Z" fill="#00113E"/>
</svg>
