<svg width="44" height="44" viewBox="0 0 44 44" fill="none" xmlns="http://www.w3.org/2000/svg">
<path d="M22 44C34.1503 44 44 34.1503 44 22C44 9.84974 34.1503 0 22 0C9.84974 0 0 9.84974 0 22C0 34.1503 9.84974 44 22 44Z" fill="#D4DCE6"/>
<mask id="mask0_350_18424" style="mask-type:luminance" maskUnits="userSpaceOnUse" x="0" y="0" width="44" height="44">
<path d="M22 44C34.1503 44 44 34.1503 44 22C44 9.84974 34.1503 0 22 0C9.84974 0 0 9.84974 0 22C0 34.1503 9.84974 44 22 44Z" fill="white"/>
</mask>
<g mask="url(#mask0_350_18424)">
<path d="M34.9766 22.8622V43.3042L9.07422 42.8634V22.4214L34.9766 22.8622Z" fill="#421800"/>
<path d="M31.7918 13.6286V19.6563C31.7918 19.762 31.7892 19.8679 31.7871 19.9736C31.7845 20.0602 31.7822 20.1443 31.7773 20.2309C31.7749 20.3078 31.7702 20.3848 31.763 20.4617C31.7607 20.5169 31.756 20.5723 31.7511 20.6277C31.7485 20.6614 31.7464 20.6925 31.7415 20.7262C31.7368 20.7863 31.7317 20.8487 31.7221 20.9088C31.7125 21.0244 31.698 21.1373 31.6811 21.2526C31.6788 21.2816 31.6741 21.3104 31.6692 21.3391C31.662 21.3969 31.6524 21.4547 31.6428 21.5122V21.5194C31.6285 21.6034 31.614 21.6852 31.5993 21.7694C31.5778 21.885 31.556 22.0002 31.5322 22.1132C31.5296 22.1181 31.5296 22.1228 31.5275 22.1277C31.5249 22.1445 31.5226 22.1614 31.5177 22.1782C31.5153 22.1831 31.5153 22.1878 31.513 22.1927C31.5011 22.2554 31.4868 22.3153 31.4721 22.3754C31.4674 22.4018 31.4625 22.4284 31.4529 22.4546C31.4459 22.4979 31.4337 22.5412 31.4241 22.5844C31.4169 22.6085 31.412 22.6349 31.4024 22.659C31.3977 22.6808 31.3905 22.7023 31.3855 22.7217C31.335 22.9188 31.2775 23.1113 31.2172 23.3035C31.1884 23.395 31.1596 23.4838 31.1283 23.5753C31.1257 23.5849 31.121 23.5945 31.1187 23.604C31.0897 23.6859 31.0609 23.7675 31.0322 23.8494C31.0226 23.8735 31.013 23.8975 31.0032 23.924C30.9744 24.0009 30.9457 24.0778 30.9143 24.1548C30.8783 24.2486 30.8397 24.34 30.8014 24.4314C30.7677 24.5133 30.7317 24.5949 30.6957 24.6765C30.6908 24.691 30.6835 24.7029 30.6788 24.7174C30.6379 24.804 30.5995 24.8905 30.5586 24.9747C30.5177 25.0636 30.4744 25.1527 30.4286 25.2415C30.3421 25.4172 30.2485 25.5925 30.1545 25.7633L30.0247 25.9941C29.6543 26.6311 29.2432 27.23 28.796 27.7829C28.7357 27.8624 28.6735 27.9393 28.6082 28.0137C28.5194 28.122 28.4279 28.2277 28.3367 28.331C28.2598 28.4176 28.1803 28.5064 28.0984 28.5906C28.0961 28.5955 28.0935 28.5979 28.0888 28.6025C27.8583 28.8504 27.6225 29.0859 27.3821 29.3072C27.3339 29.3553 27.2834 29.3986 27.2329 29.4442C27.1511 29.5188 27.0695 29.5911 26.9853 29.6607C26.9205 29.7185 26.8531 29.7737 26.7858 29.8291C26.6127 29.9708 26.4397 30.1079 26.2643 30.2353C26.192 30.2905 26.1174 30.3436 26.043 30.3941C25.9228 30.4807 25.8003 30.5625 25.6775 30.6418C25.6102 30.6874 25.5405 30.7309 25.4706 30.7718C25.2252 30.9233 24.9778 31.0627 24.7325 31.1829C24.6724 31.2143 24.6123 31.243 24.5522 31.272C24.4919 31.3008 24.4297 31.3296 24.3644 31.3586C24.2851 31.3946 24.2059 31.4282 24.1263 31.4596C24.095 31.4741 24.0637 31.486 24.0328 31.4956C23.939 31.534 23.8429 31.57 23.7489 31.6013C23.631 31.6448 23.5108 31.6808 23.3932 31.7143C23.3113 31.7383 23.2274 31.7599 23.1455 31.779C23.1406 31.7816 23.1357 31.7839 23.1287 31.7839C23.0469 31.8031 22.9652 31.8225 22.8834 31.837C22.8616 31.8419 22.8401 31.8466 22.8186 31.849C22.7513 31.8611 22.6839 31.8733 22.6166 31.8803C22.5204 31.895 22.4243 31.9067 22.3282 31.9116C22.2948 31.9163 22.2634 31.9189 22.2295 31.9189C22.1526 31.9236 22.0782 31.9259 22.0036 31.9259H21.994C21.9194 31.9259 21.8448 31.9236 21.7702 31.9189C21.7415 31.9189 21.7127 31.9163 21.6839 31.9116C21.6166 31.9093 21.5466 31.902 21.4746 31.8925C21.4599 31.8925 21.4433 31.8899 21.429 31.8878C21.3399 31.8756 21.2508 31.8614 21.1596 31.8443C21.0827 31.8324 21.006 31.8155 20.9265 31.7963C20.5153 31.7026 20.0923 31.5606 19.6643 31.3707C19.2988 31.2098 18.9286 31.015 18.5607 30.7891C18.3755 30.6762 18.1903 30.5557 18.0077 30.4283C17.9162 30.3635 17.825 30.2985 17.7336 30.2311C17.4473 30.0218 17.1637 29.7936 16.8847 29.5483C16.808 29.4786 16.731 29.4086 16.6541 29.3369C16.5772 29.2669 16.5002 29.1949 16.4256 29.1252C16.2477 28.9547 16.0746 28.7791 15.9086 28.5939C15.8964 28.5843 15.8868 28.5724 15.8772 28.5628C15.8075 28.4882 15.7376 28.411 15.6681 28.332C15.4759 28.1154 15.2884 27.8918 15.1104 27.6587C15.0405 27.5745 14.9757 27.4882 14.9107 27.4012C14.6677 27.0792 14.4371 26.7427 14.2206 26.3937C14.163 26.3 14.1053 26.2039 14.0501 26.1101C13.9827 25.9971 13.918 25.8816 13.8529 25.7663C13.6125 25.3334 13.3911 24.884 13.1988 24.4197C13.1701 24.3524 13.1411 24.285 13.117 24.2177C13.0784 24.1312 13.0447 24.0421 13.0136 23.9558C12.9657 23.8281 12.9201 23.7009 12.8766 23.5734C12.8333 23.446 12.7926 23.3162 12.7517 23.1864C12.7131 23.0613 12.6771 22.9364 12.6434 22.8089C12.6048 22.6742 12.5688 22.5372 12.5377 22.3978C12.5351 22.3833 12.5305 22.3688 12.5279 22.3545C12.4823 22.1623 12.4416 21.9675 12.4056 21.7704C12.3574 21.5108 12.3191 21.2463 12.2901 20.9795C12.2781 20.8953 12.2709 20.8111 12.2636 20.7269C12.254 20.638 12.247 20.5515 12.2421 20.4624C12.23 20.3013 12.2227 20.1378 12.2178 19.9743C12.2155 19.8686 12.2129 19.7627 12.2129 19.657V13.6286C12.2129 8.40395 16.3078 4.13369 21.4648 3.8547C21.4746 3.85213 21.4816 3.85213 21.4912 3.85213C21.5586 3.84979 21.6259 3.84722 21.6933 3.84488C21.7943 3.84254 21.8928 3.83997 21.9938 3.83997H22.0034C22.1065 3.83997 22.2101 3.8423 22.3135 3.84488C22.3927 3.84722 22.4723 3.84979 22.5515 3.8547H22.5588C23.1093 3.8858 23.6504 3.96274 24.1719 4.08061C24.8092 4.2249 25.4224 4.43163 26.004 4.69378C26.7977 5.04948 27.5358 5.50644 28.1995 6.05227C28.7572 6.50923 29.2647 7.02371 29.7069 7.59106C30.9957 9.23321 31.7721 11.2963 31.7889 13.5418C31.7918 13.5708 31.7918 13.5996 31.7918 13.6286Z" fill="#F0D0B4"/>
<path d="M34.7562 46.9459V46.9485H9.24805V46.9459C9.24805 45.5201 9.4812 44.1448 9.91641 42.8635C9.92132 42.8513 9.92366 42.8391 9.92857 42.8274C10.0079 42.5943 10.0944 42.3635 10.1882 42.135V42.1324C10.2796 41.9039 10.3804 41.6804 10.4861 41.4591C10.907 40.5719 11.4311 39.7424 12.0394 38.9826C12.1933 38.7927 12.3497 38.6075 12.5108 38.4297C12.5901 38.3383 12.6743 38.2494 12.7585 38.1606C12.8427 38.074 12.9269 37.9875 13.0134 37.901C13.4439 37.4704 13.9053 37.0764 14.3913 36.7132C14.634 36.5329 14.8794 36.3645 15.1343 36.2011C15.1679 36.1795 15.2016 36.1578 15.2353 36.1386C15.3291 36.0783 15.4228 36.0208 15.5192 35.9656C15.649 35.8886 15.7811 35.814 15.9135 35.7418C15.9184 35.7371 15.9231 35.7371 15.9231 35.7371C16.0264 35.6819 16.1275 35.6218 16.2285 35.5591C16.529 35.3788 16.8178 35.1793 17.0917 34.9581C18.253 34.0351 19.1522 32.7942 19.6643 31.3707C19.8135 30.9523 19.9312 30.5174 20.0104 30.0702C20.0923 29.6084 20.1356 29.1325 20.1356 28.6467L21.994 28.6563H22.0251L23.9054 28.6659C23.9054 29.142 23.9463 29.6084 24.0258 30.063C24.1027 30.5101 24.218 30.943 24.3647 31.359C24.8696 32.787 25.7664 34.0327 26.9277 34.9607C27.1008 35.1024 27.2764 35.2322 27.4614 35.355C27.4808 35.3697 27.4974 35.3814 27.5168 35.3935C27.6034 35.4513 27.6899 35.5088 27.7813 35.5619C27.8798 35.622 27.981 35.6821 28.0818 35.7373C28.0984 35.742 28.1132 35.7495 28.1251 35.7591C28.3367 35.8769 28.546 35.9995 28.7504 36.1269C28.767 36.1365 28.7815 36.1461 28.7984 36.1583C28.8802 36.2088 28.9644 36.2614 29.0437 36.3194C29.2434 36.4468 29.4382 36.5865 29.6279 36.7307C29.6279 36.7331 29.6304 36.7331 29.6304 36.7331H29.6328C29.8758 36.9134 30.1113 37.1059 30.3421 37.303C30.5729 37.5001 30.7941 37.7071 31.0081 37.9211C32.3883 39.2938 33.4533 40.9818 34.0883 42.8646C34.5204 44.145 34.7562 45.518 34.7562 46.9459Z" fill="#F0D0B4"/>
<path d="M34.7562 46.946H9.24805C9.24805 45.5201 9.4812 44.1448 9.91641 42.8635C9.92132 42.8513 9.92366 42.8392 9.92857 42.8275C10.0079 42.5943 10.0944 42.3635 10.1882 42.135V42.1325C10.2796 41.904 10.3804 41.6804 10.4861 41.4592C10.907 40.5719 11.4311 39.7424 12.0394 38.9826C12.1933 38.7927 12.3497 38.6075 12.5108 38.4298C12.5901 38.3383 12.6743 38.2495 12.7585 38.1606C12.8427 38.0741 12.9269 37.9875 13.0134 37.901C13.4439 37.4705 13.9053 37.0764 14.3913 36.7133C14.634 36.5329 14.8794 36.3646 15.1343 36.2011C15.1679 36.1796 15.2016 36.1578 15.2353 36.1387C15.3291 36.0783 15.4228 36.0208 15.5192 35.9656C15.649 35.8861 15.7811 35.8117 15.9135 35.7395C15.9184 35.7346 15.9231 35.7369 15.9231 35.7369V35.7346C16.0264 35.6768 16.1275 35.6193 16.2285 35.5589C16.529 35.3763 16.8178 35.1742 17.087 34.953C17.0893 34.9556 17.0893 34.9556 17.0919 34.9579C18.3372 36.2322 20.0708 37.0234 21.9945 37.0283H22.0256C23.9444 37.0257 25.6803 36.2324 26.9282 34.9605L26.9308 34.9579C27.1013 35.0996 27.2792 35.232 27.4619 35.3545C27.4813 35.3693 27.4979 35.381 27.5173 35.3931C27.6038 35.4509 27.6927 35.5061 27.7818 35.5615C27.8803 35.6216 27.9815 35.6794 28.0823 35.7346C28.0989 35.7395 28.1111 35.7491 28.1256 35.7563C28.3372 35.8739 28.5465 35.9965 28.7509 36.1265C28.7675 36.1361 28.782 36.1457 28.7988 36.1578C28.8807 36.2084 28.9649 36.261 29.0442 36.319C29.2439 36.4464 29.4387 36.586 29.6283 36.7303H29.6333C29.8762 36.913 30.1143 37.1029 30.3425 37.3023C30.5734 37.4995 30.7946 37.7065 31.0086 37.9204C32.3888 39.2932 33.4538 40.9812 34.0887 42.864C34.5204 44.145 34.7562 45.518 34.7562 46.946Z" fill="#B34FC5"/>
<path d="M35.0323 39.8923C35.0154 39.8995 34.9963 39.907 34.9769 39.9091C33.7124 40.2384 28.7256 34.2292 28.6751 27.9297C28.6727 27.4223 28.6992 26.9124 28.7642 26.4005C28.9325 25.042 29.5867 23.7364 30.1299 22.4212C30.5579 21.3801 30.9208 20.3366 30.9208 19.2594C30.9208 13.489 29.2476 15.3692 24.5807 12.2554C23.453 11.5051 22.6523 10.8896 22.0246 10.3894C20.2912 9.01409 19.8511 8.52135 17.4732 8.52135C14.4483 8.52135 13.2463 13.7747 12.9025 16.0205C12.5323 18.4369 12.5274 22.3536 14.0351 26.0827C15.2032 28.9723 15.2034 31.8052 12.9025 34.9525C12.0393 36.1333 10.7168 40.1219 9.07469 41.4082C8.56277 41.8097 8.02163 41.9493 7.45195 41.6582C2.96514 39.3621 5.66527 31.9926 7.01182 27.3785C8.46175 22.4135 8.8993 17.3811 9.95236 12.3679C11.1399 6.72321 15.9726 3.28245 17.9251 4.67718C18.5766 3.50859 20.2814 3.07104 22.0244 3.07104C23.3012 3.07104 24.602 3.30911 25.5252 3.66738C32.6542 6.43486 32.7746 13.0421 33.1544 15.7901C33.4671 18.06 34.5849 20.1806 34.9769 22.4214V22.4287C35.061 22.8999 35.1116 23.3807 35.1141 23.8664C35.1307 26.4896 34.8375 28.2641 36.8309 30.4496C38.343 32.1062 37.1866 38.9475 35.0323 39.8923Z" fill="#421800"/>
<path d="M22.0242 37.028L22.0172 37.0402L22.0146 37.0449C21.3367 38.0979 20.2139 38.6461 19.0813 38.6461C18.1604 38.6461 17.2348 38.2831 16.54 37.5378L15.2344 36.1387C15.4556 35.9967 15.6815 35.8643 15.9123 35.7395C15.9172 35.7346 15.9219 35.7369 15.9219 35.7369V35.7346C16.0253 35.6768 16.1263 35.6193 16.2273 35.5589C16.5278 35.3763 16.8167 35.1742 17.0858 34.953C17.0882 34.9556 17.0882 34.9556 17.0907 34.9579C18.336 36.2322 20.0696 37.0234 21.9934 37.0283L22.0242 37.028Z" fill="#E7ECF2"/>
<path d="M28.7967 36.1576L27.5105 37.5376C26.8154 38.2831 25.8898 38.6458 24.9665 38.6458C23.8365 38.6458 22.7112 38.0976 22.0356 37.0446L22.0333 37.0399L22.0234 37.0277C23.9422 37.0252 25.6782 36.2319 26.926 34.96L26.9286 34.9574C27.0991 35.0991 27.2771 35.2315 27.4597 35.354C27.4791 35.3688 27.4957 35.3804 27.5151 35.3926C27.6017 35.4504 27.6905 35.5056 27.7796 35.561C27.8781 35.6211 27.9793 35.6789 28.0801 35.734C28.0967 35.739 28.1089 35.7485 28.1234 35.7558C28.335 35.8734 28.5443 35.996 28.7487 36.126C28.7653 36.1358 28.7796 36.1454 28.7967 36.1576Z" fill="#E7ECF2"/>
</g>
</svg>
