<svg width="40" height="40" viewBox="0 0 40 40" fill="none" xmlns="http://www.w3.org/2000/svg">
<g clip-path="url(#clip0_350_17239)">
<path d="M19.9929 1.4231C24.7512 1.4231 28.5717 5.24365 28.5717 10.0019C28.5717 14.7602 24.7512 18.5807 19.9929 18.5807C15.2346 18.5807 11.4141 14.7602 11.4141 10.0019C11.4141 5.24365 15.2346 1.4231 19.9929 1.4231Z" fill="#CCE7F6"/>
<path d="M19.9946 0.000610352C14.4884 0.000610352 9.99414 4.49492 9.99414 10.0011C9.99414 15.5073 14.4884 20.0016 19.9946 20.0016C25.5008 20.0016 29.9951 15.5073 29.9951 10.0011C29.9951 4.49492 25.5008 0.000610352 19.9946 0.000610352ZM19.9946 2.85789C23.9566 2.85789 27.1378 6.03911 27.1378 10.0011C27.1378 13.9631 23.9566 17.1443 19.9946 17.1443C16.0326 17.1443 12.8514 13.9631 12.8514 10.0011C12.8514 6.03911 16.0326 2.85789 19.9946 2.85789Z" fill="#00113E"/>
<path d="M3.76242 31.225C2.55253 33.2718 2.60601 35.5747 3.6536 37.2605C4.70118 38.9463 6.65299 40.0006 8.87149 40.0006H11.4274C12.2164 40.0006 12.8561 39.3609 12.8561 38.5719C12.8561 37.7829 12.2164 37.1433 11.4274 37.1433H8.87149C7.5391 37.1433 6.57252 36.5489 6.07838 35.7537C5.58424 34.9585 5.47287 33.9486 6.22348 32.6788C9.26885 27.5269 14.3724 24.3137 19.9909 24.2911C25.6173 24.3057 30.7286 27.5203 33.7779 32.6788C34.5285 33.9486 34.4171 34.9585 33.9229 35.7537C33.4288 36.5489 32.4622 37.1433 31.1298 37.1433H17.142C16.353 37.1433 15.7133 37.7829 15.7133 38.5719C15.7133 39.3609 16.353 40.0006 17.142 40.0006H31.1298C33.3483 40.0006 35.3001 38.9463 36.3477 37.2605C37.3953 35.5747 37.4488 33.2718 36.2389 31.225C32.7385 25.3034 26.7099 21.4513 19.995 21.4541C13.2801 21.457 7.26009 25.308 3.76242 31.225Z" fill="#00113E"/>
</g>
<defs>
<clipPath id="clip0_350_17239">
<rect width="40" height="40" fill="white"/>
</clipPath>
</defs>
</svg>
