<svg width="410" height="400" viewBox="0 0 410 400" fill="none" xmlns="http://www.w3.org/2000/svg">
<path d="M410.002 269.138H252.74V178.667H410.002V269.138ZM253.7 268.184H409.042V179.62H253.7V268.184Z" fill="#E0E0E0"/>
<path d="M377.56 226.905H273.781V229.931H377.56V226.905Z" fill="#F0F0F0"/>
<path d="M384.707 238.182H273.781V241.483H384.707V238.182Z" fill="#F0F0F0"/>
<path d="M384.707 249.59H273.781V252.891H384.707V249.59Z" fill="#F0F0F0"/>
<path d="M310.051 210.527H273.781V218.377H310.051V210.527Z" fill="#F0F0F0"/>
<path d="M409.523 179.143H253.221V193.546H409.523V179.143Z" fill="#E0E0E0"/>
<path d="M397.492 191.394C397.293 191.204 399.307 188.79 401.989 186.001C404.674 183.212 407.011 181.106 407.21 181.296C407.41 181.486 405.395 183.9 402.711 186.688C400.029 189.476 397.692 191.583 397.492 191.394Z" fill="white"/>
<path d="M407.211 191.393C407.012 191.583 404.675 189.476 401.991 186.688C399.306 183.899 397.293 181.484 397.492 181.295C397.692 181.107 400.028 183.212 402.712 186.001C405.396 188.789 407.411 191.203 407.211 191.393Z" fill="white"/>
<path d="M216.457 0H60.1543V89.5175H216.457V0Z" fill="#E6E6E6"/>
<path d="M184.497 47.762H80.7188V50.7877H184.497V47.762Z" fill="#F0F0F0"/>
<path d="M191.645 59.0388H80.7188V62.3393H191.645V59.0388Z" fill="#F0F0F0"/>
<path d="M191.645 70.4465H80.7188V73.747H191.645V70.4465Z" fill="#F0F0F0"/>
<path d="M116.988 31.3848H80.7188V39.2343H116.988V31.3848Z" fill="#F0F0F0"/>
<path d="M216.457 0H60.1543V14.4018H216.457V0Z" fill="#E0E0E0"/>
<path d="M203.896 12.1819C203.697 11.992 205.711 9.57775 208.394 6.78954C211.078 4.00037 213.415 1.89419 213.615 2.08306C213.814 2.27288 211.8 4.68622 209.115 7.47538C206.434 10.2636 204.096 12.3707 203.896 12.1819Z" fill="white"/>
<path d="M213.615 12.1825C213.416 12.3723 211.079 10.2652 208.395 7.47695C205.71 4.68779 203.698 2.27351 203.896 2.08464C204.096 1.89481 206.433 4.00195 209.116 6.79111C211.802 9.57837 213.815 11.9927 213.615 12.1825Z" fill="white"/>
<path d="M157.262 166.297H0V75.8254H157.262V166.297ZM0.959715 165.343H156.302V76.7793H0.959715V165.343Z" fill="#E0E0E0"/>
<path d="M124.822 124.063H21.043V127.089H124.822V124.063Z" fill="#F0F0F0"/>
<path d="M131.97 135.341H21.043V138.642H131.97V135.341Z" fill="#F0F0F0"/>
<path d="M131.97 146.749H21.043V150.049H131.97V146.749Z" fill="#F0F0F0"/>
<path d="M57.3125 107.686H21.043V115.537H57.3125V107.686Z" fill="#F0F0F0"/>
<path d="M156.783 76.3022H0.480469V90.705H156.783V76.3022Z" fill="#E0E0E0"/>
<path d="M338.752 187.028H154.195V351.246H338.752V187.028Z" fill="#E6E6E6"/>
<path d="M163.476 135.297H18.9062V284.589H163.476V135.297Z" fill="#F0F0F0"/>
<path d="M163.476 135.297H18.9062V151.564H163.476V135.297Z" fill="#E0E0E0"/>
<path d="M30.8446 143.264C30.8446 145.006 29.4856 146.417 27.809 146.417C26.1324 146.417 24.7734 145.006 24.7734 143.264C24.7734 141.522 26.1324 140.11 27.809 140.11C29.4856 140.11 30.8446 141.522 30.8446 143.264Z" fill="white"/>
<path d="M43.1551 143.264C43.1551 145.005 41.7962 146.417 40.1196 146.417C38.4429 146.417 37.084 145.005 37.084 143.264C37.084 141.522 38.4429 140.11 40.1196 140.11C41.7962 140.11 43.1551 141.522 43.1551 143.264Z" fill="white"/>
<path d="M55.4696 143.264C55.4696 145.005 54.1106 146.417 52.434 146.417C50.7574 146.417 49.3984 145.005 49.3984 143.264C49.3984 141.522 50.7574 140.11 52.434 140.11C54.1106 140.11 55.4696 141.522 55.4696 143.264Z" fill="white"/>
<path d="M389.362 32.6523H204.805V215.475H389.362V32.6523Z" fill="#F0F0F0"/>
<path d="M389.362 32.6523H204.805V54.0671H389.362V32.6523Z" fill="#E0E0E0"/>
<path d="M220.521 43.1393C220.521 45.4325 218.732 47.2916 216.525 47.2916C214.318 47.2916 212.529 45.4325 212.529 43.1393C212.529 40.8462 214.318 38.988 216.525 38.988C218.731 38.988 220.521 40.8472 220.521 43.1393Z" fill="white"/>
<path d="M235.563 40.3323C237.194 41.9539 237.251 44.5256 235.691 46.0756C234.13 47.6267 231.543 47.5694 229.912 45.9488C228.282 44.3272 228.223 41.7555 229.784 40.2045C231.343 38.6535 233.931 38.7107 235.563 40.3323Z" fill="white"/>
<path d="M252.941 43.1393C252.941 45.4325 251.152 47.2916 248.945 47.2916C246.737 47.2916 244.949 45.4325 244.949 43.1393C244.949 40.8462 246.737 38.988 248.945 38.988C251.152 38.988 252.941 40.8472 252.941 43.1393Z" fill="white"/>
<path d="M349.492 399.752C349.492 399.888 282.851 400 200.662 400C118.447 400 51.8184 399.889 51.8184 399.752C51.8184 399.615 118.446 399.503 200.662 399.503C282.851 399.504 349.492 399.616 349.492 399.752Z" fill="#263238"/>
<path d="M284.552 282.978C269.727 272.683 266.363 253.574 266.949 236.396C267.047 233.529 266.729 230.506 268.102 227.99C269.475 225.474 272.677 223.755 275.259 224.963C277.401 225.965 278.335 228.442 279.534 230.491C281.128 233.216 283.504 235.472 286.3 236.913C288.137 237.86 290.409 238.44 292.223 237.446C294.712 236.081 295.005 232.665 294.987 229.812C294.954 224.497 294.921 219.181 294.887 213.867C294.869 211.016 294.862 208.104 295.753 205.398C296.646 202.691 298.617 200.177 301.346 199.417C304.077 198.658 307.451 200.221 308.028 203.013C308.268 204.175 308.03 205.381 308.109 206.564C308.189 207.748 308.744 209.058 309.875 209.388C311.02 209.723 312.169 208.914 313.026 208.079C315.988 205.2 317.997 201.491 319.876 197.802C321.754 194.113 323.576 190.337 326.263 187.196C328.951 184.054 332.668 181.567 336.776 181.335C340.886 181.104 345.264 183.624 346.302 187.634C347.344 191.655 344.984 195.734 342.415 198.989C338.605 203.817 334.099 208.088 329.08 211.623C328.176 212.261 327.195 212.951 326.85 214.007C326.227 215.908 328.039 217.796 329.928 218.421C332.066 219.129 334.386 218.909 336.624 219.17C338.861 219.431 341.285 220.413 342.13 222.514C343.306 225.429 340.853 228.485 338.439 230.485C333.607 234.492 328.089 237.658 322.202 239.801C320.092 240.569 317.87 241.243 316.168 242.717C314.467 244.191 313.439 246.753 314.468 248.762C315.496 250.773 318.136 251.416 320.347 251.008C322.557 250.6 324.536 249.407 326.643 248.617C330.586 247.138 335.678 247.408 338.204 250.795C339.864 253.021 340.01 256.122 339.171 258.775C338.332 261.429 336.629 263.715 334.821 265.824C328.502 273.193 320.411 279.125 311.264 282.278C302.118 285.43 293.643 286.282 284.552 282.978Z" fill="#0085D0"/>
<path d="M342.154 183.722C342.161 183.729 342.066 183.821 341.876 183.993C341.664 184.181 341.381 184.431 341.023 184.749C340.272 185.409 339.163 186.383 337.771 187.675C334.983 190.252 331.066 194.128 326.812 199.432C324.677 202.075 322.459 205.067 320.135 208.323C317.817 211.584 315.363 215.084 312.921 218.86C310.48 222.633 308.035 226.678 305.842 231.047C304.737 233.227 303.75 235.509 302.743 237.834C301.742 240.16 300.727 242.519 299.699 244.906C295.622 254.469 292.037 263.714 289.474 272.35C286.897 280.978 285.364 288.974 284.693 295.749C284.005 302.528 284.146 308.06 284.424 311.857C284.574 313.755 284.721 315.229 284.855 316.223C284.911 316.7 284.954 317.075 284.988 317.357C285.014 317.613 285.024 317.745 285.015 317.747C285.006 317.748 284.979 317.619 284.934 317.365C284.889 317.086 284.827 316.712 284.75 316.238C284.581 315.247 284.401 313.775 284.219 311.874C283.878 308.075 283.678 302.522 284.322 295.714C284.947 288.909 286.449 280.873 289.01 272.21C291.553 263.541 295.135 254.269 299.215 244.698C300.244 242.31 301.261 239.949 302.263 237.623C303.269 235.304 304.266 233.003 305.381 230.813C307.594 226.421 310.056 222.367 312.516 218.592C314.974 214.814 317.446 211.318 319.78 208.066C322.123 204.817 324.364 201.831 326.523 199.195C330.826 193.905 334.799 190.055 337.634 187.523C339.049 186.252 340.179 185.302 340.954 184.667C341.328 184.367 341.619 184.13 341.84 183.952C342.042 183.793 342.148 183.715 342.154 183.722Z" fill="#263238"/>
<path d="M305.535 230.791C305.5 230.797 305.402 230.364 305.255 229.575C305.104 228.787 304.924 227.641 304.722 226.219C304.316 223.38 303.891 219.44 303.438 215.094C302.985 210.745 302.504 206.823 302.057 203.998C301.837 202.585 301.647 201.442 301.506 200.654C301.369 199.865 301.311 199.425 301.346 199.416C301.382 199.408 301.508 199.834 301.707 200.611C301.91 201.388 302.157 202.523 302.424 203.933C302.968 206.752 303.51 210.684 303.962 215.037C304.398 219.327 304.791 223.207 305.093 226.173C305.237 227.511 305.36 228.639 305.458 229.545C305.542 230.342 305.573 230.787 305.535 230.791Z" fill="#263238"/>
<path d="M342.423 223.94C342.424 223.977 341.899 224.038 340.952 224.116C340.005 224.2 338.635 224.313 336.947 224.508C333.568 224.871 328.919 225.533 323.821 226.488C318.724 227.453 314.148 228.52 310.861 229.387C309.213 229.809 307.89 230.187 306.973 230.442C306.057 230.701 305.546 230.828 305.533 230.793C305.522 230.758 306.013 230.565 306.912 230.245C307.812 229.929 309.123 229.496 310.762 229.026C314.033 228.063 318.611 226.935 323.724 225.967C328.836 225.01 333.512 224.402 336.91 224.135C338.609 223.988 339.987 223.93 340.94 223.911C341.894 223.895 342.421 223.903 342.423 223.94Z" fill="#263238"/>
<path d="M289.474 271.535C289.457 271.543 289.371 271.389 289.221 271.088C289.05 270.729 288.841 270.291 288.59 269.761C288.048 268.607 287.306 266.916 286.417 264.815C284.638 260.615 282.362 254.736 279.941 248.216C277.518 241.692 275.301 235.8 273.612 231.569C272.784 229.513 272.103 227.82 271.596 226.563C271.379 226.018 271.202 225.567 271.055 225.197C270.937 224.883 270.882 224.715 270.9 224.706C270.917 224.699 271.002 224.853 271.153 225.154C271.324 225.513 271.532 225.95 271.783 226.48C272.326 227.634 273.068 229.325 273.956 231.426C275.737 235.626 278.011 241.505 280.433 248.029C282.856 254.55 285.073 260.441 286.762 264.673C287.59 266.729 288.27 268.422 288.777 269.678C288.994 270.224 289.172 270.675 289.318 271.044C289.436 271.36 289.491 271.528 289.474 271.535Z" fill="#263238"/>
<path d="M338.486 255.832C338.491 255.85 338.323 255.918 338 256.031C337.617 256.159 337.146 256.315 336.576 256.505C335.262 256.929 333.486 257.501 331.327 258.196C326.895 259.624 320.796 261.668 314.061 263.934C307.322 266.202 301.199 268.191 296.736 269.529C294.504 270.198 292.693 270.722 291.435 271.058C290.854 271.209 290.374 271.334 289.983 271.437C289.649 271.518 289.472 271.552 289.467 271.535C289.462 271.517 289.63 271.449 289.953 271.334C290.335 271.207 290.807 271.051 291.377 270.861C292.692 270.438 294.466 269.866 296.625 269.17C301.057 267.742 307.157 265.698 313.895 263.43C320.631 261.163 326.753 259.174 331.216 257.837C333.448 257.167 335.259 256.644 336.518 256.307C337.099 256.155 337.578 256.029 337.97 255.928C338.303 255.848 338.481 255.815 338.486 255.832Z" fill="#263238"/>
<path d="M318.484 24.4438L313.539 26.2018L311.424 19.7831C307.524 7.94348 295.077 1.60872 283.691 5.65701C272.3 9.70721 266.209 22.6333 270.11 34.473L272.224 40.8917L267.262 42.6554C263.404 44.0271 261.316 48.4474 262.637 52.4604L276.396 94.232C277.737 98.3061 281.998 100.478 285.856 99.1064L337.079 80.8938C341 79.5002 343.09 75.0694 341.747 70.9963L327.989 29.2247C326.666 25.2117 322.403 23.0492 318.484 24.4438ZM279.442 31.1534C277.305 24.6651 280.641 17.5796 286.886 15.359C293.126 13.1402 299.944 16.6153 302.082 23.1036L304.196 29.5232L281.556 37.5721L279.442 31.1534ZM308.242 68.2148L311.755 78.8821C311.903 79.3333 311.644 79.794 311.206 79.9504L306.29 81.698C305.914 81.8315 305.432 81.6341 305.284 81.1829L301.771 70.5156C297.963 70.3553 294.43 67.8475 293.107 63.8345C291.409 58.675 294.066 53.0337 299.048 51.2623C304.027 49.4919 309.453 52.2582 311.153 57.4187C312.474 61.4317 311.16 65.6641 308.242 68.2148Z" fill="#0085D0"/>
<path d="M313.326 26.086C313.373 26.2148 304.16 29.6431 292.751 33.7409C281.339 37.8407 272.053 41.0592 272.006 40.9304C271.959 40.8016 281.169 37.3743 292.582 33.2745C303.99 29.1766 313.279 25.9572 313.326 26.086Z" fill="#263238"/>
<path d="M324.206 27.8443C324.215 27.8414 324.252 27.9263 324.316 28.0942C324.389 28.2888 324.481 28.5349 324.596 28.8421C324.842 29.5375 325.185 30.5047 325.621 31.7333C326.503 34.2869 327.758 37.9202 329.303 42.3958C330.843 46.9144 332.674 52.2771 334.703 58.2304C335.706 61.2189 336.801 64.3238 337.852 67.6032C338.338 69.2516 338.741 71.0134 338.572 72.8382C338.487 73.7434 338.239 74.6544 337.796 75.4785C337.344 76.297 336.713 77.0171 335.982 77.6038C334.507 78.7761 332.779 79.461 331.111 80.0753C329.436 80.6734 327.785 81.2629 326.164 81.8419C322.92 82.9951 319.791 84.1083 316.81 85.17C310.852 87.2781 305.483 89.1782 300.961 90.7789C296.469 92.349 292.823 93.6234 290.262 94.5191C289.023 94.9407 288.046 95.2736 287.345 95.512C287.032 95.6132 286.781 95.6942 286.582 95.7581C286.409 95.8116 286.319 95.8344 286.316 95.8259C286.314 95.8182 286.398 95.7791 286.565 95.7105C286.76 95.6341 287.006 95.5378 287.311 95.4176C288.006 95.1582 288.971 94.7957 290.197 94.3369C292.746 93.4049 296.373 92.08 300.843 90.4479C305.353 88.8186 310.71 86.8851 316.655 84.7398C319.633 83.6695 322.759 82.5478 325.999 81.384C327.619 80.8031 329.268 80.2117 330.94 79.6117C332.596 79.0022 334.276 78.3259 335.668 77.2175C336.358 76.6642 336.94 75.9965 337.358 75.2429C337.767 74.4836 337.997 73.6432 338.079 72.7914C338.241 71.0773 337.86 69.3651 337.384 67.7416C336.35 64.4945 335.255 61.362 334.268 58.3773C332.276 52.4126 330.482 47.0365 328.969 42.5084C327.487 38.0118 326.283 34.3613 325.437 31.7963C325.039 30.5553 324.726 29.5775 324.502 28.8755C324.406 28.5616 324.33 28.3108 324.27 28.1114C324.219 27.9368 324.197 27.8472 324.206 27.8443Z" fill="#263238"/>
<path d="M297.182 14.69C297.157 14.732 296.672 14.4334 295.729 14.0557C294.783 13.697 293.352 13.2782 291.539 13.221C289.738 13.1552 287.546 13.4318 285.358 14.3819C283.177 15.3205 281.03 16.9869 279.492 19.2543C277.924 21.5131 277.238 24.1268 277.237 26.4972C277.217 28.8781 277.725 30.9986 278.214 32.7385C278.72 34.4803 279.237 35.8624 279.577 36.8221C279.922 37.7817 280.108 38.3149 280.075 38.3282C280.044 38.3397 279.797 37.8313 279.396 36.8926C279 35.9521 278.431 34.5861 277.876 32.8396C277.338 31.0949 276.782 28.9477 276.776 26.4943C276.75 24.0543 277.453 21.3128 279.077 18.9748C280.673 16.6245 282.908 14.9103 285.176 13.9612C287.451 13.0026 289.711 12.7565 291.557 12.869C293.415 12.973 294.867 13.4566 295.805 13.8773C296.27 14.1033 296.625 14.2884 296.849 14.4439C297.077 14.5917 297.191 14.6747 297.182 14.69Z" fill="#263238"/>
<path d="M297.617 52.0154C297.611 52.003 297.777 51.921 298.103 51.7751C298.427 51.6253 298.922 51.4336 299.584 51.2457C300.242 51.0406 301.084 50.8918 302.078 50.8336C303.07 50.7849 304.238 50.887 305.445 51.3325C307.897 52.189 310.157 54.6806 311.267 57.982C311.8 59.6494 311.847 61.5858 311.311 63.4583C310.739 65.3231 309.689 67.1116 308.173 68.615L308.236 68.3622C309.51 71.8391 310.898 75.6232 312.344 79.5599L312.431 79.7993L312.188 79.8804C311.492 80.1122 310.746 80.3611 309.994 80.611C308.377 81.149 306.783 81.6794 305.219 82.2002L304.983 82.2784L304.905 82.0428C303.59 78.088 302.149 74.3593 301.103 70.7956L301.311 70.9577C299.346 70.827 297.58 70.0076 296.174 68.9393C294.763 67.8604 293.681 66.5212 292.952 65.1123C292.235 63.6986 291.874 62.1982 291.934 60.816C291.97 59.4348 292.29 58.1842 292.739 57.1302C293.635 55.004 294.969 53.6666 295.957 52.9369C296.964 52.2053 297.617 52.0154 297.617 52.0154C297.64 52.0584 297.007 52.2978 296.047 53.0523C295.105 53.8059 293.833 55.1451 292.996 57.2342C292.16 59.2726 291.797 62.2029 293.292 64.9377C294.009 66.2894 295.066 67.5743 296.431 68.6035C297.791 69.6223 299.488 70.3902 301.335 70.5027L301.497 70.5123L301.542 70.6649C302.601 74.2038 304.049 77.9173 305.375 81.8883L305.06 81.7319C306.624 81.211 308.218 80.6788 309.835 80.1398C310.586 79.8899 311.332 79.6409 312.029 79.4092L311.873 79.7287C310.439 75.7882 309.058 72.0003 307.793 68.5215L307.741 68.3813L307.855 68.2687C309.291 66.8579 310.337 65.1085 310.888 63.3343C311.412 61.5438 311.381 59.7038 310.884 58.0974C309.835 54.8933 307.678 52.4571 305.34 51.6015C304.185 51.1531 303.054 51.031 302.083 51.0568C301.11 51.0911 300.278 51.2142 299.622 51.3935C298.305 51.7312 297.634 52.0574 297.617 52.0154Z" fill="#263238"/>
<path d="M267.962 327.435L172.105 326.994C160.576 326.941 151.272 317.612 151.321 306.152L152.337 67.2956C152.386 55.8299 161.779 46.5762 173.313 46.6296L269.171 47.0694C280.7 47.1228 290.003 56.4527 289.954 67.9108L288.938 306.768C288.891 318.233 279.498 327.488 267.962 327.435Z" fill="#455A64"/>
<path d="M269.032 55.3132L250.447 55.2283C247.955 55.2169 245.925 57.3078 245.914 59.8966L245.899 63.2476C245.888 65.8374 243.858 67.9274 241.366 67.9159L205.14 67.75C202.647 67.7385 200.636 65.6295 200.646 63.0397L200.661 59.6887C200.671 57.0989 198.66 54.9898 196.167 54.9784L189.631 54.9478L173.364 54.8735C165.287 54.8362 158.708 61.3169 158.673 69.3468L157.682 302.488C157.647 310.514 164.164 317.048 172.238 317.085L267.904 317.524C275.982 317.561 282.56 311.081 282.595 303.051L283.587 69.9086C283.621 61.8845 277.106 55.3513 269.032 55.3132Z" fill="white"/>
<path d="M256.159 286.425L185.021 286.098C184.285 286.095 183.691 285.298 183.695 284.319L183.774 265.821C183.778 264.841 184.379 264.05 185.115 264.053L256.253 264.38C256.99 264.384 257.584 265.181 257.579 266.16L257.5 284.657C257.496 285.637 256.896 286.429 256.159 286.425Z" fill="#0085D0"/>
<path d="M199.989 276.263C199.567 276.261 199.161 276.192 198.772 276.055C198.389 275.912 198.092 275.733 197.882 275.515L198.119 275.054C198.319 275.249 198.586 275.415 198.921 275.552C199.261 275.684 199.618 275.75 199.991 275.752C200.348 275.754 200.638 275.712 200.86 275.626C201.088 275.535 201.254 275.414 201.357 275.263C201.466 275.112 201.521 274.945 201.521 274.761C201.522 274.539 201.458 274.36 201.329 274.224C201.205 274.088 201.04 273.982 200.835 273.905C200.63 273.823 200.403 273.752 200.154 273.691C199.906 273.63 199.657 273.567 199.408 273.501C199.16 273.429 198.93 273.336 198.719 273.222C198.514 273.107 198.347 272.958 198.218 272.773C198.094 272.583 198.033 272.337 198.035 272.034C198.036 271.752 198.11 271.495 198.257 271.263C198.409 271.026 198.64 270.838 198.949 270.698C199.258 270.554 199.654 270.482 200.135 270.485C200.455 270.486 200.771 270.534 201.084 270.627C201.398 270.715 201.668 270.838 201.895 270.996L201.69 271.474C201.447 271.31 201.188 271.19 200.912 271.113C200.642 271.036 200.379 270.997 200.125 270.996C199.784 270.994 199.503 271.039 199.28 271.13C199.058 271.221 198.892 271.345 198.784 271.501C198.68 271.652 198.628 271.825 198.627 272.02C198.626 272.242 198.688 272.421 198.812 272.557C198.941 272.692 199.108 272.799 199.313 272.875C199.524 272.952 199.754 273.021 200.003 273.082C200.251 273.142 200.497 273.208 200.74 273.28C200.989 273.351 201.216 273.444 201.421 273.559C201.632 273.668 201.799 273.815 201.922 273.999C202.051 274.184 202.115 274.425 202.114 274.723C202.113 274.999 202.036 275.255 201.884 275.493C201.731 275.725 201.498 275.913 201.183 276.058C200.874 276.197 200.476 276.266 199.989 276.263ZM203.295 276.23L203.313 271.968L203.889 271.971L203.871 276.232L203.295 276.23ZM203.609 271.028C203.49 271.028 203.39 270.987 203.309 270.905C203.228 270.823 203.188 270.726 203.189 270.612C203.189 270.499 203.23 270.404 203.312 270.329C203.393 270.248 203.493 270.208 203.612 270.208C203.732 270.209 203.831 270.247 203.912 270.323C203.993 270.399 204.033 270.494 204.033 270.608C204.032 270.727 203.991 270.827 203.91 270.908C203.834 270.989 203.733 271.029 203.609 271.028ZM207.286 277.863C206.896 277.861 206.523 277.803 206.167 277.688C205.81 277.572 205.521 277.409 205.3 277.197L205.594 276.76C205.794 276.939 206.039 277.081 206.331 277.185C206.628 277.295 206.942 277.35 207.272 277.352C207.813 277.354 208.211 277.229 208.467 276.976C208.722 276.728 208.851 276.339 208.853 275.809L208.858 274.745L208.942 274.015L208.888 273.284L208.894 271.994L209.446 271.996L209.43 275.738C209.427 276.474 209.243 277.012 208.879 277.351C208.52 277.696 207.989 277.866 207.286 277.863ZM207.188 276.085C206.782 276.083 206.417 275.995 206.093 275.82C205.769 275.64 205.513 275.393 205.325 275.078C205.143 274.764 205.052 274.403 205.054 273.997C205.056 273.592 205.149 273.235 205.334 272.927C205.525 272.614 205.783 272.372 206.109 272.2C206.434 272.029 206.8 271.944 207.205 271.946C207.584 271.947 207.925 272.027 208.227 272.186C208.53 272.344 208.769 272.578 208.947 272.887C209.124 273.196 209.212 273.573 209.21 274.016C209.208 274.46 209.117 274.836 208.937 275.143C208.757 275.451 208.515 275.685 208.212 275.846C207.908 276.007 207.567 276.087 207.188 276.085ZM207.247 275.574C207.561 275.576 207.84 275.512 208.084 275.383C208.328 275.249 208.521 275.066 208.662 274.834C208.804 274.596 208.876 274.323 208.877 274.015C208.878 273.706 208.809 273.436 208.669 273.202C208.53 272.969 208.338 272.787 208.095 272.656C207.852 272.519 207.574 272.45 207.26 272.449C206.952 272.448 206.673 272.514 206.423 272.648C206.179 272.777 205.986 272.957 205.845 273.189C205.708 273.421 205.64 273.692 205.638 274C205.637 274.309 205.703 274.582 205.838 274.821C205.977 275.054 206.169 275.239 206.412 275.375C206.66 275.506 206.938 275.573 207.247 275.574ZM213.225 271.973C213.571 271.975 213.874 272.044 214.133 272.18C214.398 272.311 214.602 272.512 214.747 272.784C214.898 273.055 214.972 273.396 214.97 273.807L214.96 276.283L214.383 276.28L214.394 273.862C214.396 273.412 214.283 273.074 214.057 272.845C213.836 272.612 213.523 272.494 213.117 272.492C212.814 272.491 212.549 272.552 212.321 272.675C212.098 272.793 211.924 272.968 211.799 273.2C211.679 273.427 211.618 273.703 211.617 274.027L211.607 276.268L211.031 276.265L211.049 272.004L211.601 272.006L211.596 273.175L211.508 272.955C211.644 272.648 211.862 272.408 212.16 272.236C212.459 272.059 212.813 271.971 213.225 271.973ZM221.051 276.359C220.326 276.356 219.756 276.145 219.341 275.727C218.926 275.308 218.721 274.69 218.724 273.873L218.738 270.618L219.339 270.621L219.325 273.852C219.322 274.523 219.471 275.018 219.773 275.339C220.075 275.66 220.502 275.821 221.054 275.824C221.611 275.826 222.042 275.669 222.346 275.351C222.651 275.033 222.804 274.538 222.807 273.867L222.821 270.637L223.405 270.64L223.391 273.894C223.388 274.712 223.177 275.327 222.759 275.742C222.345 276.157 221.776 276.363 221.051 276.359ZM227.269 276.38C226.901 276.378 226.568 276.293 226.272 276.124C225.975 275.949 225.738 275.702 225.56 275.382C225.389 275.056 225.304 274.661 225.306 274.195C225.308 273.73 225.396 273.338 225.57 273.02C225.745 272.696 225.981 272.451 226.28 272.284C226.578 272.118 226.914 272.035 227.287 272.037C227.693 272.039 228.055 272.133 228.374 272.318C228.698 272.498 228.951 272.754 229.133 273.085C229.316 273.41 229.406 273.787 229.405 274.214C229.403 274.647 229.309 275.025 229.124 275.349C228.939 275.673 228.683 275.926 228.358 276.109C228.038 276.291 227.675 276.382 227.269 276.38ZM225.063 277.904L225.087 272.068L225.639 272.07L225.634 273.353L225.573 274.205L225.651 275.066L225.639 277.906L225.063 277.904ZM227.23 275.868C227.533 275.87 227.804 275.803 228.043 275.669C228.282 275.529 228.472 275.335 228.614 275.087C228.755 274.833 228.827 274.542 228.828 274.211C228.83 273.881 228.761 273.592 228.621 273.342C228.481 273.092 228.293 272.897 228.055 272.755C227.818 272.613 227.548 272.542 227.244 272.54C226.941 272.539 226.668 272.608 226.424 272.748C226.185 272.887 225.995 273.081 225.853 273.329C225.717 273.578 225.648 273.867 225.647 274.197C225.645 274.527 225.712 274.82 225.846 275.075C225.985 275.324 226.174 275.52 226.411 275.662C226.654 275.798 226.927 275.867 227.23 275.868Z" fill="#E8E8E3"/>
<path d="M199.201 123.828L174.52 123.716L174.499 128.217L199.18 128.33L199.201 123.828Z" fill="#0085D0"/>
<path opacity="0.1" d="M199.201 123.828L174.52 123.716L174.499 128.217L199.18 128.33L199.201 123.828Z" fill="black"/>
<path d="M271.57 151.451C271.566 151.431 271.777 151.462 272.134 151.319C272.47 151.189 273.002 150.782 273.064 150.035C273.061 148.513 273.056 146.302 273.05 143.464C273.05 142.034 273.049 140.447 273.048 138.711C273.049 138.276 273.049 137.834 273.049 137.381C273.062 136.917 273.061 136.487 272.78 136.131C272.528 135.777 272.096 135.551 271.645 135.549C271.153 135.548 270.652 135.547 270.142 135.546C266.059 135.539 261.413 135.529 256.28 135.52C235.72 135.443 207.347 135.339 176.008 135.224C175.595 135.221 175.191 135.422 174.951 135.755C174.684 136.093 174.696 136.491 174.701 137.002C174.698 137.97 174.693 138.935 174.689 139.897C174.68 141.821 174.672 143.732 174.664 145.628C174.66 146.577 174.655 147.521 174.651 148.463C174.666 148.914 174.606 149.454 174.691 149.804C174.786 150.187 175.078 150.511 175.44 150.664C175.629 150.74 175.806 150.767 176.034 150.765L176.737 150.768L178.137 150.775C179.069 150.78 179.997 150.785 180.921 150.789C188.312 150.829 195.442 150.867 202.235 150.902C215.814 150.984 228.044 151.058 238.322 151.12C248.58 151.201 256.888 151.266 262.651 151.311C265.509 151.345 267.734 151.37 269.265 151.388C270.008 151.403 270.579 151.413 270.985 151.421C271.372 151.432 271.57 151.451 271.57 151.451C271.57 151.451 271.372 151.467 270.984 151.472C270.578 151.476 270.007 151.482 269.264 151.49C267.732 151.493 265.507 151.499 262.649 151.506C256.886 151.498 248.578 151.487 238.319 151.473C228.041 151.441 215.811 151.403 202.231 151.361C195.439 151.334 188.309 151.306 180.918 151.278C179.994 151.274 179.066 151.27 178.134 151.266L176.733 151.261L176.031 151.258C175.791 151.263 175.493 151.225 175.247 151.119C174.746 150.909 174.345 150.462 174.211 149.931C174.135 149.661 174.152 149.388 174.151 149.168L174.154 148.463C174.158 147.521 174.162 146.576 174.166 145.628C174.174 143.731 174.181 141.82 174.189 139.897C174.193 138.936 174.197 137.97 174.2 137.002C174.208 136.754 174.186 136.536 174.225 136.24C174.268 135.961 174.376 135.691 174.546 135.464C174.875 135.004 175.441 134.722 176.009 134.729C207.347 134.901 235.72 135.057 256.279 135.17C261.414 135.207 266.059 135.24 270.142 135.27C270.652 135.274 271.154 135.277 271.645 135.282C272.183 135.287 272.694 135.562 272.988 135.981C273.317 136.392 273.314 136.955 273.295 137.383C273.291 137.836 273.288 138.279 273.284 138.713C273.268 140.449 273.255 142.036 273.242 143.465C273.207 146.307 273.18 148.521 273.16 150.044C273.077 150.839 272.502 151.247 272.148 151.367C271.777 151.498 271.57 151.451 271.57 151.451Z" fill="#E0E0E0"/>
<path d="M226.287 141.235L181.139 141.029L181.119 145.236L226.267 145.442L226.287 141.235Z" fill="#0085D0"/>
<path opacity="0.2" d="M226.287 141.235L181.139 141.029L181.119 145.236L226.267 145.442L226.287 141.235Z" fill="white"/>
<path d="M199.025 164.906L174.344 164.793L174.323 169.295L199.004 169.407L199.025 164.906Z" fill="#0085D0"/>
<path opacity="0.1" d="M199.025 164.906L174.344 164.793L174.323 169.295L199.004 169.407L199.025 164.906Z" fill="black"/>
<path d="M270.94 192.526C270.938 192.509 271.142 192.527 271.509 192.419C271.858 192.306 272.419 192.02 272.725 191.339C272.889 191.003 272.906 190.596 272.891 190.129C272.889 189.666 272.887 189.16 272.885 188.613C272.884 187.516 272.881 186.252 272.878 184.832C272.878 183.408 272.877 181.827 272.877 180.097C272.877 179.664 272.877 179.222 272.877 178.771C272.898 178.315 272.842 177.893 272.597 177.512C272.366 177.138 271.991 176.842 271.553 176.709C271.124 176.573 270.611 176.647 270.103 176.627C266.034 176.619 261.404 176.61 256.287 176.6C235.799 176.525 207.524 176.42 176.295 176.305C175.427 176.284 174.626 176.987 174.542 177.84C174.514 178.747 174.527 179.75 174.518 180.696C174.509 182.613 174.5 184.517 174.493 186.407C174.489 187.352 174.484 188.295 174.48 189.233C174.496 189.701 174.429 190.19 174.541 190.564C174.649 190.959 174.902 191.311 175.241 191.542C175.593 191.777 175.974 191.864 176.435 191.847L177.831 191.854C178.76 191.859 179.685 191.863 180.606 191.868C187.972 191.906 195.077 191.944 201.844 191.98C215.377 192.062 227.565 192.136 237.807 192.198C248.03 192.278 256.308 192.343 262.051 192.388C264.9 192.421 267.117 192.447 268.643 192.465C269.383 192.48 269.952 192.49 270.357 192.498C270.742 192.508 270.94 192.526 270.94 192.526C270.94 192.526 270.742 192.542 270.356 192.548C269.952 192.552 269.382 192.558 268.642 192.565C267.117 192.569 264.899 192.575 262.05 192.583C256.308 192.575 248.029 192.563 237.805 192.55C227.563 192.519 215.375 192.48 201.843 192.439C195.074 192.412 187.969 192.384 180.604 192.356C179.683 192.352 178.759 192.348 177.83 192.344L176.433 192.338C175.964 192.363 175.387 192.251 174.963 191.949C174.528 191.653 174.204 191.202 174.064 190.695C173.921 190.161 174.006 189.696 173.985 189.231C173.989 188.293 173.992 187.35 173.995 186.405C174.003 184.515 174.012 182.611 174.019 180.693C174.03 179.722 174.011 178.801 174.046 177.781C174.153 176.683 175.184 175.78 176.297 175.808C207.526 175.979 235.8 176.135 256.288 176.247C261.404 176.284 266.033 176.318 270.103 176.348C270.605 176.375 271.113 176.294 271.632 176.452C272.134 176.608 272.557 176.949 272.816 177.377C273.092 177.795 273.151 178.331 273.123 178.771C273.12 179.222 273.117 179.664 273.113 180.098C273.098 181.827 273.083 183.409 273.071 184.833C273.055 186.254 273.043 187.516 273.031 188.614C273.025 189.161 273.019 189.667 273.014 190.129C273.023 190.584 272.995 191.035 272.815 191.38C272.478 192.088 271.884 192.367 271.522 192.468C271.142 192.563 270.94 192.526 270.94 192.526Z" fill="#E0E0E0"/>
<path d="M198.839 207.753L174.158 207.64L174.137 212.141L198.818 212.254L198.839 207.753Z" fill="#0085D0"/>
<path opacity="0.1" d="M198.839 207.753L174.158 207.64L174.137 212.141L198.818 212.254L198.839 207.753Z" fill="black"/>
<path d="M270.758 235.368C270.757 235.351 270.961 235.369 271.327 235.262C271.677 235.149 272.237 234.861 272.543 234.18C272.707 233.845 272.724 233.437 272.709 232.971C272.707 232.507 272.705 232.002 272.703 231.455C272.702 230.357 272.7 229.093 272.697 227.674C272.696 226.25 272.696 224.668 272.695 222.938C272.695 222.506 272.696 222.063 272.696 221.611C272.716 221.155 272.661 220.733 272.416 220.353C272.184 219.979 271.81 219.682 271.372 219.549C270.943 219.414 270.43 219.488 269.921 219.467C265.853 219.458 261.222 219.449 256.106 219.44C235.617 219.365 207.343 219.261 176.114 219.145C175.245 219.124 174.445 219.827 174.361 220.68C174.333 221.587 174.346 222.59 174.337 223.536C174.329 225.452 174.32 227.357 174.313 229.247C174.309 230.192 174.304 231.133 174.3 232.072C174.316 232.54 174.248 233.029 174.36 233.404C174.468 233.799 174.721 234.151 175.06 234.382C175.412 234.617 175.793 234.705 176.254 234.687L177.65 234.693C178.579 234.698 179.504 234.703 180.425 234.708C187.79 234.747 194.895 234.784 201.663 234.819C215.196 234.902 227.384 234.976 237.626 235.038C247.849 235.118 256.127 235.183 261.87 235.228C264.719 235.261 266.937 235.288 268.462 235.305C269.201 235.319 269.772 235.329 270.176 235.337C270.56 235.351 270.758 235.368 270.758 235.368C270.758 235.368 270.56 235.384 270.175 235.39C269.77 235.394 269.201 235.399 268.461 235.407C266.935 235.411 264.717 235.417 261.868 235.424C256.126 235.416 247.848 235.405 237.623 235.392C227.381 235.36 215.193 235.322 201.661 235.28C194.892 235.253 187.787 235.226 180.422 235.197C179.501 235.193 178.577 235.189 177.648 235.185L176.251 235.179C175.782 235.204 175.205 235.09 174.781 234.79C174.346 234.493 174.022 234.043 173.882 233.535C173.74 233.001 173.824 232.536 173.803 232.071C173.807 231.134 173.811 230.191 173.814 229.247C173.822 227.356 173.83 225.451 173.837 223.535C173.849 222.565 173.83 221.643 173.865 220.623C173.972 219.525 175.003 218.621 176.116 218.65C207.345 218.822 235.618 218.977 256.107 219.09C261.222 219.127 265.852 219.16 269.922 219.19C270.424 219.216 270.932 219.136 271.451 219.294C271.952 219.449 272.375 219.791 272.635 220.219C272.911 220.638 272.97 221.173 272.942 221.614C272.939 222.065 272.935 222.507 272.931 222.94C272.916 224.67 272.902 226.252 272.89 227.675C272.874 229.095 272.862 230.359 272.85 231.457C272.844 232.003 272.837 232.509 272.831 232.972C272.84 233.428 272.812 233.878 272.632 234.222C272.295 234.93 271.702 235.21 271.34 235.311C270.961 235.403 270.758 235.368 270.758 235.368Z" fill="#E0E0E0"/>
<path d="M226.116 182.314L180.967 182.106L180.947 186.314L226.096 186.521L226.116 182.314Z" fill="#0085D0"/>
<path opacity="0.2" d="M226.116 182.314L180.967 182.106L180.947 186.314L226.096 186.521L226.116 182.314Z" fill="white"/>
<path d="M185.061 227.581C185.056 228.736 184.168 229.669 183.078 229.664C181.988 229.659 181.109 228.718 181.113 227.563C181.118 226.408 182.006 225.474 183.096 225.48C184.186 225.485 185.065 226.425 185.061 227.581Z" fill="#0085D0"/>
<path d="M191.178 227.61C191.173 228.765 190.285 229.698 189.195 229.693C188.105 229.689 187.226 228.748 187.23 227.592C187.235 226.437 188.123 225.504 189.213 225.509C190.304 225.512 191.183 226.454 191.178 227.61Z" fill="#0085D0"/>
<path d="M197.293 227.637C197.288 228.792 196.4 229.726 195.31 229.721C194.22 229.716 193.341 228.775 193.346 227.619C193.351 226.464 194.238 225.531 195.329 225.536C196.418 225.541 197.298 226.481 197.293 227.637Z" fill="#0085D0"/>
<path d="M203.407 227.665C203.403 228.82 202.515 229.754 201.425 229.748C200.335 229.744 199.455 228.803 199.461 227.647C199.466 226.492 200.353 225.559 201.444 225.564C202.533 225.569 203.413 226.51 203.407 227.665Z" fill="#0085D0"/>
<path d="M209.526 227.693C209.522 228.849 208.634 229.782 207.544 229.776C206.453 229.771 205.573 228.831 205.578 227.676C205.584 226.519 206.472 225.587 207.561 225.591C208.651 225.597 209.53 226.538 209.526 227.693Z" fill="#0085D0"/>
<path d="M215.639 227.721C215.634 228.877 214.746 229.81 213.656 229.804C212.566 229.8 211.687 228.859 211.691 227.704C211.696 226.548 212.584 225.616 213.673 225.62C214.764 225.624 215.644 226.566 215.639 227.721Z" fill="#0085D0"/>
<path d="M221.76 227.749C221.754 228.905 220.866 229.838 219.777 229.833C218.687 229.827 217.808 228.887 217.813 227.732C217.817 226.576 218.705 225.644 219.794 225.648C220.884 225.653 221.764 226.594 221.76 227.749Z" fill="#0085D0"/>
<path d="M227.874 227.776C227.869 228.933 226.982 229.866 225.892 229.861C224.802 229.855 223.922 228.915 223.928 227.759C223.933 226.604 224.82 225.671 225.91 225.676C227 225.681 227.879 226.621 227.874 227.776Z" fill="#0085D0"/>
<path d="M233.988 227.806C233.984 228.962 233.096 229.895 232.007 229.89C230.916 229.885 230.036 228.944 230.041 227.788C230.047 226.633 230.935 225.701 232.024 225.705C233.114 225.709 233.993 226.65 233.988 227.806Z" fill="#0085D0"/>
<g opacity="0.2">
<path d="M185.061 227.581C185.056 228.736 184.168 229.669 183.078 229.664C181.988 229.659 181.109 228.718 181.113 227.563C181.118 226.408 182.006 225.474 183.096 225.48C184.186 225.485 185.065 226.425 185.061 227.581Z" fill="white"/>
<path d="M191.178 227.61C191.173 228.765 190.285 229.698 189.195 229.693C188.105 229.689 187.226 228.748 187.23 227.592C187.235 226.437 188.123 225.504 189.213 225.509C190.304 225.512 191.183 226.454 191.178 227.61Z" fill="white"/>
<path d="M197.293 227.637C197.288 228.792 196.4 229.726 195.31 229.721C194.22 229.716 193.341 228.775 193.346 227.619C193.351 226.464 194.238 225.531 195.329 225.536C196.418 225.541 197.298 226.481 197.293 227.637Z" fill="white"/>
<path d="M203.407 227.665C203.403 228.82 202.515 229.754 201.425 229.748C200.335 229.744 199.455 228.803 199.461 227.647C199.466 226.492 200.353 225.559 201.444 225.564C202.533 225.569 203.413 226.51 203.407 227.665Z" fill="white"/>
<path d="M209.526 227.693C209.522 228.849 208.634 229.782 207.544 229.776C206.453 229.771 205.573 228.831 205.578 227.676C205.584 226.519 206.472 225.587 207.561 225.591C208.651 225.597 209.53 226.538 209.526 227.693Z" fill="white"/>
<path d="M215.639 227.721C215.634 228.877 214.746 229.81 213.656 229.804C212.566 229.8 211.687 228.859 211.691 227.704C211.696 226.548 212.584 225.616 213.673 225.62C214.764 225.624 215.644 226.566 215.639 227.721Z" fill="white"/>
<path d="M221.76 227.749C221.754 228.905 220.866 229.838 219.777 229.833C218.687 229.827 217.808 228.887 217.813 227.732C217.817 226.576 218.705 225.644 219.794 225.648C220.884 225.653 221.764 226.594 221.76 227.749Z" fill="white"/>
<path d="M227.874 227.776C227.869 228.933 226.982 229.866 225.892 229.861C224.802 229.855 223.922 228.915 223.928 227.759C223.933 226.604 224.82 225.671 225.91 225.676C227 225.681 227.879 226.621 227.874 227.776Z" fill="white"/>
<path d="M233.988 227.806C233.984 228.962 233.096 229.895 232.007 229.89C230.916 229.885 230.036 228.944 230.041 227.788C230.047 226.633 230.935 225.701 232.024 225.705C233.114 225.709 233.993 226.65 233.988 227.806Z" fill="white"/>
</g>
<path d="M225.303 90.0967C226.594 89.5578 227.513 88.2347 227.521 86.6751C227.529 84.6319 225.974 82.9683 224.045 82.9588C222.118 82.9502 220.548 84.5995 220.541 86.6427C220.534 88.2166 221.459 89.5568 222.764 90.0967C217.393 90.9008 217.636 96.7033 217.636 96.7033L230.337 96.7615C230.337 96.7615 230.627 90.8961 225.303 90.0967Z" fill="#0085D0"/>
<path opacity="0.1" d="M225.303 90.0967C226.594 89.5578 227.513 88.2347 227.521 86.6751C227.529 84.6319 225.974 82.9683 224.045 82.9588C222.118 82.9502 220.548 84.5995 220.541 86.6427C220.534 88.2166 221.459 89.5568 222.764 90.0967C217.393 90.9008 217.636 96.7033 217.636 96.7033L230.337 96.7615C230.337 96.7615 230.627 90.8961 225.303 90.0967Z" fill="black"/>
<path d="M245.948 100.557L200.656 100.35L200.631 105.733L245.923 105.94L245.948 100.557Z" fill="#0085D0"/>
<path opacity="0.2" d="M245.948 100.557L200.656 100.35L200.631 105.733L245.923 105.94L245.948 100.557Z" fill="white"/>
<path d="M79.452 128.415C79.452 128.424 79.3003 128.441 79.0067 128.464C78.689 128.487 78.2562 128.519 77.7005 128.559C77.1237 128.568 76.4222 128.693 75.5949 128.838C75.1832 128.921 74.7283 128.955 74.2638 129.091C73.7973 129.22 73.3012 129.356 72.7762 129.501C70.7051 130.151 68.2108 131.183 65.6993 132.991C63.1944 134.784 60.6886 137.349 58.7356 140.695C57.7087 142.34 56.9639 144.239 56.295 146.235C55.7509 148.267 55.2691 150.426 55.2326 152.701C55.1309 153.835 55.246 154.987 55.294 156.159C55.3247 156.744 55.4514 157.324 55.5272 157.915C55.6079 158.505 55.6952 159.099 55.8641 159.681C56.3497 162.053 57.3219 164.377 58.5513 166.605C61.0091 171.076 65.1397 174.929 70.2406 177.162C72.7925 178.281 75.6141 178.885 78.4836 179.002C81.3561 179.184 84.2985 178.725 87.0875 177.772L87.9311 177.464L88.0424 177.424L88.1432 177.474C92.2728 179.558 96.3228 181.602 100.247 183.582L99.8872 183.887C98.5944 179.9 97.342 176.035 96.1395 172.325L96.0934 172.182L96.2 172.076C99.2509 169.04 101.377 165.351 102.555 161.575C103.737 157.787 103.938 153.929 103.477 150.394C103.017 146.852 101.852 143.63 100.298 140.919C98.7451 138.201 96.8142 135.993 94.8324 134.268C92.8275 132.556 90.7488 131.396 88.886 130.508C86.9781 129.714 85.2774 129.206 83.8638 128.935C83.1574 128.815 82.5288 128.709 81.9808 128.616C81.4376 128.578 80.975 128.547 80.5921 128.52C80.2351 128.492 79.9539 128.471 79.7408 128.455C79.5499 128.435 79.452 128.423 79.452 128.415C79.452 128.408 79.5499 128.406 79.7418 128.409C79.9549 128.415 80.237 128.423 80.596 128.433C80.9808 128.448 81.4472 128.467 81.9943 128.489C82.5471 128.571 83.1814 128.665 83.8945 128.771C85.3226 129.019 87.0452 129.506 88.9829 130.286C90.8735 131.161 92.9888 132.315 95.0329 134.032C97.0541 135.761 99.0263 137.986 100.618 140.734C102.211 143.475 103.412 146.74 103.896 150.337C104.38 153.926 104.19 157.848 103 161.706C101.812 165.554 99.6569 169.318 96.5512 172.421L96.6117 172.172C97.819 175.878 99.0782 179.743 100.377 183.728L100.567 184.311L100.017 184.034C96.0906 182.056 92.0406 180.015 87.909 177.933L88.1211 177.944L87.2593 178.258C84.408 179.233 81.3983 179.7 78.4625 179.515C75.5306 179.393 72.6457 178.772 70.04 177.626C64.8298 175.339 60.6272 171.398 58.1348 166.836C56.8872 164.564 55.9073 162.194 55.4188 159.78C55.2499 159.186 55.1635 158.583 55.0829 157.982C55.008 157.382 54.8823 156.79 54.8526 156.195C54.8075 155.004 54.6952 153.832 54.8036 152.681C54.8506 150.37 55.3487 148.177 55.913 146.118C56.6021 144.094 57.3699 142.172 58.4208 140.509C60.4218 137.128 62.9804 134.547 65.5323 132.755C68.0899 130.948 70.6226 129.933 72.7205 129.308C73.2513 129.17 73.7541 129.04 74.2263 128.918C74.6956 128.788 75.1553 128.761 75.5709 128.687C76.4068 128.556 77.1132 128.447 77.6938 128.455C78.2523 128.436 78.688 128.423 79.0076 128.411C79.3013 128.405 79.452 128.406 79.452 128.415Z" fill="#0085D0"/>
<path d="M84.9255 150.687H83.1519L79.2814 145.325V141.806C79.2814 141.806 76.5405 141.638 76.862 146.247C77.1844 150.855 76.8361 149.681 76.8361 149.681C76.8361 149.681 71.0154 149.703 70.5317 150.206C70.1795 150.571 70.0211 156.319 69.9597 159.435C69.929 161.004 70.8973 162.464 72.3657 162.835C72.574 162.888 72.7851 162.919 72.9924 162.919C74.4444 162.919 81.8621 161.745 81.8621 161.745H84.9255V150.687Z" fill="#0085D0"/>
<path d="M90.0027 149.721L88.9125 161.778H85.875V149.964L90.0027 149.721Z" fill="#0085D0"/>
<path d="M126.177 395.183V387.021L111.464 386.923L111.342 399.252L112.254 399.32C116.312 399.58 132.908 399.96 135.626 399.123C138.66 398.191 126.177 395.183 126.177 395.183Z" fill="#0085D0"/>
<path d="M135.974 398.357C135.974 398.496 130.47 398.606 123.683 398.606C116.893 398.606 111.391 398.496 111.391 398.357C111.391 398.22 116.893 398.11 123.683 398.11C130.47 398.111 135.974 398.221 135.974 398.357Z" fill="#263238"/>
<path d="M126.436 396.848C126.315 396.785 126.419 396.354 126.734 395.929C127.049 395.502 127.434 395.275 127.53 395.372C127.629 395.47 127.427 395.828 127.136 396.223C126.846 396.615 126.56 396.914 126.436 396.848Z" fill="#263238"/>
<path d="M127.371 397.386C127.243 397.339 127.309 396.855 127.598 396.346C127.886 395.836 128.269 395.531 128.375 395.614C128.486 395.7 128.301 396.116 128.033 396.59C127.765 397.063 127.502 397.437 127.371 397.386Z" fill="#263238"/>
<path d="M115.824 398.322C115.766 398.362 115.547 398.147 115.229 397.789C114.908 397.433 114.489 396.929 113.938 396.504C113.392 396.08 112.79 395.867 112.346 395.812C111.898 395.752 111.605 395.822 111.58 395.75C111.554 395.697 111.827 395.492 112.358 395.461C112.88 395.426 113.618 395.623 114.243 396.11C114.864 396.591 115.261 397.166 115.514 397.582C115.765 398.001 115.878 398.284 115.824 398.322Z" fill="#263238"/>
<path d="M126.481 395.314C126.553 395.429 126.301 395.712 125.88 395.864C125.461 396.019 125.083 395.964 125.064 395.831C125.042 395.694 125.34 395.535 125.708 395.4C126.076 395.265 126.408 395.196 126.481 395.314Z" fill="#263238"/>
<path d="M126.25 394.525C126.263 394.662 125.871 394.779 125.374 394.785C124.877 394.791 124.482 394.686 124.492 394.549C124.502 394.411 124.894 394.295 125.368 394.289C125.841 394.283 126.236 394.389 126.25 394.525Z" fill="#263238"/>
<path d="M162.401 395.183L162.402 387.021L147.688 386.923L147.566 399.127L148.478 399.194C152.537 399.454 169.132 399.96 171.852 399.123C174.885 398.191 162.401 395.183 162.401 395.183Z" fill="#0085D0"/>
<path d="M172.202 398.377C172.202 398.513 166.699 398.625 159.911 398.625C153.121 398.625 147.619 398.514 147.619 398.377C147.619 398.24 153.121 398.128 159.911 398.128C166.698 398.128 172.202 398.24 172.202 398.377Z" fill="#263238"/>
<path d="M162.66 396.848C162.539 396.785 162.643 396.354 162.96 395.929C163.275 395.502 163.659 395.275 163.755 395.372C163.854 395.47 163.653 395.828 163.362 396.223C163.07 396.615 162.783 396.914 162.66 396.848Z" fill="#263238"/>
<path d="M163.599 397.386C163.472 397.339 163.538 396.855 163.827 396.346C164.115 395.836 164.497 395.531 164.604 395.614C164.714 395.7 164.529 396.116 164.262 396.59C163.994 397.063 163.73 397.437 163.599 397.386Z" fill="#263238"/>
<path d="M152.052 398.322C151.995 398.362 151.776 398.147 151.457 397.789C151.138 397.433 150.717 396.929 150.166 396.504C149.62 396.08 149.019 395.867 148.574 395.812C148.127 395.752 147.833 395.822 147.808 395.75C147.782 395.697 148.056 395.492 148.586 395.461C149.108 395.426 149.847 395.623 150.471 396.11C151.092 396.591 151.488 397.166 151.741 397.582C151.995 398.001 152.108 398.284 152.052 398.322Z" fill="#263238"/>
<path d="M162.706 395.314C162.778 395.429 162.525 395.712 162.106 395.864C161.686 396.019 161.308 395.964 161.288 395.831C161.266 395.694 161.565 395.535 161.932 395.4C162.301 395.265 162.633 395.196 162.706 395.314Z" fill="#263238"/>
<path d="M162.472 394.525C162.486 394.662 162.093 394.779 161.597 394.785C161.1 394.791 160.705 394.686 160.715 394.549C160.725 394.411 161.117 394.295 161.591 394.289C162.064 394.283 162.459 394.389 162.472 394.525Z" fill="#263238"/>
<path d="M216.604 152.994C216.22 152.601 215.276 152.786 215.276 152.786C215.276 152.786 215.441 151.671 215.266 151.132C215.092 150.593 213.883 150.697 213.883 150.697C213.883 150.697 213.808 150.178 213.914 149.341C213.941 149.131 213.824 148.977 213.633 148.861C213.06 148.517 211.825 148.533 211.825 148.533C211.084 148.006 214.082 143.84 215.193 142.506C216.292 141.189 216.107 140.133 215.115 140.135C214.44 140.136 210.94 144.141 209.872 145.486C208.804 146.83 205.941 150.571 205.844 147.586C205.746 144.601 204.539 142.343 203.785 141.959C203.031 141.574 202.217 142.477 202.634 143.306C202.972 143.975 203.185 145.266 203.306 146.242C203.406 147.047 203.372 147.863 203.196 148.654C202.695 150.89 202.156 152.342 201.904 152.963L201.83 152.922C201.83 152.922 180.882 172.886 179.373 174.311C178.014 175.593 150.794 172.794 145.341 172.219C143.851 172.053 141.643 171.755 139.731 171.839C137.365 171.942 136.945 172.276 134.577 172.308C127.327 172.404 121.286 173.105 116.79 173.862C111.354 174.775 106.897 178.621 105.215 183.84C99.7106 200.912 87.2593 241.329 85.0404 264.035C83.2928 267.301 81.3398 271.116 80.5461 273.262C79.0038 277.436 79.3781 277.578 79.8983 277.674C81.2937 277.931 82.8907 270.436 83.4867 272.244C84.0836 274.054 80.4616 281.185 81.931 281.394C83.8466 281.666 85.3735 273.79 85.552 273.132C85.7257 272.494 86.6921 272.71 86.4992 273.295C86.2209 274.135 83.5203 283.035 85.3994 283.32C86.4407 283.478 86.5529 281.593 86.5529 281.593C86.5529 281.593 88.4628 273.081 89.3448 273.245C90.2411 273.412 89.2891 278.447 88.8467 280.122C88.41 281.777 89.0252 282.656 89.9235 282.24C90.5358 281.956 92.0108 276.856 92.4082 275.19C92.8065 273.524 93.8151 268.933 95.1702 271.598C96.5254 274.263 98.5763 275.804 99.4237 275.838C100.27 275.87 100.625 274.711 99.8949 274.134C99.3047 273.669 98.5638 272.588 98.0398 271.753C97.6079 271.065 97.2912 270.311 97.1165 269.519C96.4419 266.467 96.4476 264.692 96.4476 264.692L96.2912 263.711C98.44 253.13 104.635 222.085 113.533 202.252L117.198 209.747L118.788 215.295L109.023 239.274L150.687 238.729L144.476 214.94L152.022 190.134H152.021C160.188 190.315 181.165 190.618 184.69 189.051C189.084 187.1 211.828 158.603 211.828 158.603H211.827C213.364 157.387 214.926 156.079 216.079 154.937C216.081 154.936 217.437 153.845 216.604 152.994Z" fill="#FFBE9D"/>
<path d="M107.21 221.619C108.417 217.519 114.628 197.241 114.628 197.241C114.628 197.241 117.676 213.773 116.875 215.763C115.951 218.057 114.255 220.683 114.255 220.683C107.21 231.346 108.134 236.675 108.134 236.675L150.688 235.386C150.792 229.471 147.269 215.719 146.533 213.527C145.796 211.336 148.239 204.145 148.239 204.145C148.239 204.145 153.048 199.291 152.862 196.792C152.487 191.76 152.023 190.134 152.023 190.134L177.916 191.082L177.102 173.619L139.882 169.917C138.594 173.56 126.873 171.775 126.873 171.775C114.219 172.188 113.453 174.501 108.176 178.562C102.899 182.623 94.209 217.498 94.209 217.498L107.21 221.619Z" fill="#0085D0"/>
<path d="M132.377 217.494C132.376 217.56 131.52 217.616 130.134 217.607C128.75 217.598 126.835 217.512 124.731 217.304C122.627 217.092 120.734 216.797 119.374 216.531C118.015 216.266 117.187 216.042 117.199 215.977C117.213 215.907 118.062 216.009 119.431 216.185C120.799 216.361 122.688 216.6 124.781 216.808C126.873 217.017 128.772 217.158 130.148 217.256C131.525 217.355 132.378 217.423 132.377 217.494Z" fill="#263238"/>
<path d="M135.293 213.897C135.312 213.958 134.433 214.289 132.97 214.684C131.507 215.078 129.453 215.514 127.153 215.787C124.853 216.057 122.752 216.113 121.236 216.069C119.72 216.026 118.789 215.907 118.793 215.845C118.796 215.772 119.731 215.765 121.235 215.718C122.74 215.671 124.815 215.562 127.094 215.294C129.37 215.024 131.414 214.647 132.888 214.343C134.362 214.037 135.273 213.826 135.293 213.897Z" fill="#263238"/>
<path d="M149.602 197.852C149.668 197.867 149.559 198.691 149.311 200.01C149.064 201.329 148.675 203.142 148.184 205.129C147.693 207.118 147.195 208.905 146.801 210.188C146.406 211.472 146.12 212.253 146.054 212.235C145.987 212.216 146.153 211.402 146.459 210.097C146.822 208.608 147.239 206.899 147.699 205.012C148.169 203.128 148.595 201.422 148.967 199.935C149.302 198.635 149.534 197.838 149.602 197.852Z" fill="#263238"/>
<path d="M107.658 219.19C107.622 219.322 104.687 218.642 101.103 217.67C97.5189 216.697 94.6436 215.803 94.68 215.67C94.7165 215.537 97.6504 216.218 101.235 217.19C104.818 218.162 107.695 219.058 107.658 219.19Z" fill="#263238"/>
<path d="M152.495 189.91C152.495 189.933 152.1 189.974 151.393 189.904C150.689 189.833 149.66 189.67 148.467 189.211C147.273 188.766 145.916 188.023 144.648 186.9C143.38 185.781 142.247 184.241 141.524 182.43C140.79 180.619 140.549 178.732 140.664 177.053C140.775 175.376 141.223 173.86 141.978 172.798C142.726 171.722 143.717 171.201 144.407 171.021C144.756 170.929 145.038 170.907 145.227 170.911C145.416 170.916 145.513 170.937 145.513 170.953C145.515 170.999 145.114 170.977 144.466 171.205C143.828 171.432 142.932 171.967 142.272 172.995C140.965 175.036 140.601 178.763 141.989 182.247C142.685 183.988 143.755 185.467 144.959 186.562C146.161 187.662 147.455 188.412 148.599 188.886C150.904 189.836 152.512 189.804 152.495 189.91Z" fill="#263238"/>
<path d="M174.86 190.732C174.723 190.732 174.618 186.797 174.628 181.942C174.637 177.086 174.757 173.152 174.894 173.152C175.033 173.153 175.136 177.088 175.127 181.943C175.118 186.797 174.998 190.733 174.86 190.732Z" fill="#263238"/>
<path d="M139.654 170.98C139.759 168.851 139.983 166.446 139.983 166.446C139.983 166.446 145.279 165.866 145.6 160.428C145.922 154.99 145.6 142.451 145.6 142.451L135.954 137.569L125.344 145.892L126.951 173.079L136.714 173.696C138.254 173.793 139.575 172.574 139.654 170.98Z" fill="#FFBE9D"/>
<path d="M140.611 156.127C140.626 156.131 140.627 156.229 140.527 156.361C140.429 156.489 140.215 156.634 139.918 156.628C139.302 156.599 138.711 155.923 138.493 155.099C138.384 154.68 138.385 154.256 138.468 153.89C138.533 153.531 138.742 153.169 139.043 153.071C139.187 153.018 139.337 153.023 139.451 153.081C139.564 153.137 139.633 153.222 139.668 153.3C139.74 153.462 139.684 153.56 139.67 153.553C139.648 153.552 139.654 153.462 139.573 153.36C139.497 153.256 139.317 153.162 139.117 153.265C138.914 153.356 138.775 153.615 138.723 153.946C138.662 154.274 138.67 154.651 138.767 155.024C138.959 155.762 139.474 156.367 139.932 156.421C140.159 156.45 140.347 156.363 140.448 156.281C140.554 156.195 140.59 156.118 140.611 156.127Z" fill="#EB996E"/>
<path d="M148.89 139.516C148.153 137.013 145.476 135.769 143.036 135.083C139.325 134.037 135.305 133.575 131.679 134.901C128.053 136.228 123.692 138.562 123.693 142.544C121.553 142.368 120.33 144.232 119.481 146.542C118.979 147.906 118.649 149.424 118.571 150.929L118.536 150.917C118.26 156.128 116.8 163.308 113.4 167.163C111.523 169.291 108.82 170.761 107.726 173.412C106.775 175.715 107.268 178.438 106.368 180.763C105.575 182.816 103.817 184.274 102.557 186.059C99.8135 189.949 99.6264 195.445 101.643 199.786C103.659 204.127 107.654 207.303 112.089 208.759C116.524 210.215 121.355 210.054 125.869 208.887C129.201 208.024 132.443 206.597 135.098 204.341C137.754 202.086 139.791 198.95 140.399 195.449C141.075 191.553 139.978 187.596 139.17 183.726C136.618 171.483 137.347 170.847 140.569 159.49C140.642 159.289 140.687 159.081 140.743 158.875C140.785 158.724 140.826 158.58 140.869 158.425L140.862 158.423C140.953 157.979 141.011 157.527 141.013 157.065C140.08 157.43 138.954 157.187 138.238 156.468C137.523 155.749 137.256 154.589 137.581 153.613C137.956 152.49 138.992 151.74 140.056 151.295C141.121 150.849 142.266 150.629 143.311 150.136C145.527 149.088 147.063 146.913 148.108 144.634C148.843 143.036 149.389 141.207 148.89 139.516Z" fill="#263238"/>
<path d="M140.987 156.359C141.02 156.345 141.207 156.699 141.492 157.301C141.777 157.903 142.159 158.753 142.584 159.73L142.663 159.915L142.46 159.932C142.14 159.96 141.817 159.987 141.483 160.016C140.813 160.059 140.255 160.139 139.606 160.132C139.503 160.114 139.389 160.021 139.358 159.916C139.324 159.813 139.333 159.726 139.344 159.651C139.372 159.501 139.405 159.39 139.434 159.263L139.604 158.588C139.816 157.764 139.968 157.258 140.008 157.268C140.048 157.277 139.969 157.799 139.81 158.634L139.677 159.316C139.628 159.547 139.543 159.891 139.668 159.864C140.146 159.844 140.827 159.765 141.458 159.718C141.792 159.692 142.115 159.667 142.435 159.641L142.312 159.843C141.901 158.862 141.553 157.997 141.315 157.375C141.08 156.754 140.953 156.373 140.987 156.359Z" fill="#0085D0"/>
<path d="M108.134 236.675L150.688 235.385L169.196 307.25L165.787 389.684H143.264L146.055 309.005L129.594 258.978L132.13 392.881L109.391 393.215L106.995 267.351C106.895 263.853 105.737 255.961 106.168 252.491L108.134 236.675Z" fill="#263238"/>
<path d="M135.262 259.994C135.253 260.06 134.455 260.021 133.174 259.871C131.894 259.721 130.133 259.452 128.204 259.068C126.275 258.681 124.546 258.252 123.307 257.897C122.068 257.542 121.317 257.274 121.334 257.209C121.373 257.07 124.462 257.815 128.303 258.58C132.141 259.352 135.28 259.852 135.262 259.994Z" fill="#455A64"/>
<path d="M165.58 385.163C165.58 385.301 160.48 385.411 154.192 385.411C147.901 385.411 142.803 385.301 142.803 385.163C142.803 385.027 147.901 384.915 154.192 384.915C160.48 384.916 165.58 385.027 165.58 385.163Z" fill="#455A64"/>
<path d="M131.929 389.402C131.929 389.54 126.983 389.65 120.881 389.65C114.778 389.65 109.832 389.54 109.832 389.402C109.832 389.265 114.778 389.154 120.881 389.154C126.983 389.154 131.929 389.265 131.929 389.402Z" fill="#455A64"/>
<path d="M128.997 389.059C128.859 389.061 128.261 359.801 127.661 323.715C127.062 287.615 126.687 258.357 126.826 258.355C126.964 258.354 127.562 287.606 128.162 323.706C128.761 359.794 129.136 389.056 128.997 389.059Z" fill="#455A64"/>
<path d="M162.556 385.163C162.547 385.163 162.544 385.03 162.545 384.774C162.55 384.492 162.558 384.115 162.567 383.631C162.596 382.6 162.639 381.125 162.694 379.239C162.829 375.4 163.02 369.888 163.258 363.089C163.783 349.432 164.508 330.607 165.308 309.815C165.316 309.623 165.324 309.431 165.331 309.254L165.338 309.324C160.295 289.252 155.736 271.109 152.431 257.955C150.809 251.402 149.495 246.093 148.58 242.394C148.14 240.576 147.797 239.154 147.558 238.16C147.45 237.693 147.367 237.328 147.304 237.056C147.249 236.806 147.226 236.678 147.234 236.676C147.242 236.674 147.282 236.799 147.353 237.045C147.427 237.313 147.527 237.675 147.654 238.137C147.916 239.126 148.29 240.54 148.768 242.349C149.72 246.038 151.085 251.334 152.772 257.871C156.113 271.015 160.723 289.146 165.822 309.204L165.831 309.238L165.83 309.275C165.823 309.451 165.814 309.643 165.808 309.836C164.95 330.626 164.174 349.447 163.611 363.103C163.306 369.9 163.06 375.408 162.888 379.247C162.792 381.132 162.718 382.605 162.666 383.636C162.637 384.118 162.614 384.496 162.596 384.777C162.578 385.033 162.565 385.164 162.556 385.163Z" fill="#455A64"/>
<path d="M155.212 307.577C155.235 307.712 153.008 308.204 150.236 308.678C148.167 309.031 146.38 309.274 145.6 309.318L145.599 309.124C145.858 309.195 145.997 309.25 145.991 309.284C145.986 309.319 145.836 309.329 145.568 309.318L144.986 309.293L145.567 309.124C146.317 308.905 148.083 308.542 150.152 308.189C152.922 307.715 155.188 307.44 155.212 307.577Z" fill="#455A64"/>
<path d="M154.789 310.319C154.77 310.457 152.771 310.303 150.309 310.115C147.848 309.923 145.849 309.766 145.852 309.626C145.854 309.491 147.871 309.426 150.349 309.619C152.825 309.809 154.808 310.185 154.789 310.319Z" fill="#455A64"/>
<path opacity="0.2" d="M107.945 238.194C108.974 239.633 110.442 240.138 112.147 240.416C113.851 240.693 115.591 240.508 117.307 240.318C128.291 239.107 139.931 237.99 150.688 235.385C136.764 236.16 122.059 235.899 108.134 236.674C108.134 236.674 108.015 237.626 107.988 237.855" fill="black"/>
<g opacity="0.2">
<path d="M122.299 257.702L130.144 287.971L129.595 258.977L122.299 257.702Z" fill="black"/>
</g>
</svg>
